<svg width="1514" height="904" viewBox="0 0 1514 904" fill="none" xmlns="http://www.w3.org/2000/svg">
<g clip-path="url(#clip0_11860_5123)">
<path d="M1331.23 68.6385L1153.73 86.6497" stroke="#F4F4F4" stroke-width="1.5"/>
<path d="M1331.23 68.6387L1543.52 71.6635" stroke="#F4F4F4" stroke-width="1.5"/>
<path d="M1173.62 242.228L1153.73 86.6498" stroke="#F4F4F4" stroke-width="1.5"/>
<path d="M1173.62 242.228L973.562 289.646" stroke="#F4F4F4" stroke-width="1.5"/>
<path d="M1173.62 242.228L1331.23 68.6386" stroke="#F4F4F4" stroke-width="1.5"/>
<path d="M1173.62 242.228L1173.31 -95.8912" stroke="#F4F4F4" stroke-width="1.5"/>
<path d="M1173.62 242.228L768.848 277.486" stroke="#F4F4F4" stroke-width="1.5"/>
<path d="M1153.73 86.6497L1173.31 -95.8913" stroke="#F4F4F4" stroke-width="1.5"/>
<path d="M1153.73 86.6499L973.563 289.646" stroke="#F4F4F4" stroke-width="1.5"/>
<path d="M1153.73 86.6497L1321.18 -160.374" stroke="#F4F4F4" stroke-width="1.5"/>
<path d="M1153.73 86.6497L926 -108.388" stroke="#F4F4F4" stroke-width="1.5"/>
<path d="M1173.31 -95.8911L1331.23 68.6387" stroke="#F4F4F4" stroke-width="1.5"/>
<path d="M973.562 289.646L768.848 277.486" stroke="#F4F4F4" stroke-width="1.5"/>
<path d="M926 -108.387L781.479 55.959" stroke="#F4F4F4" stroke-width="1.5"/>
<path d="M745.219 448.6L768.848 277.486" stroke="#F4F4F4" stroke-width="1.5"/>
<path d="M745.219 448.6L547.653 444.139" stroke="#F4F4F4" stroke-width="1.5"/>
<path d="M745.219 448.6L578.414 609.662" stroke="#F4F4F4" stroke-width="1.5"/>
<path d="M768.848 277.486L781.479 55.959" stroke="#F4F4F4" stroke-width="1.5"/>
<path d="M768.848 277.486L547.653 444.139" stroke="#F4F4F4" stroke-width="1.5"/>
<path d="M781.479 55.959L747.113 -112.482" stroke="#F4F4F4" stroke-width="1.5"/>
<path d="M781.479 55.959L586.555 44.4862" stroke="#F4F4F4" stroke-width="1.5"/>
<path d="M781.479 55.959L973.562 289.646" stroke="#F4F4F4" stroke-width="1.5"/>
<path d="M747.113 -112.482L586.555 44.4862" stroke="#F4F4F4" stroke-width="1.5"/>
<path d="M533.356 778.042L578.414 609.662" stroke="#F4F4F4" stroke-width="1.5"/>
<path d="M533.356 778.042L330.597 796.343" stroke="#F4F4F4" stroke-width="1.5"/>
<path d="M533.356 778.042L353.813 640.567" stroke="#F4F4F4" stroke-width="1.5"/>
<path d="M533.356 778.042L547.653 444.139" stroke="#F4F4F4" stroke-width="1.5"/>
<path d="M578.414 609.662L547.653 444.139" stroke="#F4F4F4" stroke-width="1.5"/>
<path d="M578.414 609.662L353.813 640.567" stroke="#F4F4F4" stroke-width="1.5"/>
<path d="M547.653 444.139L363.298 404.939" stroke="#F4F4F4" stroke-width="1.5"/>
<path d="M547.653 444.139L404.843 237.461" stroke="#F4F4F4" stroke-width="1.5"/>
<path d="M547.653 444.139L353.813 640.567" stroke="#F4F4F4" stroke-width="1.5"/>
<path d="M586.555 44.4861L371.867 86.7567" stroke="#F4F4F4" stroke-width="1.5"/>
<path d="M586.555 44.4862L557.581 -177.515" stroke="#F4F4F4" stroke-width="1.5"/>
<path d="M330.597 796.343L189.986 781.922" stroke="#F4F4F4" stroke-width="1.5"/>
<path d="M330.597 796.343L353.813 640.567" stroke="#F4F4F4" stroke-width="1.5"/>
<path d="M330.597 796.343L154.612 595.409" stroke="#F4F4F4" stroke-width="1.5"/>
<path d="M353.813 640.567L154.612 595.409" stroke="#F4F4F4" stroke-width="1.5"/>
<path d="M363.298 404.939L404.843 237.461" stroke="#F4F4F4" stroke-width="1.5"/>
<path d="M363.298 404.939L186.992 460.256" stroke="#F4F4F4" stroke-width="1.5"/>
<path d="M363.298 404.939L353.813 640.567" stroke="#F4F4F4" stroke-width="1.5"/>
<path d="M404.843 237.461L371.867 86.7568" stroke="#F4F4F4" stroke-width="1.5"/>
<path d="M371.866 86.7567L348.727 -99.3285" stroke="#F4F4F4" stroke-width="1.5"/>
<path d="M348.727 -99.3284L586.555 44.4862" stroke="#F4F4F4" stroke-width="1.5"/>
<path d="M189.986 781.922L154.612 595.409" stroke="#F4F4F4" stroke-width="1.5"/>
<path d="M189.986 781.922L353.813 640.567" stroke="#F4F4F4" stroke-width="1.5"/>
<path d="M189.986 781.922L-52.3633 857.756" stroke="#F4F4F4" stroke-width="1.5"/>
<path d="M154.612 595.409L186.992 460.256" stroke="#F4F4F4" stroke-width="1.5"/>
<path d="M154.612 595.409L-14.408 593.607" stroke="#F4F4F4" stroke-width="1.5"/>
<path d="M186.992 460.256L154.963 286.683" stroke="#F4F4F4" stroke-width="1.5"/>
<path d="M186.992 460.256L-49.0031 466.077" stroke="#F4F4F4" stroke-width="1.5"/>
<path d="M186.992 460.256L-14.4079 593.606" stroke="#F4F4F4" stroke-width="1.5"/>
<path d="M154.963 286.683L132.679 101.071" stroke="#F4F4F4" stroke-width="1.5"/>
<path d="M132.679 101.071L-39.2127 35.8395" stroke="#F4F4F4" stroke-width="1.5"/>
<path d="M132.679 101.071L371.866 86.7567" stroke="#F4F4F4" stroke-width="1.5"/>
<path d="M132.679 101.071L-37.6091 276.325" stroke="#F4F4F4" stroke-width="1.5"/>
<path d="M132.679 101.071L226.063 -152.843" stroke="#F4F4F4" stroke-width="1.5"/>
<path d="M132.679 101.071L348.727 -99.3286" stroke="#F4F4F4" stroke-width="1.5"/>
<path d="M-52.3633 857.756L154.612 595.409" stroke="#F4F4F4" stroke-width="1.5"/>
<path d="M-52.3631 857.756L330.597 796.343" stroke="#F4F4F4" stroke-width="1.5"/>
<path d="M-52.3633 857.756L353.813 640.567" stroke="#F4F4F4" stroke-width="1.5"/>
<path d="M-49.0032 466.077L154.612 595.409" stroke="#F4F4F4" stroke-width="1.5"/>
<path d="M-37.6091 276.325L154.963 286.683" stroke="#F4F4F4" stroke-width="1.5"/>
<path d="M-37.6089 276.325L186.992 460.256" stroke="#F4F4F4" stroke-width="1.5"/>
<path d="M-39.2127 35.8395L154.963 286.683" stroke="#F4F4F4" stroke-width="1.5"/>
<path d="M-39.2125 35.8396L226.063 -152.843" stroke="#F4F4F4" stroke-width="1.5"/>
<path d="M1331.23 61.0003C1327.01 61.0003 1323.59 64.4201 1323.59 68.6386C1323.59 72.8572 1327.01 76.277 1331.23 76.277C1335.45 76.277 1338.87 72.8572 1338.87 68.6386C1338.87 64.4201 1335.45 61.0003 1331.23 61.0003Z" fill="#F4F4F4"/>
<path d="M1173.62 234.589C1169.4 234.589 1165.98 238.009 1165.98 242.228C1165.98 246.446 1169.4 249.866 1173.62 249.866C1177.84 249.866 1181.26 246.446 1181.26 242.228C1181.26 238.009 1177.84 234.589 1173.62 234.589Z" fill="#F4F4F4"/>
<path d="M1153.73 79.0114C1149.51 79.0114 1146.1 82.4312 1146.1 86.6497C1146.1 90.8683 1149.51 94.2881 1153.73 94.2881C1157.95 94.2881 1161.37 90.8683 1161.37 86.6497C1161.37 82.4312 1157.95 79.0114 1153.73 79.0114Z" fill="#F4F4F4"/>
<path d="M973.563 282.008C969.345 282.008 965.926 285.428 965.926 289.646C965.926 293.865 969.345 297.285 973.563 297.285C977.78 297.285 981.199 293.865 981.199 289.646C981.199 285.428 977.78 282.008 973.563 282.008Z" fill="#F4F4F4"/>
<path d="M745.219 440.962C741.001 440.962 737.582 444.382 737.582 448.6C737.582 452.819 741.001 456.239 745.219 456.239C749.437 456.239 752.856 452.819 752.856 448.6C752.856 444.382 749.437 440.962 745.219 440.962Z" fill="#F4F4F4"/>
<path d="M768.848 269.848C764.63 269.848 761.211 273.268 761.211 277.486C761.211 281.705 764.63 285.124 768.848 285.124C773.066 285.124 776.485 281.705 776.485 277.486C776.485 273.268 773.066 269.848 768.848 269.848Z" fill="#F4F4F4"/>
<path d="M781.479 48.3207C777.261 48.3207 773.842 51.7405 773.842 55.9591C773.842 60.1776 777.261 63.5974 781.479 63.5974C785.697 63.5974 789.116 60.1776 789.116 55.9591C789.116 51.7405 785.697 48.3207 781.479 48.3207Z" fill="#F4F4F4"/>
<path d="M533.356 770.403C529.139 770.403 525.719 773.823 525.719 778.042C525.719 782.26 529.139 785.68 533.356 785.68C537.574 785.68 540.993 782.26 540.993 778.042C540.993 773.823 537.574 770.403 533.356 770.403Z" fill="#F4F4F4"/>
<path d="M578.414 602.024C574.196 602.024 570.777 605.444 570.777 609.662C570.777 613.881 574.196 617.301 578.414 617.301C582.632 617.301 586.051 613.881 586.051 609.662C586.051 605.444 582.632 602.024 578.414 602.024Z" fill="#F4F4F4"/>
<path d="M547.653 436.501C543.435 436.501 540.016 439.921 540.016 444.139C540.016 448.358 543.435 451.778 547.653 451.778C551.87 451.778 555.29 448.358 555.29 444.139C555.29 439.921 551.87 436.501 547.653 436.501Z" fill="#F4F4F4"/>
<path d="M586.555 36.8478C582.337 36.8478 578.918 40.2676 578.918 44.4861C578.918 48.7046 582.337 52.1245 586.555 52.1245C590.773 52.1245 594.192 48.7046 594.192 44.4861C594.192 40.2676 590.773 36.8478 586.555 36.8478Z" fill="#F4F4F4"/>
<path d="M330.597 788.705C326.379 788.705 322.96 792.125 322.96 796.343C322.96 800.562 326.379 803.982 330.597 803.982C334.814 803.982 338.234 800.562 338.234 796.343C338.234 792.125 334.814 788.705 330.597 788.705Z" fill="#F4F4F4"/>
<path d="M353.813 632.929C349.595 632.929 346.176 636.349 346.176 640.567C346.176 644.786 349.595 648.205 353.813 648.205C358.031 648.205 361.45 644.786 361.45 640.567C361.45 636.349 358.031 632.929 353.813 632.929Z" fill="#F4F4F4"/>
<path d="M363.298 397.301C359.08 397.301 355.661 400.721 355.661 404.939C355.661 409.158 359.08 412.578 363.298 412.578C367.516 412.578 370.935 409.158 370.935 404.939C370.935 400.721 367.516 397.301 363.298 397.301Z" fill="#F4F4F4"/>
<path d="M404.842 229.823C400.625 229.823 397.206 233.243 397.206 237.461C397.206 241.68 400.625 245.1 404.842 245.1C409.06 245.1 412.479 241.68 412.479 237.461C412.479 233.243 409.06 229.823 404.842 229.823Z" fill="#F4F4F4"/>
<path d="M371.866 79.1186C367.649 79.1186 364.229 82.5384 364.229 86.7569C364.229 90.9755 367.649 94.3953 371.866 94.3953C376.084 94.3953 379.503 90.9755 379.503 86.7569C379.503 82.5384 376.084 79.1186 371.866 79.1186Z" fill="#F4F4F4"/>
<path d="M189.986 774.284C185.768 774.284 182.349 777.704 182.349 781.922C182.349 786.141 185.768 789.56 189.986 789.56C194.204 789.56 197.623 786.141 197.623 781.922C197.623 777.704 194.204 774.284 189.986 774.284Z" fill="#F4F4F4"/>
<path d="M154.612 587.771C150.394 587.771 146.975 591.19 146.975 595.409C146.975 599.628 150.394 603.047 154.612 603.047C158.83 603.047 162.249 599.628 162.249 595.409C162.249 591.19 158.83 587.771 154.612 587.771Z" fill="#F4F4F4"/>
<path d="M186.992 452.618C182.775 452.618 179.355 456.038 179.355 460.256C179.355 464.475 182.775 467.895 186.992 467.895C191.21 467.895 194.629 464.475 194.629 460.256C194.629 456.038 191.21 452.618 186.992 452.618Z" fill="#F4F4F4"/>
<path d="M154.963 279.044C150.745 279.044 147.326 282.464 147.326 286.683C147.326 290.901 150.745 294.321 154.963 294.321C159.181 294.321 162.6 290.901 162.6 286.683C162.6 282.464 159.181 279.044 154.963 279.044Z" fill="#F4F4F4"/>
<path d="M132.679 93.4327C128.461 93.4327 125.042 96.8525 125.042 101.071C125.042 105.29 128.461 108.709 132.679 108.709C136.896 108.709 140.316 105.29 140.316 101.071C140.316 96.8525 136.896 93.4327 132.679 93.4327Z" fill="#F4F4F4"/>
<path d="M553.762 20.1504L571.602 -146.457" stroke="#E3E3E3" stroke-width="1.5"/>
<path d="M553.762 20.1504L358.609 20.0129" stroke="#E3E3E3" stroke-width="1.5"/>
<path d="M553.762 20.1504L780.853 16.2701" stroke="#E3E3E3" stroke-width="1.5"/>
<path d="M413.075 286.591L513.989 268.106" stroke="#E3E3E3" stroke-width="1.5"/>
<path d="M413.075 286.591L358.089 391.038" stroke="#E3E3E3" stroke-width="1.5"/>
<path d="M164.051 615.635L-25.3287 625.122" stroke="#E3E3E3" stroke-width="1.5"/>
<path d="M164.051 615.635L142.561 414.197" stroke="#E3E3E3" stroke-width="1.5"/>
<path d="M164.051 615.635L16.2313 466.993" stroke="#E3E3E3" stroke-width="1.5"/>
<path d="M164.051 615.635L379.717 675.138" stroke="#E3E3E3" stroke-width="1.5"/>
<path d="M164.051 615.635L150.794 846.176" stroke="#E3E3E3" stroke-width="1.5"/>
<path d="M164.051 615.635L2.68343 797.902" stroke="#E3E3E3" stroke-width="1.5"/>
<path d="M16.2313 466.993L142.561 414.197" stroke="#E3E3E3" stroke-width="1.5"/>
<path d="M16.2313 466.993L-25.3286 625.122" stroke="#E3E3E3" stroke-width="1.5"/>
<path d="M16.2314 466.993L30.7874 264.7" stroke="#E3E3E3" stroke-width="1.5"/>
<path d="M16.2313 466.993L158.323 207.58" stroke="#E3E3E3" stroke-width="1.5"/>
<path d="M1344.53 48.733L1360.23 -97.9842" stroke="#E3E3E3" stroke-width="1.5"/>
<path d="M1344.53 48.733L1177.5 -112.298" stroke="#E3E3E3" stroke-width="1.5"/>
<path d="M1344.53 48.733L1532.8 -97.1287" stroke="#E3E3E3" stroke-width="1.5"/>
<path d="M1344.53 48.733L1279.19 -280.266" stroke="#E3E3E3" stroke-width="1.5"/>
<path d="M1344.53 48.733L954.531 39.674" stroke="#E3E3E3" stroke-width="1.5"/>
<path d="M1344.53 48.733L1660.82 -181.899" stroke="#E3E3E3" stroke-width="1.5"/>
<path d="M1177.5 -112.298L954.531 39.674" stroke="#E3E3E3" stroke-width="1.5"/>
<path d="M954.531 39.674L982.192 -101.177" stroke="#E3E3E3" stroke-width="1.5"/>
<path d="M954.531 39.674L780.853 16.2701" stroke="#E3E3E3" stroke-width="1.5"/>
<path d="M954.531 39.674L787.283 -96.1357" stroke="#E3E3E3" stroke-width="1.5"/>
<path d="M954.531 39.674L553.762 20.1504" stroke="#E3E3E3" stroke-width="1.5"/>
<path d="M780.853 16.2701L787.283 -96.1358" stroke="#E3E3E3" stroke-width="1.5"/>
<path d="M780.853 16.2701L982.192 -101.177" stroke="#E3E3E3" stroke-width="1.5"/>
<path d="M787.283 -96.1357L553.762 20.1504" stroke="#E3E3E3" stroke-width="1.5"/>
<path d="M712.655 -373.362L780.853 16.2701" stroke="#E3E3E3" stroke-width="1.5"/>
<path d="M513.989 268.106L358.09 391.038" stroke="#E3E3E3" stroke-width="1.5"/>
<path d="M513.989 268.106L553.762 20.1504" stroke="#E3E3E3" stroke-width="1.5"/>
<path d="M513.989 268.106L358.609 20.0129" stroke="#E3E3E3" stroke-width="1.5"/>
<path d="M513.989 268.106L158.323 207.58" stroke="#E3E3E3" stroke-width="1.5"/>
<path d="M331.559 816.997L379.717 675.138" stroke="#E3E3E3" stroke-width="1.5"/>
<path d="M331.559 816.997L150.793 846.176" stroke="#E3E3E3" stroke-width="1.5"/>
<path d="M331.559 816.997L164.051 615.635" stroke="#E3E3E3" stroke-width="1.5"/>
<path d="M331.559 816.997L2.68342 797.902" stroke="#E3E3E3" stroke-width="1.5"/>
<path d="M331.559 816.997L-25.3287 625.122" stroke="#E3E3E3" stroke-width="1.5"/>
<path d="M331.559 816.997L358.089 391.038" stroke="#E3E3E3" stroke-width="1.5"/>
<path d="M379.717 675.138L358.09 391.038" stroke="#E3E3E3" stroke-width="1.5"/>
<path d="M379.717 675.138L150.794 846.176" stroke="#E3E3E3" stroke-width="1.5"/>
<path d="M379.717 675.138L142.561 414.197" stroke="#E3E3E3" stroke-width="1.5"/>
<path d="M379.717 675.138L413.075 286.591" stroke="#E3E3E3" stroke-width="1.5"/>
<path d="M358.089 391.038L142.561 414.197" stroke="#E3E3E3" stroke-width="1.5"/>
<path d="M358.089 391.038L158.323 207.58" stroke="#E3E3E3" stroke-width="1.5"/>
<path d="M358.609 20.0128L332.888 -105.119" stroke="#E3E3E3" stroke-width="1.5"/>
<path d="M358.609 20.0131L209.292 61.6879" stroke="#E3E3E3" stroke-width="1.5"/>
<path d="M358.609 20.0128L219.174 -171.343" stroke="#E3E3E3" stroke-width="1.5"/>
<path d="M358.609 20.0128L571.602 -146.457" stroke="#E3E3E3" stroke-width="1.5"/>
<path d="M150.793 846.176L2.68339 797.902" stroke="#E3E3E3" stroke-width="1.5"/>
<path d="M150.793 846.176L-25.3287 625.122" stroke="#E3E3E3" stroke-width="1.5"/>
<path d="M150.793 846.176L16.2312 466.993" stroke="#E3E3E3" stroke-width="1.5"/>
<path d="M142.561 414.197L30.7873 264.699" stroke="#E3E3E3" stroke-width="1.5"/>
<path d="M158.323 207.58L30.7873 264.7" stroke="#E3E3E3" stroke-width="1.5"/>
<path d="M158.323 207.58L209.292 61.6877" stroke="#E3E3E3" stroke-width="1.5"/>
<path d="M158.323 207.58L142.561 414.197" stroke="#E3E3E3" stroke-width="1.5"/>
<path d="M158.323 207.58L-20.5021 92.7605" stroke="#E3E3E3" stroke-width="1.5"/>
<path d="M158.323 207.58L413.075 286.591" stroke="#E3E3E3" stroke-width="1.5"/>
<path d="M209.292 61.6879L332.888 -105.118" stroke="#E3E3E3" stroke-width="1.5"/>
<path d="M209.292 61.6877L-20.5022 92.7604" stroke="#E3E3E3" stroke-width="1.5"/>
<path d="M209.292 61.6879L219.174 -171.343" stroke="#E3E3E3" stroke-width="1.5"/>
<path d="M209.292 61.6878L30.7871 264.7" stroke="#E3E3E3" stroke-width="1.5"/>
<path d="M-25.3289 625.122L2.68323 797.902" stroke="#E3E3E3" stroke-width="1.5"/>
<path d="M-25.3287 625.122L142.561 414.197" stroke="#E3E3E3" stroke-width="1.5"/>
<path d="M30.7874 264.7L-20.502 92.7606" stroke="#E3E3E3" stroke-width="1.5"/>
<path d="M6.83789 -134.526L-20.5022 92.7604" stroke="#E3E3E3" stroke-width="1.5"/>
<path d="M553.762 -18.0412C532.674 -18.0412 515.578 -0.942169 515.578 20.1505C515.578 41.2432 532.674 58.3422 553.762 58.3422C574.851 58.3422 591.947 41.2432 591.947 20.1505C591.947 -0.942169 574.851 -18.0412 553.762 -18.0412Z" fill="url(#paint0_radial_11860_5123)"/>
<path d="M413.075 248.399C391.986 248.399 374.891 265.498 374.891 286.591C374.891 307.684 391.986 324.783 413.075 324.783C434.164 324.783 451.26 307.684 451.26 286.591C451.26 265.498 434.164 248.399 413.075 248.399Z" fill="url(#paint1_radial_11860_5123)"/>
<path d="M164.051 577.444C142.962 577.444 125.867 594.543 125.867 615.635C125.867 636.728 142.962 653.827 164.051 653.827C185.14 653.827 202.236 636.728 202.236 615.635C202.236 594.543 185.14 577.444 164.051 577.444Z" fill="url(#paint2_radial_11860_5123)"/>
<path d="M16.2312 428.802C-4.85754 428.802 -21.9533 445.901 -21.9533 466.993C-21.9533 488.086 -4.85754 505.185 16.2312 505.185C37.3199 505.185 54.4158 488.086 54.4158 466.993C54.4158 445.901 37.3199 428.802 16.2312 428.802Z" fill="url(#paint3_radial_11860_5123)"/>
<path d="M1344.53 41.0948C1340.31 41.0948 1336.9 44.5146 1336.9 48.7331C1336.9 52.9517 1340.31 56.3715 1344.53 56.3715C1348.75 56.3715 1352.17 52.9517 1352.17 48.7331C1352.17 44.5146 1348.75 41.0948 1344.53 41.0948Z" fill="#F0F0F0"/>
<path d="M954.531 32.0356C950.314 32.0356 946.894 35.4554 946.894 39.674C946.894 43.8925 950.314 47.3123 954.531 47.3123C958.749 47.3123 962.168 43.8925 962.168 39.674C962.168 35.4554 958.749 32.0356 954.531 32.0356Z" fill="#F0F0F0"/>
<path d="M780.853 8.63177C776.635 8.63177 773.216 12.0516 773.216 16.2701C773.216 20.4886 776.635 23.9084 780.853 23.9084C785.071 23.9084 788.49 20.4886 788.49 16.2701C788.49 12.0516 785.071 8.63177 780.853 8.63177Z" fill="#F0F0F0"/>
<path d="M513.989 260.468C509.771 260.468 506.352 263.888 506.352 268.106C506.352 272.325 509.771 275.745 513.989 275.745C518.207 275.745 521.626 272.325 521.626 268.106C521.626 263.888 518.207 260.468 513.989 260.468Z" fill="#F0F0F0"/>
<path d="M331.559 809.359C327.341 809.359 323.922 812.779 323.922 816.997C323.922 821.216 327.341 824.636 331.559 824.636C335.777 824.636 339.196 821.216 339.196 816.997C339.196 812.779 335.777 809.359 331.559 809.359Z" fill="#F0F0F0"/>
<path d="M379.717 667.5C375.499 667.5 372.08 670.919 372.08 675.138C372.08 679.357 375.499 682.776 379.717 682.776C383.935 682.776 387.354 679.357 387.354 675.138C387.354 670.919 383.935 667.5 379.717 667.5Z" fill="#F0F0F0"/>
<path d="M358.09 383.399C353.872 383.399 350.453 386.819 350.453 391.038C350.453 395.256 353.872 398.676 358.09 398.676C362.307 398.676 365.727 395.256 365.727 391.038C365.727 386.819 362.307 383.399 358.09 383.399Z" fill="#F0F0F0"/>
<path d="M358.609 12.3746C354.391 12.3746 350.972 15.7944 350.972 20.013C350.972 24.2315 354.391 27.6513 358.609 27.6513C362.827 27.6513 366.246 24.2315 366.246 20.013C366.246 15.7944 362.827 12.3746 358.609 12.3746Z" fill="#F0F0F0"/>
<path d="M150.793 838.538C146.576 838.538 143.156 841.957 143.156 846.176C143.156 850.394 146.576 853.814 150.793 853.814C155.011 853.814 158.43 850.394 158.43 846.176C158.43 841.957 155.011 838.538 150.793 838.538Z" fill="#F0F0F0"/>
<path d="M142.561 406.559C138.343 406.559 134.924 409.979 134.924 414.197C134.924 418.416 138.343 421.835 142.561 421.835C146.778 421.835 150.198 418.416 150.198 414.197C150.198 409.979 146.778 406.559 142.561 406.559Z" fill="#F0F0F0"/>
<path d="M158.323 199.942C154.106 199.942 150.687 203.361 150.687 207.58C150.687 211.799 154.106 215.218 158.323 215.218C162.541 215.218 165.96 211.799 165.96 207.58C165.96 203.361 162.541 199.942 158.323 199.942Z" fill="#F0F0F0"/>
<path d="M209.292 54.0494C205.074 54.0494 201.655 57.4692 201.655 61.6878C201.655 65.9063 205.074 69.3261 209.292 69.3261C213.51 69.3261 216.929 65.9063 216.929 61.6878C216.929 57.4692 213.51 54.0494 209.292 54.0494Z" fill="#F0F0F0"/>
<path d="M2.68341 790.263C-1.53433 790.263 -4.95349 793.683 -4.95349 797.902C-4.95349 802.12 -1.53433 805.54 2.68341 805.54C6.90116 805.54 10.3203 802.12 10.3203 797.902C10.3203 793.683 6.90116 790.263 2.68341 790.263Z" fill="#F0F0F0"/>
<path d="M30.7873 257.061C26.5696 257.061 23.1504 260.481 23.1504 264.7C23.1504 268.918 26.5696 272.338 30.7873 272.338C35.005 272.338 38.4242 268.918 38.4242 264.7C38.4242 260.481 35.005 257.061 30.7873 257.061Z" fill="#F0F0F0"/>
<rect width="1514" height="942" fill="url(#paint4_linear_11860_5123)"/>
</g>
<defs>
<radialGradient id="paint0_radial_11860_5123" cx="0" cy="0" r="1" gradientUnits="userSpaceOnUse" gradientTransform="translate(553.762 20.1505) rotate(180) scale(38.1845 38.1917)">
<stop stop-color="#EDEDED" stop-opacity="0.22"/>
<stop offset="1" stop-color="#E1E1E1" stop-opacity="0"/>
</radialGradient>
<radialGradient id="paint1_radial_11860_5123" cx="0" cy="0" r="1" gradientUnits="userSpaceOnUse" gradientTransform="translate(413.075 286.591) rotate(180) scale(38.1845 38.1917)">
<stop stop-color="#EDEDED" stop-opacity="0.22"/>
<stop offset="1" stop-color="#E1E1E1" stop-opacity="0"/>
</radialGradient>
<radialGradient id="paint2_radial_11860_5123" cx="0" cy="0" r="1" gradientUnits="userSpaceOnUse" gradientTransform="translate(164.051 615.635) rotate(180) scale(38.1845 38.1917)">
<stop stop-color="#EDEDED" stop-opacity="0.22"/>
<stop offset="1" stop-color="#E1E1E1" stop-opacity="0"/>
</radialGradient>
<radialGradient id="paint3_radial_11860_5123" cx="0" cy="0" r="1" gradientUnits="userSpaceOnUse" gradientTransform="translate(16.2312 466.993) rotate(180) scale(38.1845 38.1917)">
<stop stop-color="#EDEDED" stop-opacity="0.22"/>
<stop offset="1" stop-color="#E1E1E1" stop-opacity="0"/>
</radialGradient>
<linearGradient id="paint4_linear_11860_5123" x1="757" y1="0" x2="757" y2="942" gradientUnits="userSpaceOnUse">
<stop stop-color="#FCFCFC"/>
<stop offset="0.0729167" stop-color="#FCFCFC" stop-opacity="0"/>
<stop offset="0.71875" stop-color="#FCFCFC" stop-opacity="0"/>
<stop offset="1" stop-color="#FCFCFC"/>
</linearGradient>
<clipPath id="clip0_11860_5123">
<rect width="1514" height="904" fill="white" transform="translate(1514 904) rotate(-180)"/>
</clipPath>
</defs>
</svg>
