<svg width="864" height="420" viewBox="0 0 864 420" fill="none" xmlns="http://www.w3.org/2000/svg">
<path d="M566.127 137.763V314.477H235.902V137.763C235.909 131.151 238.539 124.811 243.215 120.135C247.891 115.459 254.231 112.828 260.844 112.822H541.19C547.804 112.823 554.147 115.451 558.824 120.128C563.5 124.806 566.127 131.149 566.127 137.763Z" fill="#D4E5EB"/>
<path opacity="0.57" d="M566.127 163.262V314.477H235.902V137.763C235.891 131.666 238.125 125.778 242.18 121.223C254.103 120.487 261.326 120.347 261.326 120.347C261.326 120.347 245.636 191.436 282.159 233.221C318.683 275.006 533.336 250.024 535.504 229.844C537.672 209.663 527.694 168.597 542.657 165.934C548.435 164.904 557.367 163.989 566.127 163.262Z" fill="#85B6C5"/>
<path d="M575.27 279.522H217.667V327.921H575.27V279.522Z" fill="#D4E5EB"/>
<path d="M549.461 303.719H249.934V307.482H549.461V303.719Z" fill="#3E8B96"/>
<path d="M555.978 303.014C555.79 303.277 555.593 303.513 555.409 303.723C555.377 303.744 555.341 303.758 555.304 303.763C553.989 304.113 540.572 304.267 521.864 304.306H520.4C506.094 304.332 488.862 304.306 471.612 304.227H470.179C445.281 304.126 420.484 303.969 404.473 303.859H403.01L386.671 303.741H258.076C245.171 303.741 245.412 297.608 246.845 295.23C247.305 294.463 247.029 293.478 246.494 292.317C245.75 290.687 244.497 288.72 243.997 286.53C243.885 286.046 243.812 285.554 243.778 285.058C243.733 284.294 243.807 283.527 243.997 282.785C244.619 280.411 247.287 276.788 250.13 273.446C250.515 273.008 250.905 272.535 251.295 272.092C254.651 268.26 257.866 265.084 257.866 265.084L283.837 265.189H285.646L315.455 265.312H317.378L363.582 265.504H365.772L391.617 265.605H393.246L456.985 265.864H458.637L501.385 266.039H503.383L531.728 266.157C531.728 266.157 539.293 269.372 544.939 273.849C545.478 274.287 546.004 274.725 546.494 275.163C547.6 276.137 548.588 277.237 549.438 278.44C552.64 283.029 553.919 288.689 552.999 294.209C552.865 294.704 552.803 295.216 552.815 295.729C552.899 296.22 553.547 296.167 555.444 297.6C557.835 299.417 557.012 301.581 555.978 303.014Z" fill="#306E76"/>
<path d="M553.131 287.766L553.004 286.333C552.741 286.355 534.12 287.954 519.713 288.856C518.924 285.295 517.917 282.316 516.646 280.669C516.003 279.837 515.061 278.729 513.922 277.437C522.858 277.056 537.195 275.96 546.503 275.207C546.013 274.769 545.487 274.331 544.948 273.893C535.211 274.673 521.027 275.741 512.682 276.052C510.085 273.166 506.747 269.613 503.391 266.083H501.394C504.723 269.587 508.091 273.144 510.803 276.118C510.032 276.118 509.331 276.149 508.722 276.149H508.67C501.175 276.149 479.562 275.014 462.947 274.051C461.576 271.225 460.091 268.4 458.646 265.907H456.977C458.352 268.238 459.828 271.002 461.283 273.954C455.084 273.595 449.705 273.262 446.205 273.03C439.845 272.614 433.252 272.991 422.332 273.613C416.072 273.967 408.135 274.423 397.745 274.865C396.352 271.655 394.648 268.295 393.237 265.667H391.608C392.992 268.255 394.753 271.681 396.207 274.957C387.035 275.338 376.005 275.715 362.61 276.013C360.741 276.054 358.854 276.086 356.95 276.109C360.577 271.107 364.283 266.473 365.51 265.75C365.598 265.7 365.679 265.638 365.75 265.566H363.56C361.593 267.546 358.282 271.782 355.15 276.144C339.989 276.311 324.018 276.009 308.788 275.457C310.001 273.915 311.271 272.342 312.524 270.844C314.382 268.632 315.976 266.832 317.343 265.377H315.42C312.664 268.391 309.659 272.053 307.057 275.4C297.206 275.027 287.683 274.559 278.922 274.051C280.981 271.282 283.303 268.251 285.611 265.255H283.802C281.638 268.058 279.312 271.111 277.209 273.959C267.332 273.372 258.47 272.741 251.251 272.15C250.861 272.588 250.472 273.026 250.086 273.503C257.944 274.151 267.27 274.817 276.184 275.347C272.965 279.728 270.459 283.438 270.188 284.603C270.056 285.406 270.008 286.221 270.043 287.034C259.775 286.395 250.769 285.72 243.761 285.116C243.803 285.593 243.882 286.066 243.997 286.53C251.615 287.183 260.976 287.845 270.109 288.431C270.284 292.812 271.007 299.514 271.502 303.723H272.908C272.365 299.08 271.686 292.641 271.506 288.519L273.07 288.615C279.886 289.018 289.085 289.492 299.611 289.93C299.549 293.894 300.128 299.054 300.82 303.719H302.274C301.551 298.901 300.96 293.754 301.021 289.987C314.938 290.53 331.053 290.946 347.015 290.863C346.775 294.455 347.015 300.587 347.156 303.706H348.588C348.443 300.587 348.207 294.284 348.448 290.854C352.176 290.854 355.895 290.784 359.561 290.701C376.395 290.328 389.514 289.824 399.909 289.36C400.461 292.185 401.162 295.396 401.819 298.397C402.213 300.215 402.633 302.129 402.984 303.824H404.447C404.136 302.3 403.728 300.407 403.22 298.081C402.581 295.155 401.906 292.032 401.359 289.277C408.683 288.931 414.614 288.594 419.52 288.313C430.786 287.674 436.998 287.319 443.283 287.735C448.461 288.072 457.739 288.611 467.717 289.189C469.29 293.749 470.271 297.797 470.179 300.412C470.131 301.691 470.135 302.952 470.179 304.192H471.612C471.576 302.97 471.576 301.717 471.612 300.456C471.704 297.924 470.876 294.025 469.285 289.268C483.999 290.074 499.821 290.845 506.033 290.845H506.085C508.871 290.845 513.4 290.635 518.574 290.319C519.427 294.934 520.033 299.592 520.392 304.271H521.842C521.481 299.569 520.868 294.89 520.006 290.254C534.418 289.369 552.868 287.788 553.131 287.766ZM271.471 287.065C271.436 286.333 271.476 285.599 271.589 284.875C271.822 283.885 274.388 280.148 277.893 275.4C285.212 275.838 294.95 276.337 305.984 276.758C303.4 280.139 301.35 283.035 300.588 284.358C300.071 285.256 299.786 286.71 299.672 288.506C289.72 288.094 280.171 287.595 271.476 287.065H271.471ZM301.078 288.554C301.175 287.008 301.411 285.79 301.832 285.05C302.809 283.359 305.056 280.231 307.706 276.797C321.955 277.318 338.215 277.673 354.138 277.529C350.677 282.448 347.664 287.227 347.291 288.817C347.248 288.997 347.213 289.202 347.178 289.43C331.943 289.513 316.077 289.159 301.083 288.554H301.078ZM359.548 289.286C355.96 289.364 352.311 289.413 348.623 289.435C348.623 289.338 348.662 289.246 348.68 289.163C349.03 287.678 352.311 282.592 355.916 277.524C358.168 277.498 360.415 277.459 362.645 277.41C376.32 277.108 387.53 276.723 396.812 276.333C397.968 279.084 398.831 281.62 398.963 283.32C399.055 284.493 399.304 286.105 399.646 287.95C389.308 288.427 376.285 288.918 359.552 289.286H359.548ZM443.397 286.333C437.02 285.895 430.409 286.289 419.454 286.916C414.509 287.196 408.503 287.534 401.105 287.884C400.754 286.005 400.5 284.38 400.408 283.206C400.268 281.453 399.453 278.965 398.345 276.267C408.481 275.829 416.261 275.391 422.437 275.036C433.677 274.397 439.871 274.042 446.135 274.454C449.788 274.695 455.483 275.045 462.023 275.426C463.95 279.456 465.794 283.749 467.24 287.757C457.485 287.214 448.474 286.666 443.402 286.333H443.397ZM506.103 289.452H506.055C499.782 289.452 483.653 288.664 468.821 287.845C467.608 284.402 466.031 280.569 464.143 276.508C463.994 276.18 463.836 275.851 463.705 275.522C480.232 276.477 501.319 277.572 508.718 277.577H508.766C509.699 277.577 510.829 277.577 512.113 277.511C513.593 279.163 514.793 280.577 515.564 281.55C516.699 283.009 517.606 285.689 518.333 288.944C513.243 289.246 508.832 289.452 506.107 289.452H506.103Z" fill="#488092"/>
<path d="M555.979 303.014C555.768 303.259 555.541 303.509 555.304 303.763C550.451 305.033 386.659 303.724 386.659 303.724H258.077C245.172 303.724 245.413 297.591 246.845 295.212C247.305 294.446 247.029 293.46 246.495 292.299C261.826 293.395 289.94 295.396 311.018 296.886C341.492 299.037 368.918 298.318 383.527 296.886C398.135 295.453 438.054 296.645 459.308 297.127C477.596 297.534 534.922 292.177 552.777 295.729C555.685 296.308 557.551 297.127 558.033 298.244C558.515 299.361 557.744 300.986 555.979 303.014Z" fill="#439AA6"/>
<path d="M279.606 179.688C279.174 180.175 278.774 180.69 278.41 181.23C278.71 180.647 279.116 180.124 279.606 179.688Z" fill="white"/>
<path d="M279.606 179.688C279.116 180.124 278.71 180.647 278.41 181.23C278.774 180.69 279.174 180.175 279.606 179.688Z" fill="black"/>
<path d="M252.794 327.916L249.289 343.852L238.4 393.657C238.093 395.081 236.608 396.115 234.895 396.115H231.435C229.319 396.115 227.659 394.59 227.869 392.829L233.529 343.852L235.373 327.916H252.794Z" fill="#85B6C5"/>
<path d="M567.052 396.115H563.596C561.843 396.115 560.376 395.081 560.065 393.657L549.175 343.852L545.671 327.916H563.092L564.936 343.852L570.6 392.829C570.823 394.59 569.167 396.115 567.052 396.115Z" fill="#85B6C5"/>
<path d="M434.746 193.732C434.746 193.732 426.542 175.255 434.746 174.765C442.951 174.274 445.461 181.44 450.722 180.963C455.982 180.485 458.821 181.922 463.254 182.877C467.687 183.832 490.158 182.636 497.807 181.681C505.455 180.726 515.972 182.119 521.229 179.859C526.485 177.599 538.198 174.033 537.484 178.107C536.77 182.181 529.832 187.906 531.268 192.685C532.705 197.464 530.073 203.439 532.942 208.454C535.811 213.47 536.047 238.333 534.852 247.654C533.656 256.976 533.48 258.859 537.515 264.37C541.549 269.88 537.243 268.685 531.505 267.971C525.767 267.257 517.645 269.162 511.193 270.121C504.741 271.081 460.858 263.358 456.986 265.903C453.113 268.448 426.533 273.056 431.097 266.21C435.662 259.363 436.621 258.886 433.752 249.328C430.883 239.77 434.746 193.732 434.746 193.732Z" fill="#F1FCF8"/>
<path d="M510.593 205.883C510.593 206.463 510.421 207.029 510.099 207.511C509.777 207.993 509.319 208.369 508.783 208.591C508.247 208.812 507.658 208.87 507.089 208.757C506.521 208.643 505.998 208.364 505.589 207.953C505.179 207.543 504.9 207.021 504.788 206.452C504.675 205.883 504.734 205.294 504.956 204.758C505.179 204.223 505.555 203.766 506.038 203.444C506.52 203.123 507.087 202.951 507.667 202.952C508.051 202.952 508.432 203.028 508.788 203.176C509.143 203.323 509.466 203.539 509.737 203.811C510.009 204.083 510.225 204.406 510.371 204.762C510.518 205.117 510.593 205.498 510.593 205.883Z" fill="#D4E5EB"/>
<path d="M464.998 203.741C464.998 204.326 464.824 204.898 464.499 205.384C464.174 205.87 463.713 206.249 463.172 206.473C462.632 206.697 462.037 206.755 461.464 206.641C460.89 206.527 460.363 206.245 459.95 205.832C459.536 205.418 459.255 204.891 459.141 204.318C459.027 203.744 459.085 203.15 459.309 202.61C459.533 202.069 459.912 201.608 460.398 201.283C460.884 200.958 461.456 200.784 462.041 200.784C462.825 200.784 463.577 201.096 464.131 201.65C464.686 202.205 464.998 202.957 464.998 203.741Z" fill="#D4E5EB"/>
<path d="M510.593 242.288C510.594 242.868 510.423 243.436 510.101 243.918C509.779 244.401 509.322 244.777 508.786 244.999C508.25 245.222 507.661 245.28 507.092 245.167C506.523 245.054 506 244.775 505.59 244.365C505.18 243.955 504.901 243.432 504.788 242.863C504.675 242.295 504.733 241.705 504.956 241.169C505.178 240.634 505.554 240.176 506.037 239.854C506.52 239.533 507.087 239.361 507.667 239.362C508.443 239.362 509.187 239.671 509.736 240.219C510.285 240.768 510.593 241.512 510.593 242.288Z" fill="#D4E5EB"/>
<path d="M464.998 240.142C464.998 240.727 464.826 241.299 464.501 241.786C464.177 242.273 463.715 242.652 463.175 242.877C462.635 243.101 462.04 243.16 461.467 243.047C460.893 242.933 460.365 242.652 459.952 242.239C459.538 241.825 459.256 241.298 459.141 240.725C459.027 240.151 459.085 239.556 459.309 239.016C459.532 238.475 459.911 238.013 460.398 237.688C460.884 237.363 461.456 237.189 462.041 237.189C462.824 237.189 463.576 237.5 464.13 238.054C464.684 238.608 464.996 239.358 464.998 240.142Z" fill="#D4E5EB"/>
<path d="M320.405 189.816C320.405 189.816 312.2 172.776 320.405 172.325C328.609 171.874 331.124 178.484 336.38 178.041C341.637 177.599 344.479 178.917 348.917 179.793C353.354 180.669 375.817 179.57 383.465 178.69C391.113 177.809 401.63 179.075 406.887 177.012C412.143 174.949 423.857 171.65 423.156 175.4C422.455 179.149 415.494 184.432 416.927 188.848C418.359 193.263 415.731 198.76 418.6 203.391C421.469 208.021 421.706 230.939 420.51 239.533C419.314 248.128 419.139 249.867 423.173 254.948C427.208 260.029 422.902 258.925 417.168 258.264C411.434 257.602 403.304 259.372 396.873 260.248C390.443 261.124 346.543 254.015 342.666 256.358C338.789 258.702 312.218 262.955 316.778 256.643C321.338 250.331 322.301 249.888 319.432 241.075C316.563 232.262 320.405 189.816 320.405 189.816Z" fill="#F1FCF8"/>
<path d="M396.252 201.016C396.3 201.606 396.17 202.196 395.877 202.711C395.584 203.225 395.143 203.639 394.612 203.899C394.08 204.158 393.482 204.251 392.896 204.165C392.311 204.079 391.765 203.819 391.33 203.418C390.895 203.017 390.591 202.493 390.458 201.917C390.325 201.34 390.37 200.737 390.585 200.186C390.801 199.635 391.178 199.162 391.667 198.828C392.156 198.495 392.734 198.317 393.326 198.318C394.072 198.288 394.798 198.556 395.347 199.062C395.896 199.567 396.221 200.27 396.252 201.016Z" fill="#D4E5EB"/>
<path d="M347.699 201.783C349.332 201.783 350.656 200.563 350.656 199.058C350.656 197.553 349.332 196.334 347.699 196.334C346.066 196.334 344.743 197.553 344.743 199.058C344.743 200.563 346.066 201.783 347.699 201.783Z" fill="#D4E5EB"/>
<path d="M396.252 234.566C396.3 235.155 396.17 235.746 395.877 236.26C395.584 236.775 395.143 237.189 394.612 237.448C394.08 237.708 393.482 237.801 392.896 237.715C392.311 237.629 391.765 237.368 391.33 236.967C390.895 236.566 390.591 236.043 390.458 235.466C390.325 234.89 390.37 234.286 390.585 233.735C390.801 233.184 391.178 232.711 391.667 232.378C392.156 232.045 392.734 231.867 393.326 231.867C394.071 231.839 394.798 232.107 395.346 232.612C395.894 233.118 396.22 233.82 396.252 234.566Z" fill="#D4E5EB"/>
<path d="M350.656 232.608C350.704 233.202 350.572 233.798 350.277 234.317C349.981 234.835 349.536 235.252 349 235.514C348.464 235.776 347.861 235.869 347.27 235.783C346.68 235.696 346.129 235.434 345.69 235.029C345.251 234.625 344.945 234.098 344.811 233.516C344.676 232.935 344.72 232.326 344.937 231.77C345.154 231.214 345.534 230.737 346.027 230.4C346.519 230.063 347.102 229.883 347.699 229.883C348.452 229.853 349.186 230.124 349.74 230.634C350.295 231.145 350.624 231.855 350.656 232.608Z" fill="#D4E5EB"/>
<path d="M245.255 176.644C245.255 176.644 247.564 165.001 254.494 165.934C261.423 166.867 271.822 167.414 272.304 171.26C272.786 175.106 263.618 216.098 275.309 234.504C287.001 252.911 298.525 257.449 292.393 261.987C286.26 266.525 268.45 273.223 263.022 268.444C257.595 263.665 243.271 244.351 243.748 214.442C244.226 184.533 245.255 176.644 245.255 176.644Z" fill="#439AA6"/>
<path d="M260.682 168.26C259.308 171.615 258.565 175.196 258.492 178.821C258.317 185.037 252.359 193.11 252.819 198.971C253.279 204.832 259.145 212.261 258.492 219.909C257.839 227.557 255.925 228.753 259.513 233.773C263.1 238.793 267.555 240.466 268.913 246.2C270.271 251.934 269.552 256.713 274.331 261.019C279.11 265.325 281.533 265.562 279.588 262.692C277.643 259.823 273.118 257.195 273.595 252.653C274.073 248.11 271.156 240.164 268.913 237.689C266.67 235.214 261.186 234.675 260.467 228.376C259.749 222.077 265.588 216.208 263.026 211.017C260.463 205.826 257.138 202.655 256.884 198.047C256.63 193.438 256.753 193.894 258.492 189.115C259.967 185.22 260.718 181.089 260.708 176.924C260.708 173.315 260.682 168.26 260.682 168.26Z" fill="#306E76"/>
<path d="M532.955 125.87C530.327 129.134 513.134 127.001 512.258 130.251C511.381 133.501 513.134 143.541 510.251 143.918C507.369 144.294 505.231 135.893 506.747 129.62C508.263 123.347 520.291 126.116 524.934 124.228C529.578 122.34 528.824 112.913 527.563 112.913H485.169C485.169 112.913 484.915 114.692 484.661 117.578C484.407 120.465 484.039 128.617 485.038 131.753C486.036 134.89 486.672 138.539 484.538 140.663C482.405 142.788 480.526 139.787 477.53 132.949C474.534 126.111 477.53 112.922 477.53 112.922H436.499C436.499 112.922 436.63 110.189 437.506 109.685C438.382 109.181 445.908 107.806 448.895 107.828C451.037 107.828 459.658 106.049 464.45 105.011C466.395 104.573 467.709 104.297 467.709 104.297C467.709 104.297 473.605 93.381 480.631 91.1251C487.657 88.8692 506.716 83.9763 522.643 94.1345C538.571 104.293 535.588 122.607 532.955 125.87Z" fill="#859DC5"/>
<path d="M479.431 106.089L477.512 112.927H458.83C471.87 111.77 464.472 105.016 464.472 105.016L479.431 106.089Z" fill="#596BA3"/>
<path d="M459.578 91.883C459.578 91.883 455.816 83.1222 457.322 83.937C458.829 84.7517 464.971 88.8693 464.971 88.8693C464.971 88.8693 468.611 83.8537 473.499 84.7298C478.388 85.6059 479.772 88.3699 481.152 87.1171C482.532 85.8643 486.294 83.6128 486.294 84.9839C486.294 86.3549 483.911 91.1164 484.288 91.883C484.665 92.6496 485.414 96.2634 486.294 97.3979C487.175 98.5324 485.541 102.291 483.167 104.174C480.793 106.058 472.882 108.686 469.623 107.56C466.364 106.435 454.729 99.9079 456.976 97.0256C459.224 94.1433 460.454 94.0119 459.578 91.883Z" fill="#9BB5DA"/>
<path d="M485.169 112.927L486.536 107.232C486.536 107.232 488.398 110.618 498.363 111.464C508.329 112.309 524.983 112.217 524.891 110.903C524.799 109.589 523.384 107.232 523.384 107.232L527.554 112.927H485.169Z" fill="#596BA3"/>
<path d="M470.849 100.753C470.849 100.753 468.488 99.7676 469.128 99.531C469.767 99.2945 472.781 99.2945 472.781 99.531C472.781 99.7676 471.415 100.709 470.849 100.753Z" fill="#1E3B44"/>
<path d="M466.408 99.1809C464.951 98.8449 463.457 98.6977 461.962 98.7428C461.599 98.7428 461.599 99.3211 461.962 99.3079C463.406 99.2577 464.85 99.3931 466.259 99.7109C466.61 99.7941 466.763 99.251 466.408 99.1677V99.1809Z" fill="#D4E5EB"/>
<path d="M464.927 100.517C463.556 100.587 462.194 100.696 460.832 100.85C460.477 100.889 460.473 101.454 460.832 101.415C462.194 101.261 463.556 101.152 464.927 101.082C465.287 101.082 465.291 100.499 464.927 100.517Z" fill="#D4E5EB"/>
<path d="M465.839 101.419C465.306 101.627 464.825 101.948 464.428 102.361C463.888 102.843 463.375 103.355 462.891 103.894C462.646 104.161 463.044 104.564 463.289 104.293C463.688 103.855 464.1 103.417 464.538 103.027C464.936 102.57 465.432 102.208 465.988 101.967C466.055 101.942 466.11 101.893 466.143 101.83C466.176 101.767 466.184 101.693 466.165 101.624C466.146 101.556 466.102 101.496 466.042 101.458C465.982 101.42 465.909 101.406 465.839 101.419Z" fill="#D4E5EB"/>
<path d="M475.541 99.6406C476.813 99.3838 478.128 99.4243 479.382 99.7589C479.455 99.7786 479.531 99.769 479.596 99.732C479.661 99.695 479.709 99.6338 479.729 99.5618C479.748 99.4897 479.739 99.4128 479.702 99.3479C479.665 99.283 479.603 99.2355 479.531 99.2157C478.179 98.8578 476.763 98.8158 475.392 99.0931C475.033 99.1631 475.186 99.7107 475.541 99.6406Z" fill="#D4E5EB"/>
<path d="M475.537 101.095C477.653 101.914 480.001 101.862 482.064 102.847C482.388 103.001 482.677 102.514 482.349 102.361C480.237 101.349 477.85 101.384 475.686 100.548C475.349 100.416 475.2 100.964 475.537 101.091V101.095Z" fill="#D4E5EB"/>
<path d="M475.09 102.16C476.585 102.895 477.847 104.029 478.739 105.436C478.932 105.743 479.422 105.458 479.225 105.152C478.287 103.66 476.954 102.456 475.375 101.674C475.051 101.512 474.766 101.998 475.09 102.16Z" fill="#D4E5EB"/>
<path d="M474.674 103.381C474.645 103.341 474.608 103.307 474.566 103.282C474.523 103.256 474.476 103.239 474.427 103.232C474.378 103.224 474.328 103.227 474.281 103.239C474.233 103.251 474.187 103.273 474.148 103.303C474.148 103.303 472.961 104.179 472.006 103.666C471.423 103.364 471.27 102.251 471.248 101.45C471.248 101.336 471.248 101.235 471.248 101.143C471.248 101.051 471.248 100.88 471.248 100.788C471.257 100.689 471.225 100.59 471.161 100.514C471.097 100.438 471.006 100.39 470.906 100.381C470.906 100.381 470.871 100.381 470.854 100.381C470.836 100.381 470.819 100.381 470.801 100.381C470.702 100.39 470.61 100.438 470.546 100.514C470.482 100.59 470.451 100.689 470.46 100.788C470.46 100.876 470.46 100.994 470.46 101.13C470.46 101.266 470.46 101.34 470.46 101.463C470.438 102.264 470.28 103.364 469.702 103.653C468.751 104.148 467.573 103.294 467.56 103.289C467.52 103.26 467.475 103.238 467.427 103.226C467.379 103.214 467.329 103.211 467.28 103.219C467.232 103.226 467.185 103.243 467.142 103.269C467.1 103.294 467.063 103.328 467.034 103.368C466.975 103.449 466.95 103.549 466.965 103.647C466.98 103.746 467.033 103.835 467.113 103.894C467.681 104.295 468.351 104.526 469.045 104.56C469.394 104.563 469.738 104.48 470.048 104.319C470.033 104.207 470.043 104.093 470.076 103.986C470.109 103.878 470.164 103.778 470.239 103.694C470.313 103.609 470.405 103.541 470.507 103.495C470.61 103.448 470.721 103.424 470.834 103.424C470.947 103.424 471.058 103.448 471.161 103.495C471.264 103.541 471.355 103.609 471.43 103.694C471.504 103.778 471.56 103.878 471.593 103.986C471.625 104.093 471.635 104.207 471.62 104.319C471.932 104.48 472.278 104.563 472.628 104.56C473.322 104.526 473.992 104.295 474.56 103.894C474.642 103.84 474.699 103.757 474.721 103.661C474.742 103.565 474.725 103.465 474.674 103.381Z" fill="#1E3B44"/>
<path d="M464.06 94.7523C465.429 95.7011 467.076 96.1638 468.739 96.0664C469.461 96.0226 469.466 94.8969 468.739 94.9363C467.278 95.0322 465.828 94.6257 464.63 93.7842C464.03 93.3725 463.465 94.3537 464.06 94.7611V94.7523Z" fill="#1E3B44"/>
<path d="M475.283 96.2548C476.843 96.4301 478.411 96.0005 479.663 95.0545C480.237 94.6165 479.663 93.6397 479.094 94.0777C478.008 94.9089 476.639 95.2788 475.283 95.1071C474.56 95.0239 474.569 96.154 475.283 96.2372V96.2548Z" fill="#1E3B44"/>
<path d="M231.113 40.8277C232.078 35.068 228.191 29.6166 222.431 28.6517C216.672 27.6868 211.22 31.5738 210.255 37.3336C209.29 43.0933 213.178 48.5447 218.937 49.5096C224.697 50.4745 230.148 46.5875 231.113 40.8277Z" fill="#A7C2D5"/>
<path d="M149.537 396.479H125.799C125.239 396.479 124.685 396.368 124.167 396.154C123.65 395.939 123.18 395.625 122.784 395.229C122.388 394.833 122.074 394.362 121.86 393.845C121.646 393.327 121.537 392.772 121.537 392.212C121.537 391.082 121.986 389.998 122.785 389.198C123.585 388.399 124.669 387.95 125.799 387.95H149.537C150.667 387.95 151.752 388.399 152.552 389.198C153.352 389.997 153.802 391.081 153.803 392.212C153.803 393.344 153.354 394.429 152.553 395.229C151.753 396.029 150.668 396.479 149.537 396.479Z" fill="#D4E5EB"/>
<path d="M140.535 387.967H134.801V33.0762C134.809 25.1853 137.948 17.6201 143.529 12.0413C149.109 6.46248 156.675 3.3259 164.566 3.3201H201.34V9.05404H164.566C158.197 9.06099 152.091 11.5941 147.588 16.0976C143.084 20.6011 140.551 26.7072 140.544 33.0762L140.535 387.967Z" fill="#A7C2D5"/>
<path d="M195.079 6.74572C179.336 18.1567 175.906 40.9128 186.043 60.1866C187.887 63.6909 191.926 65.2109 194.457 63.3711L249.081 23.7767C251.617 21.9413 251.42 17.6442 248.669 14.7881C233.526 -0.823596 210.823 -4.66959 195.079 6.74572Z" fill="#D4E5EB"/>
<path d="M675.702 213.583C675.702 213.583 696.772 191.396 700.189 151.684C703.605 111.971 698.875 78.9428 692.567 64.816C686.259 50.6893 680.201 42.2176 680.201 42.2176C680.201 42.2176 674.537 84.9527 672.286 132.979C670.034 181.006 675.702 213.583 675.702 213.583Z" fill="#73A1AF"/>
<path d="M675.58 213.907H675.628C675.674 213.92 675.723 213.922 675.771 213.915C675.819 213.908 675.864 213.891 675.905 213.866C675.946 213.84 675.982 213.807 676.009 213.767C676.037 213.728 676.056 213.683 676.066 213.636C676.171 213.176 686.347 167.352 688.646 135.17C690.946 102.987 686.277 85.3251 686.228 85.1498C686.199 85.0627 686.138 84.99 686.057 84.9467C685.976 84.9033 685.882 84.8926 685.793 84.9167C685.705 84.9408 685.629 84.9979 685.581 85.0763C685.533 85.1547 685.517 85.2484 685.536 85.3382C685.584 85.5134 690.223 103.039 687.932 135.117C685.641 167.195 675.457 213.031 675.356 213.504C675.339 213.587 675.353 213.673 675.394 213.747C675.435 213.821 675.501 213.878 675.58 213.907Z" fill="#507F8D"/>
<path d="M695.489 237.281C697.841 236.541 722.375 195.873 732.415 172.929C742.455 149.984 742.455 147.474 742.455 147.474C742.455 147.474 716.777 188.33 701.332 211.647C685.887 234.964 695.489 237.281 695.489 237.281Z" fill="#507F8D"/>
<path d="M678.505 230.991C678.129 215.935 669.197 196.346 683.162 159.354C697.126 122.361 720.789 110.201 720.789 110.201C720.789 110.201 695.335 146.024 693.193 185.106C691.051 224.188 695.821 234.714 695.821 234.714L678.505 230.991Z" fill="#9DC0C8"/>
<path d="M682.277 260.361C683.272 262.692 682.58 185.119 676.486 156.436C670.393 127.754 654.26 112.913 654.26 112.913C654.26 112.913 660.822 210.123 682.277 260.361Z" fill="#507F8D"/>
<path d="M681.357 276.131C681.357 276.131 661.072 244.627 649.779 237.281L638.482 229.935C638.482 229.935 641.61 252.249 655.465 265.289C669.32 278.33 681.357 276.131 681.357 276.131Z" fill="#73A1AF"/>
<path d="M681.634 276.205C681.634 276.205 674.818 258.548 686.82 238.057C698.822 217.565 714.158 202.978 723.72 198.138C729.162 195.341 734.824 192.997 740.651 191.129C740.651 191.129 729.139 213.829 713.295 238C697.451 262.171 681.634 276.205 681.634 276.205Z" fill="#9DC0C8"/>
<path d="M681.598 276.407H681.563C681.41 276.363 681.318 276.24 681.357 276.135C681.454 275.877 690.902 250.208 700.96 233.755C711.017 217.302 720.724 210.193 720.825 210.123C720.883 210.082 720.953 210.06 721.024 210.06C721.095 210.06 721.165 210.082 721.223 210.123C721.249 210.138 721.27 210.16 721.284 210.186C721.299 210.212 721.306 210.242 721.306 210.271C721.306 210.301 721.299 210.331 721.284 210.357C721.27 210.383 721.249 210.405 721.223 210.42C721.127 210.49 711.49 217.543 701.468 233.943C691.445 250.343 681.988 275.995 681.892 276.267C681.865 276.319 681.822 276.361 681.769 276.386C681.716 276.412 681.656 276.419 681.598 276.407Z" fill="#507F8D"/>
<path d="M674.66 275.478C674.66 275.478 685.716 250.028 676.285 215.129C666.854 180.231 652.552 153.572 642.797 143.492C633.042 133.413 625.24 128.082 625.24 128.082C625.24 128.082 633.694 166.253 646.704 207.871C659.714 249.489 674.66 275.478 674.66 275.478Z" fill="#9DC0C8"/>
<path d="M674.66 275.802H674.704C674.746 275.797 674.786 275.783 674.823 275.762C674.86 275.741 674.892 275.712 674.918 275.678C674.944 275.645 674.962 275.606 674.973 275.565C674.983 275.524 674.986 275.481 674.98 275.439C674.927 275.001 669.359 232.809 661.317 204.678C653.275 176.547 643.795 162.946 643.712 162.814C643.661 162.748 643.587 162.704 643.504 162.691C643.421 162.679 643.337 162.698 643.269 162.746C643.2 162.794 643.153 162.867 643.137 162.949C643.121 163.031 643.137 163.116 643.182 163.187C643.274 163.323 652.675 176.814 660.704 204.853C668.733 232.892 674.283 275.097 674.349 275.522C674.359 275.598 674.396 275.668 674.453 275.719C674.51 275.77 674.583 275.8 674.66 275.802Z" fill="#507F8D"/>
<path d="M679.714 275.448C679.714 275.448 667.524 247.382 677.918 208.901C688.313 170.419 704.091 141.004 714.849 129.909C725.608 118.813 734.206 112.913 734.206 112.913C734.206 112.913 724.885 155.004 710.552 200.893C696.22 246.782 679.714 275.448 679.714 275.448Z" fill="#BDD6DE"/>
<path d="M679.715 275.802H679.667C679.62 275.796 679.575 275.781 679.534 275.757C679.493 275.734 679.457 275.702 679.429 275.665C679.4 275.627 679.38 275.585 679.368 275.539C679.356 275.493 679.353 275.446 679.36 275.399C679.417 274.935 685.558 228.393 694.424 197.371C703.29 166.349 713.733 151.377 713.838 151.21C713.865 151.172 713.9 151.139 713.94 151.114C713.98 151.089 714.024 151.072 714.07 151.064C714.117 151.056 714.165 151.058 714.21 151.069C714.256 151.08 714.299 151.099 714.338 151.127C714.415 151.182 714.468 151.265 714.485 151.359C714.501 151.452 714.48 151.549 714.425 151.627C714.32 151.771 703.956 166.647 695.116 197.568C686.277 228.489 680.131 275.027 680.07 275.491C680.057 275.577 680.015 275.655 679.95 275.712C679.885 275.769 679.801 275.801 679.715 275.802Z" fill="#507F8D"/>
<path d="M648.342 343.944L645.473 393.171C645.45 393.561 645.508 393.952 645.641 394.319C645.775 394.686 645.982 395.022 646.251 395.307C646.519 395.591 646.843 395.817 647.201 395.972C647.56 396.127 647.947 396.207 648.338 396.207H650.865C651.592 396.206 652.291 395.93 652.822 395.434C653.353 394.938 653.676 394.259 653.726 393.535L657.125 343.944H648.342Z" fill="#5996A3"/>
<path d="M698.966 343.944L701.84 393.171C701.863 393.561 701.805 393.952 701.672 394.319C701.538 394.686 701.33 395.022 701.062 395.307C700.794 395.591 700.47 395.817 700.112 395.972C699.753 396.127 699.366 396.207 698.975 396.207H696.448C695.721 396.207 695.021 395.931 694.49 395.435C693.959 394.939 693.636 394.26 693.587 393.535L690.184 343.944H698.966Z" fill="#5996A3"/>
<path d="M700.587 269.149H649.157C647.222 269.149 645.653 270.718 645.653 272.653V278.229C645.653 280.165 647.222 281.734 649.157 281.734H700.587C702.523 281.734 704.092 280.165 704.092 278.229V272.653C704.092 270.718 702.523 269.149 700.587 269.149Z" fill="#D4E5EB"/>
<path d="M674.423 281.738H649.779L653.143 338.42C653.625 346.555 660.248 352.906 668.255 352.906H680.595C688.602 352.906 695.225 346.555 695.707 338.42L699.071 281.738H674.423Z" fill="#85B6C5"/>
<path d="M707.439 284.843H640.515C639.789 284.843 639.201 285.432 639.201 286.158V288.308C639.201 289.034 639.789 289.622 640.515 289.622H707.439C708.164 289.622 708.753 289.034 708.753 288.308V286.158C708.753 285.432 708.164 284.843 707.439 284.843Z" fill="#5996A3"/>
<path d="M707.439 339.16H640.515C639.789 339.16 639.201 339.749 639.201 340.474V342.625C639.201 343.351 639.789 343.939 640.515 343.939H707.439C708.164 343.939 708.753 343.351 708.753 342.625V340.474C708.753 339.749 708.164 339.16 707.439 339.16Z" fill="#5996A3"/>
<path d="M642.784 289.627L644.041 339.16H649.775L647.624 289.627H642.784Z" fill="#5996A3"/>
<path d="M706.063 289.627L704.81 339.16H699.072L701.223 289.627H706.063Z" fill="#5996A3"/>
<path opacity="0.42" d="M657.138 293.631C657.138 293.631 692.037 292.676 692.514 296.259C692.992 299.842 688.69 331.631 686.54 333.054C684.389 334.478 659.53 334.487 658.575 333.054C657.62 331.622 653.065 292.676 657.138 293.631Z" fill="#D4E5EB"/>
<path d="M527.252 386.513C527.105 386.513 526.959 386.526 526.814 386.553C526.833 386.425 526.843 386.296 526.845 386.167C526.845 384.726 525.574 383.539 523.98 383.495C523.98 382.689 522.955 382.037 521.693 382.037C521.389 382.037 521.085 382.076 520.791 382.155C520.824 382.082 520.842 382.003 520.844 381.923C520.844 381.441 520.261 381.047 519.529 381.047C519.468 381.047 519.411 381.047 519.35 381.047C519.378 380.932 519.392 380.814 519.394 380.696C519.394 379.548 518.106 378.615 516.511 378.615C515.324 378.615 514.321 379.132 513.883 379.877C513.607 379.573 513.268 379.332 512.89 379.17C512.512 379.009 512.104 378.93 511.693 378.94C511.251 378.929 510.813 379.022 510.414 379.212C510.014 379.401 509.665 379.682 509.393 380.03C509.319 379.403 509.008 378.827 508.525 378.42C508.042 378.013 507.422 377.805 506.791 377.839C506.16 377.872 505.565 378.145 505.128 378.6C504.69 379.056 504.442 379.661 504.435 380.293C504.435 380.341 504.435 380.385 504.435 380.433C504.197 380.336 503.94 380.298 503.685 380.323C503.429 380.348 503.184 380.436 502.971 380.578C502.757 380.721 502.582 380.914 502.461 381.14C502.34 381.366 502.276 381.618 502.275 381.874C501.632 381.795 500.98 381.851 500.359 382.037C499.738 382.223 499.163 382.536 498.67 382.956C498.223 382.839 497.762 382.78 497.299 382.781C495.148 382.781 493.4 383.986 493.4 385.471C493.4 386.956 495.153 388.152 497.268 388.16C497.605 389.105 498.235 389.918 499.065 390.481C499.895 391.044 500.883 391.328 501.886 391.292C502.888 391.256 503.853 390.902 504.641 390.28C505.428 389.659 505.997 388.803 506.266 387.836C506.829 387.801 507.37 387.603 507.822 387.267C508.275 386.93 508.62 386.469 508.815 385.939C508.815 385.97 508.815 386.001 508.815 386.031C508.815 386.425 508.923 386.812 509.129 387.147C509.336 387.483 509.631 387.755 509.982 387.933C510.333 388.111 510.727 388.188 511.12 388.155C511.512 388.123 511.888 387.982 512.205 387.749C512.718 388.073 513.326 388.214 513.929 388.148C514.533 388.082 515.096 387.813 515.526 387.385C515.621 387.382 515.716 387.371 515.811 387.354C516.179 387.783 516.638 388.123 517.155 388.35C517.672 388.578 518.233 388.687 518.798 388.668C519.755 388.689 520.688 388.366 521.426 387.757C521.724 388.105 522.096 388.384 522.514 388.572C522.932 388.761 523.386 388.855 523.844 388.848C524.261 388.849 524.674 388.77 525.062 388.616C525.148 389.126 525.419 389.586 525.823 389.909C526.227 390.232 526.736 390.396 527.252 390.368C528.461 390.368 529.442 389.492 529.442 388.441C529.442 387.389 528.461 386.513 527.252 386.513Z" fill="#7B969A"/>
<path d="M484.92 396.115L489.611 388.099C490.148 387.18 490.915 386.419 491.837 385.889C492.76 385.36 493.804 385.081 494.868 385.081H527.927C529.016 385.08 530.085 385.372 531.024 385.925C531.962 386.478 532.735 387.272 533.262 388.226L537.642 396.11L484.92 396.115Z" fill="#A7C2D5"/>
<path opacity="0.57" d="M256.521 307.486C256.521 307.486 257.24 324.364 280.272 324.364C303.304 324.364 521.908 323.926 529 321.924C536.091 319.922 539.074 307.468 539.074 307.468H549.443L559.417 327.903H238.005L249.933 307.468L256.521 307.486Z" fill="#85B6C5"/>
<g opacity="0.5">
<path opacity="0.5" d="M415.56 284.752C483.785 284.752 539.092 282.189 539.092 279.027C539.092 275.865 483.785 273.302 415.56 273.302C347.336 273.302 292.029 275.865 292.029 279.027C292.029 282.189 347.336 284.752 415.56 284.752Z" fill="#3E8B96"/>
</g>
<path d="M397.233 90.7265C397.233 90.7265 379.251 100.057 377.193 103.71C375.134 107.363 370.464 113.632 371.805 115.042C373.145 116.453 374.556 117.298 375.747 114.512C376.939 111.726 378.463 106.417 381.617 104.59C384.771 102.764 394.986 98.6113 397.75 95.5055C400.514 92.3998 398.797 89.8986 397.233 90.7265Z" fill="#1E2D44"/>
<path d="M383.294 227.592C383.294 227.592 409.638 215.143 416.09 212.015C422.543 208.888 428.794 206.492 432.21 208.213C435.627 209.935 441.935 210.785 443.122 211.849C444.309 212.913 452.838 222.397 468.611 236.769C484.385 251.141 501.066 260.988 509.301 264.891C517.536 268.794 518.162 266.959 523.318 267.322C528.474 267.686 535.942 270.489 539.201 269.276C542.46 268.063 544.248 268.317 544.458 268.895C544.668 269.473 539.364 273.398 536.906 274.532C534.449 275.667 519.49 273.472 516.467 275.693C513.445 277.914 498.543 283.105 495.095 279.754C491.648 276.403 493.536 270.901 489.712 269.215C485.888 267.528 467.902 264.628 456.114 256.266C444.326 247.904 435.828 240.129 432.596 240.23C429.363 240.33 389.401 266.718 383.601 265.526C377.801 264.335 364.354 234.071 383.294 227.592Z" fill="#E4867D"/>
<path d="M334.593 243.764C334.593 243.764 380.228 220.031 385.112 225.932C389.996 231.832 393.584 270.323 392.055 272.71C390.526 275.097 337.699 284.778 333.091 271.444C328.482 258.11 334.593 243.764 334.593 243.764Z" fill="#1E3B44"/>
<path d="M404.845 246.813C404.563 247.916 404.159 248.985 403.641 249.998C400.574 256.266 393.386 276.456 390.333 281.235C390.184 281.471 390.019 281.697 389.838 281.909C387.153 284.954 388.406 280.832 369.224 278.142C350.042 275.453 333.966 274.804 333.966 274.804C333.966 274.804 333.554 260.936 337.676 248.206C341.798 235.477 353.63 238.346 355.382 238.132C357.134 237.917 395.756 241.75 399.878 241.929C403.229 242.078 405.752 242.937 404.845 246.813Z" fill="#35525E"/>
<path d="M306.428 175.557C306.428 175.557 317.659 167.721 322.197 164.133C326.735 160.546 334.388 154.755 339.408 149.165C344.428 143.576 354.463 137.128 359.483 132.108C364.503 127.088 381.473 113.224 382.428 109.878C383.371 106.37 384.569 102.935 386.011 99.6012C387.448 96.4955 388.162 94.8222 388.162 94.8222C388.162 94.8222 398.92 106.535 398.674 109.4C398.429 112.265 346.11 170.59 338.663 177.997C331.216 185.404 311.176 190.402 309.503 189.338C307.829 188.274 306.428 175.557 306.428 175.557Z" fill="#E4867D"/>
<path d="M283.986 185.93C283.986 185.93 308.578 168.676 310.269 171.304C311.96 173.932 321.741 196.163 319.113 199.987C316.484 203.811 305.008 208.831 302.857 207.394C300.706 205.957 283.986 185.93 283.986 185.93Z" fill="#4181B0"/>
<path d="M263.131 172.303C263.131 172.303 255.518 171.904 249.062 167.362C242.605 162.819 235.32 157.563 231.733 145.972C228.145 134.382 229.223 127.807 236.271 119.322C243.319 110.837 262.803 110.123 265.431 107.25C268.059 104.376 268.66 100.916 269.255 101.875C269.851 102.834 269.255 107.968 269.255 107.968C269.255 107.968 273.636 103.548 272.519 100.438C271.402 97.3281 272.484 98.0509 273.557 98.6466C274.63 99.2424 282.966 104.144 283.881 114.661C284.797 125.179 279.413 126.134 279.413 126.134C279.413 126.134 277.674 170.971 263.131 172.303Z" fill="#1E2D44"/>
<path d="M288.735 186.263C289.953 188.523 291.249 190.105 291.249 190.306C291.249 190.442 290.303 190.906 288.586 191.406C284.081 192.612 279.413 193.088 274.757 192.816C266.61 192.426 263.368 191.226 264.376 189.018C264.676 188.435 265.081 187.912 265.571 187.476L265.611 187.437C266.272 186.811 266.57 185.86 266.618 184.73C266.798 180.862 264.082 174.87 263.114 172.303C262.958 171.946 262.849 171.57 262.79 171.186C262.79 169.872 264.818 169.272 265.418 167.962C266.018 166.652 264.941 162.705 264.463 160.909C263.986 159.113 262.667 159.714 258.23 160.191C253.793 160.668 250.836 153.498 253.074 149.555C255.313 145.613 263.386 149.555 263.386 149.555C263.386 149.555 265.418 151.229 266.496 150.751C267.573 150.274 263.149 137.487 263.149 137.487C263.149 137.487 262.908 134.377 264.581 132.945C266.255 131.513 269.838 131.035 272.181 130.553C274.525 130.071 279.4 126.133 279.4 126.133C279.4 126.133 285.612 135.573 285.257 137.724C284.968 139.445 285.748 142.152 287.364 144.518C287.755 145.096 288.195 145.639 288.678 146.143L288.739 146.209C291.249 148.837 291.609 152.902 291.968 155.771C292.327 158.64 291.201 164.532 289.576 168.08C288.043 171.4 285.752 171.186 285.511 171.663C285.27 172.141 286.229 175.01 286.707 180.148C286.787 180.963 286.945 181.768 287.18 182.553C287.276 182.881 287.386 183.21 287.5 183.525C287.845 184.467 288.258 185.382 288.735 186.263Z" fill="#F8A28F"/>
<path d="M287.179 182.553C287.179 182.553 283.719 182.421 278.458 178.475C273.284 174.594 269.259 168.741 269.141 168.557C269.255 168.61 271.029 169.434 274.038 170.59C277.148 171.781 285.51 171.663 285.51 171.663C285.274 172.141 286.229 175.01 286.706 180.148C286.786 180.963 286.944 181.768 287.179 182.553Z" fill="#CF6257"/>
<path d="M280.618 139.603C281.2 141.018 281.025 142.437 280.228 142.77C279.431 143.103 278.3 142.218 277.718 140.799C277.135 139.38 277.306 137.96 278.108 137.632C278.909 137.303 280.031 138.184 280.618 139.603Z" fill="#1E2D44"/>
<path d="M287.179 149.165C287.115 149.166 287.051 149.15 286.995 149.117C286.914 149.067 286.856 148.987 286.833 148.895C286.81 148.802 286.824 148.704 286.873 148.622C287.578 147.444 288.099 146.134 287.959 145.876C287.551 145.503 287.112 145.168 286.645 144.873C286.013 144.46 285.408 144.007 284.836 143.515C283.758 142.533 283.894 138.898 283.912 138.486C283.914 138.439 283.925 138.392 283.946 138.35C283.966 138.307 283.994 138.269 284.029 138.237C284.064 138.205 284.105 138.181 284.15 138.165C284.194 138.149 284.241 138.142 284.288 138.144C284.383 138.149 284.472 138.19 284.536 138.26C284.6 138.33 284.634 138.422 284.63 138.517C284.564 139.945 284.691 142.415 285.318 142.985C285.866 143.458 286.444 143.897 287.048 144.299C287.573 144.625 288.065 145.002 288.515 145.424C289.107 146.086 288.134 147.956 287.499 149.012C287.464 149.063 287.416 149.105 287.36 149.131C287.304 149.158 287.241 149.17 287.179 149.165Z" fill="#CF6257"/>
<path d="M286.133 156.871C284.341 156.871 282.983 155.473 282.922 155.412C282.889 155.379 282.862 155.339 282.844 155.296C282.826 155.252 282.817 155.205 282.817 155.158C282.817 155.111 282.826 155.064 282.844 155.021C282.862 154.977 282.889 154.937 282.922 154.904C282.955 154.871 282.994 154.844 283.038 154.826C283.081 154.808 283.127 154.799 283.174 154.799C283.221 154.799 283.267 154.808 283.31 154.826C283.354 154.844 283.393 154.871 283.426 154.904C283.426 154.904 284.74 156.218 286.26 156.135C287.289 156.036 288.256 155.6 289.011 154.895C289.081 154.823 289.177 154.782 289.278 154.781C289.378 154.78 289.475 154.818 289.548 154.889C289.62 154.959 289.661 155.055 289.662 155.156C289.663 155.256 289.624 155.353 289.554 155.425C288.673 156.257 287.537 156.768 286.33 156.875L286.133 156.871Z" fill="#CF6257"/>
<path d="M273.596 137.43C273.565 136.024 274.936 135.306 276.018 134.745C276.631 134.421 276.088 133.492 275.475 133.816C274.029 134.57 272.479 135.604 272.522 137.43C272.535 137.564 272.596 137.689 272.696 137.78C272.795 137.87 272.924 137.921 273.059 137.921C273.193 137.921 273.323 137.87 273.422 137.78C273.522 137.689 273.583 137.564 273.596 137.43Z" fill="#1E2D44"/>
<path d="M455.33 274.835C454.853 279.027 448.16 288.51 446.486 291.594C444.813 294.678 415.653 366.35 413.024 371.641C410.396 376.933 410.396 379.136 410.874 381.34C411.351 383.543 416.371 388.401 420.195 393.692C424.019 398.984 434.896 402.182 437.047 401.52C439.197 400.859 441.826 402.072 440.989 403.614C440.152 405.156 434.537 405.366 432.386 405.708C430.235 406.049 417.685 403.614 413.988 400.088C410.291 396.561 399.533 395.786 395.945 393.14C392.358 390.495 387.224 391.156 390.207 385.865C393.19 380.573 397.259 372.964 400.129 368.781C402.998 364.598 405.148 324.903 412.078 312.773C419.008 300.644 422.464 287.406 422.464 287.406C422.464 287.406 403.834 284.691 390.334 278.575C393.4 274.164 400.597 255.539 403.642 249.757C404.158 248.828 404.562 247.841 404.846 246.818C410.401 248.635 418.469 251.399 423.542 253.669C431.904 257.423 435.492 259.845 440.989 260.506C446.486 261.168 455.808 270.647 455.33 274.835Z" fill="#F8A28F"/>
<path d="M412.051 122.818C412.051 122.818 405.954 152.574 419.756 157.234C433.559 161.895 434.816 147.554 437.506 151.321C440.195 155.088 429.437 163.687 423.156 163.687C416.874 163.687 409.576 157.414 407.316 148.631C405.056 139.849 407.557 123.356 408.455 120.667C409.353 117.977 412.555 119.817 412.051 122.818Z" fill="#1E2D44"/>
<path d="M397.259 120.128C397.259 120.128 389.988 127.136 390.802 131.6C391.617 136.064 388.174 145.762 383.268 148.092C378.362 150.422 374.047 151.158 376.916 152.753C379.786 154.347 382.471 153.826 388.03 151.496C393.588 149.165 403.799 144.829 406.865 130.881C409.932 116.934 397.259 120.128 397.259 120.128Z" fill="#1E2D44"/>
<path d="M411.513 131.78C405.775 143.966 403.628 147.913 397.18 154.724C390.732 161.536 383.908 171.037 381.411 168.886C378.914 166.735 383.023 163.866 388.222 157.935C393.422 152.004 393.777 141.802 393.242 133.917C392.708 126.032 393.601 128.538 395.573 124.775C397.544 121.013 397.907 106.816 395.573 103.399C393.238 99.9822 387.504 97.1656 386.974 97.2051C386.444 97.2445 380.294 89.2984 380.294 89.2984C380.294 89.2984 375.848 89.1145 375.848 84.2741C375.871 83.3707 376.115 82.4866 376.557 81.6984C376.605 81.6371 376.995 81.1071 377.517 80.2354C378.303 78.9794 379.023 77.6824 379.672 76.35C381.187 73.253 387.491 73.2005 387.754 73.2005C388.024 72.9906 388.217 72.696 388.301 72.3638C388.66 70.8394 390.185 64.6543 390.005 63.6687C389.826 62.6831 393.141 66.5379 393.68 69.8538C394.219 73.1698 394.556 71.733 396.19 74.335C397.824 76.9369 395.752 80.5201 397.263 82.4913C398.775 84.4625 414.207 87.152 417.413 97.9059C420.62 108.66 417.247 119.589 411.513 131.78Z" fill="#35435E"/>
<path d="M407.168 97.8098C407.168 97.8098 405.14 101.634 404.465 102.711C403.791 103.789 400.356 106.772 399.761 107.013C399.165 107.254 402.271 103.425 403.585 101.038C404.498 99.311 404.712 97.2983 404.18 95.4181C403.944 94.7041 403.225 96.3774 402.231 98.4055C401.237 100.434 397.969 103.662 397.969 103.662C398.851 102.607 399.656 101.49 400.378 100.32C401.097 99.0056 401.692 95.659 402.17 93.9857C402.647 92.3124 400.856 93.7448 399.782 96.2547C399.244 97.5163 397.916 99.1983 396.445 100.894C396.922 99.8466 398.635 95.9656 397.803 95.6677C396.861 95.3217 392.712 105.055 392.712 105.055L392.253 105.581C389.786 108.504 388.199 112.068 387.675 115.857C387.198 119.681 371.183 131.99 360.311 141.907C349.439 151.824 347.169 156.008 344.773 158.399C342.377 160.791 337.379 164.133 331.523 167.384C327.869 169.415 324.357 171.691 321.01 174.195L323.52 197.499C323.52 197.499 346.823 180.647 351.305 178.497C355.786 176.346 366.005 162.902 373.89 152.149C381.775 141.395 391.412 123.645 393.19 121.854C394.968 120.062 399.047 118.985 401.438 116.597C403.83 114.21 406.813 112.059 407.054 110.027C407.295 107.994 404.662 109.667 402.989 110.741C401.316 111.814 406.099 104.766 407.172 102.856C408.245 100.946 407.168 97.8098 407.168 97.8098Z" fill="#F8A28F"/>
<path d="M344.909 244.684C334.997 251.365 337.309 264.944 335.772 271.471C335.715 271.716 335.654 271.944 335.588 272.167C335.329 273.187 334.765 274.104 333.972 274.795C330.905 277.253 324.068 274.861 308.819 272.167C295.678 269.626 271.893 248.745 262.93 224.066C255.847 204.556 261.638 193.004 264.38 189.023C264.68 188.439 265.086 187.916 265.576 187.481L265.615 187.441C265.832 186.727 265.978 185.994 266.054 185.251C266.273 185.058 266.461 184.883 266.623 184.743C267.013 184.406 267.232 184.226 267.232 184.226C270.263 183.464 278.542 185.102 283.996 185.948C285.424 186.167 286.659 186.324 287.548 186.386C287.948 186.398 288.348 186.364 288.74 186.285C292.87 185.549 301.653 181.068 306.848 178.838C308.539 178.107 309.844 177.612 310.497 177.559C311.323 177.403 312.113 177.095 312.827 176.652C316.187 174.835 321.08 171.046 322.959 172.793C323.031 172.865 323.098 172.941 323.161 173.021C324.23 174.445 325.653 179.649 326.639 185.168C327.211 188.242 327.586 191.35 327.76 194.472C327.888 196.084 327.787 197.706 327.462 199.29C326.03 204.547 321.728 206.702 319.578 207.898C319.14 208.143 318.772 208.336 318.522 208.472L318.334 208.603V208.625C317.76 209.116 318.693 209.545 322.477 211.954C325.368 213.794 332.443 218.879 339.224 224.083C342.645 226.712 345.996 229.34 348.685 231.644C350.372 233.068 351.804 234.347 352.834 235.38C353.762 236.241 354.627 237.168 355.422 238.153C356.859 240.26 352.912 239.279 344.909 244.684Z" fill="#5F8AA2"/>
<path d="M339.184 224.066C338.746 224.066 303.264 222.572 300.93 222.393C298.739 222.226 316.121 210.128 318.294 208.608C317.72 209.098 318.653 209.528 322.437 211.937C325.329 213.777 332.403 218.862 339.184 224.066Z" fill="#2C647C"/>
<path d="M394.364 92.4481C394.364 92.4481 381.989 108.489 381.66 112.668C381.332 116.847 379.742 124.495 381.551 125.218C383.36 125.941 384.994 126.094 384.919 123.067C384.845 120.04 383.964 114.582 386.054 111.595C388.143 108.607 395.634 100.534 396.847 96.5613C398.061 92.5883 395.432 91.042 394.364 92.4481Z" fill="#35435E"/>
<path d="M377.512 80.2136C376.973 81.0897 376.601 81.6153 376.553 81.6766C376.83 81.1622 377.151 80.6727 377.512 80.2136Z" fill="white"/>
<path d="M377.512 80.2136C377.151 80.6727 376.83 81.1622 376.553 81.6766C376.601 81.6153 376.991 81.0853 377.512 80.2136Z" fill="black"/>
<path d="M378.103 82.4039C379.65 81.5979 381.297 81.4971 383.01 81.4971C383.08 81.4971 383.148 81.469 383.198 81.4189C383.249 81.3688 383.277 81.3008 383.277 81.2299C383.277 81.1591 383.249 81.0911 383.198 81.041C383.148 80.9909 383.08 80.9627 383.01 80.9627C381.196 80.9627 379.466 81.0854 377.832 81.9396C377.525 82.0973 377.797 82.5616 378.103 82.4039Z" fill="#D4E5EB"/>
<path d="M377.867 83.6654L381.328 84.3488C381.665 84.4189 381.81 83.9107 381.468 83.8319L378.012 83.1486C377.675 83.0785 377.53 83.5866 377.867 83.6654Z" fill="#D4E5EB"/>
<path d="M378.296 85.1943C379.297 85.6362 380.24 86.1997 381.104 86.872C381.376 87.0822 381.757 86.7055 381.485 86.4909C380.593 85.7932 379.621 85.205 378.59 84.7387C378.279 84.5941 378.003 85.0585 378.318 85.203L378.296 85.1943Z" fill="#D4E5EB"/>
<path d="M381.472 77.7957C381.205 78.2337 380.745 78.479 380.438 78.3038C380.132 78.1286 380.101 77.6161 380.364 77.1561C380.627 76.6962 381.091 76.4728 381.397 76.648C381.704 76.8232 381.735 77.3358 381.472 77.7957Z" fill="#1E2D44"/>
<path d="M377.03 80.9802C377.03 80.9802 374.227 81.9483 374.884 84.6991C375.541 87.45 376.776 89.2548 380.281 89.3117C383.785 89.3687 380 88.2298 378.156 86.3199C376.312 84.41 377.03 80.9802 377.03 80.9802Z" fill="#35435E"/>
<path d="M380.281 89.3118C380.281 89.3118 384.49 90.1003 385.743 90.1485C386.996 90.1966 391.841 84.6992 391.841 84.6992C391.841 84.6992 389.51 89.6973 387.762 90.9983C386.015 92.2992 382.756 92.4482 382.756 92.4482L380.281 89.3118Z" fill="#1E2D44"/>
<path d="M317.527 378.519C317.527 378.519 317.996 386.356 318.285 388.06C318.574 389.764 319.161 392.002 320.743 393.456C322.324 394.911 323.507 396.26 324.65 396.461C325.793 396.663 330.782 396.461 331.089 396.023C331.396 395.585 331.821 395.397 331.632 394.525C331.444 393.653 330.257 393.496 329.241 393.119C328.224 392.742 326.612 392.856 325.714 391.774C324.816 390.692 323.818 388.493 323.931 387.517C324.045 386.54 325.999 377.205 325.999 377.205C325.999 377.205 318.977 370.17 317.527 378.519Z" fill="#CFCFCF"/>
<path d="M276.461 353.283C276.461 353.283 270.613 354.913 268.226 358.978C265.839 363.043 257.805 375.72 256.771 376.789C255.738 377.857 245.058 384.349 244.068 387.783C243.078 391.218 243.034 394.113 244.988 395.572C246.942 397.03 247.463 396.846 248.3 394.555C249.136 392.264 248.817 388.594 249.942 388.156C251.068 387.718 260.206 383.166 266.496 381.66C272.786 380.153 281.525 373.337 282.725 371.659C283.925 369.981 276.461 353.283 276.461 353.283Z" fill="#CFCFCF"/>
<path d="M363.075 356.617C363.838 355.904 364.79 355.425 365.817 355.237C365.944 355.237 365.887 355.027 365.765 355.048C364.703 355.244 363.721 355.741 362.935 356.481C362.843 356.568 362.983 356.704 363.075 356.617Z" fill="#597E7A"/>
<path d="M363.977 356.739C364.814 356.564 365.681 356.594 366.504 356.827C366.622 356.871 366.671 356.678 366.552 356.634C365.712 356.398 364.827 356.366 363.972 356.542C363.85 356.542 363.85 356.752 363.972 356.739H363.977Z" fill="#597E7A"/>
<path d="M363.986 357.164C364.641 357.425 365.232 357.823 365.719 358.331C366.207 358.84 366.579 359.447 366.811 360.112C366.851 360.231 367.044 360.178 367 360.055C366.761 359.365 366.377 358.735 365.874 358.206C365.371 357.677 364.76 357.262 364.082 356.989C363.964 356.941 363.868 357.112 363.986 357.16V357.164Z" fill="#597E7A"/>
<path d="M361.515 361.812C360.35 362.947 357.056 362.412 355.821 362.167L355.654 362.145C355.581 362.141 355.508 362.141 355.435 362.145C355.244 362.149 355.057 362.206 354.897 362.311C353.539 362.666 350.302 363.529 347.844 364.362C346.874 364.653 345.937 365.047 345.049 365.535C344.395 365.817 343.8 366.222 343.297 366.727C341.808 368.199 335.509 373.105 335.509 373.105C335.509 373.105 344.243 380.455 344.708 381.038C345.172 381.62 346.46 384.757 346.898 386.592C347.336 388.427 346.092 389.698 344.931 391.029C343.77 392.361 341.681 393.32 340.489 392.681C339.298 392.041 340.205 391.305 340.77 389.72C341.335 388.134 341.431 386.093 340.288 384.533C339.145 382.974 331.878 381.055 327.861 380.53C325.579 380.204 323.487 379.077 321.96 377.349C321.79 377.157 321.702 377.034 321.689 377.016C321.689 377.016 320.007 378.624 311.342 379.491C302.678 380.359 294.346 377.665 294.018 377.831C293.689 377.998 291.258 381.774 289.905 383.394C288.551 385.015 288.1 385.79 288.113 386.513C288.126 387.236 289.764 391.025 291.236 392.58C292.708 394.135 295.091 394.95 296.282 395.322C297.474 395.694 299.314 395.8 299.349 397.442C299.384 399.085 294.828 398.371 293.317 398.397C291.806 398.423 281.928 393.141 280.382 391.573C278.835 390.004 279.944 384.086 279.221 380.941C278.498 377.796 275.62 378.107 272.212 370.533C268.804 362.96 273.526 357.427 273.526 357.427C274.302 356.288 273.158 351.185 269.19 345.6C265.221 340.015 263.005 329.529 263.903 324.053C264.801 318.578 268.309 312.279 274.941 311.643C281.573 311.008 282.23 315.148 281.862 316.659C281.494 318.17 276.102 314.32 272.348 317.999C268.594 321.679 268.121 328.652 270.85 334.592C273.579 340.532 281.271 348.61 282.331 349.135C283.391 349.661 287.955 347.199 294.806 348.005C301.657 348.811 305.49 349.674 308.386 349.363C311.281 349.052 327.848 349.17 329.162 349.148C330.476 349.126 335.404 348.982 337.121 349.411C338.838 349.84 345.12 347.966 345.444 347.961C345.768 347.957 346.162 347.488 346.604 346.647C347.047 345.806 348.795 342.994 349.57 342.915C350.345 342.836 351.83 344.523 352.238 345.307C352.645 346.091 352.641 345.745 352.903 345.622C353.166 345.5 355.97 341.167 356.377 340.896C356.785 340.624 356.841 345.232 357.512 346.152C358.182 347.072 357.512 346.152 358.576 346.857C359.641 347.563 360.793 349.582 361.752 351.934C362.711 354.287 364.122 355.973 364.336 357.02C364.551 358.067 362.681 360.673 361.515 361.812Z" fill="#F2F2F2"/>
<path d="M364.134 357.055C364.134 357.055 362.654 356.928 362.571 357.081C362.487 357.234 363.447 359.162 363.631 358.973C363.815 358.785 364.599 357.388 364.134 357.055Z" fill="#597E7A"/>
<path d="M360.175 358.68C359.181 359.074 358.186 359.521 357.691 360.533C357.158 361.703 356.949 362.995 357.087 364.274C357.087 364.396 357.293 364.396 357.284 364.274C357.165 363.135 357.315 361.984 357.722 360.914C358.186 359.775 359.128 359.302 360.214 358.873C360.328 358.825 360.276 358.636 360.157 358.684L360.175 358.68Z" fill="#597E7A"/>
<path d="M360.701 359.245C359.693 360.098 359.014 361.275 358.778 362.574C358.752 362.697 358.944 362.749 358.966 362.622C359.199 361.358 359.861 360.213 360.841 359.381C360.937 359.302 360.793 359.162 360.701 359.245Z" fill="#597E7A"/>
<path d="M361.275 360.279C360.495 360.813 360.201 361.693 359.961 362.565C359.566 363.94 359.273 365.343 359.084 366.762C359.084 366.884 359.26 366.937 359.273 366.81C359.431 365.642 359.657 364.485 359.952 363.345C360.219 362.32 360.464 361.08 361.393 360.445C361.494 360.375 361.393 360.204 361.288 360.279H361.275Z" fill="#597E7A"/>
<path d="M358.546 353.327C358.546 353.827 358.296 354.234 357.972 354.243C357.648 354.252 357.376 353.844 357.367 353.367C357.359 352.889 357.617 352.46 357.941 352.456C358.265 352.451 358.537 352.828 358.546 353.327Z" fill="#597E7A"/>
<path d="M355.405 362.132C355.213 362.135 355.026 362.193 354.866 362.298C353.508 362.653 350.271 363.516 347.813 364.348C343.819 360.962 343.871 357.208 343.871 357.208C343.871 357.208 345.698 360.296 348.142 361.151C350.288 361.873 354.384 362.088 355.405 362.132Z" fill="#CFCFCF"/>
<path d="M335.465 373.091C335.465 373.091 328.325 366.836 329.127 367.397C329.928 367.958 339.237 370.122 339.237 370.122L335.465 373.091Z" fill="#CFCFCF"/>
<path d="M321.653 376.999C321.653 376.999 319.971 378.606 311.307 379.474C302.642 380.341 294.311 377.647 293.982 377.813L296.308 371.304C296.308 371.304 299.195 378.751 308.977 377.875C318.758 376.999 320.909 371.563 321.045 371.825C321.18 372.088 320.085 375.452 321.653 376.999Z" fill="#CFCFCF"/>
<path d="M321.93 377.337C321.759 377.144 321.671 377.021 321.658 377.004C321.76 377.105 321.851 377.217 321.93 377.337Z" fill="white"/>
<path d="M321.658 377.004C321.658 377.004 321.759 377.144 321.93 377.337C321.851 377.217 321.76 377.105 321.658 377.004Z" fill="black"/>
<path d="M236.792 174.76H211.451C204.194 174.76 198.31 180.644 198.31 187.902V314.775C198.31 322.033 204.194 327.917 211.451 327.917H236.792C244.05 327.917 249.933 322.033 249.933 314.775V187.902C249.933 180.644 244.05 174.76 236.792 174.76Z" fill="#D4E5EB"/>
<path d="M587.937 174.76H562.597C555.339 174.76 549.456 180.644 549.456 187.902V314.775C549.456 322.033 555.339 327.917 562.597 327.917H587.937C595.195 327.917 601.079 322.033 601.079 314.775V187.902C601.079 180.644 595.195 174.76 587.937 174.76Z" fill="#D4E5EB"/>
<path opacity="0.57" d="M228.049 197.38C228.049 197.38 224.825 272.723 224.106 268.921C223.388 265.119 225.42 209.037 221.653 206.719C217.886 204.402 215.28 197.389 215.28 197.389L228.049 197.38Z" fill="#85B6C5"/>
<path d="M226.182 201.891C228.673 199.4 228.673 195.362 226.182 192.871C223.692 190.381 219.653 190.381 217.163 192.871C214.672 195.362 214.672 199.4 217.163 201.891C219.653 204.382 223.692 204.382 226.182 201.891Z" fill="#85B6C5"/>
<path opacity="0.57" d="M568.896 197.38C568.896 197.38 572.12 272.723 572.838 268.921C573.557 265.119 571.524 209.037 575.287 206.719C579.05 204.402 581.665 197.389 581.665 197.389L568.896 197.38Z" fill="#85B6C5"/>
<path d="M577.131 203.431C580.502 202.41 582.407 198.85 581.386 195.479C580.365 192.107 576.805 190.202 573.434 191.223C570.062 192.244 568.157 195.805 569.178 199.176C570.199 202.547 573.76 204.452 577.131 203.431Z" fill="#85B6C5"/>
<path d="M235.373 327.916H252.794L249.307 343.848H233.529L235.373 327.916Z" fill="#5996A3"/>
<path d="M564.959 343.848H549.176L545.689 327.916H563.115L564.959 343.848Z" fill="#5996A3"/>
</svg>
