<svg width="790" height="702" viewBox="0 0 790 702" fill="none" xmlns="http://www.w3.org/2000/svg">
<g clip-path="url(#clip0_11848_3888)">
<path d="M12.615 702L275.427 -16H305.388L42.5756 702H12.615Z" fill="url(#paint0_linear_11848_3888)"/>
<path d="M202.891 702L465.704 -16H703.812L440.999 702H202.891Z" fill="url(#paint1_linear_11848_3888)"/>
<path d="M371.091 702L633.904 -16H887.781L624.968 702H371.091Z" fill="url(#paint2_linear_11848_3888)"/>
<path d="M813.667 702L550.855 -16H459.396L722.209 702H813.667Z" fill="url(#paint3_linear_11848_3888)"/>
<path d="M651.775 702L388.963 -16H346.387L609.199 702H651.775Z" fill="url(#paint4_linear_11848_3888)"/>
<path d="M450.986 702L188.174 -16H36.7938L299.606 702H450.986Z" fill="url(#paint5_linear_11848_3888)"/>
<path d="M690.123 702L841 289.807V702H690.123Z" fill="url(#paint6_linear_11848_3888)"/>
<path d="M0 702H150.877L0 289.807V702Z" fill="url(#paint7_linear_11848_3888)"/>
</g>
<defs>
<linearGradient id="paint0_linear_11848_3888" x1="12.615" y1="702" x2="514.683" y2="497.276" gradientUnits="userSpaceOnUse">
<stop stop-color="#C2C7DF"/>
<stop offset="0.66" stop-color="#EFEFEF" stop-opacity="0"/>
</linearGradient>
<linearGradient id="paint1_linear_11848_3888" x1="202.891" y1="702" x2="876.746" y2="231.878" gradientUnits="userSpaceOnUse">
<stop stop-color="#C2C7DF"/>
<stop offset="0.66" stop-color="#EFEFEF" stop-opacity="0"/>
</linearGradient>
<linearGradient id="paint2_linear_11848_3888" x1="371.091" y1="702" x2="1051.91" y2="212.07" gradientUnits="userSpaceOnUse">
<stop stop-color="#C2C7DF"/>
<stop offset="0.66" stop-color="#EFEFEF" stop-opacity="0"/>
</linearGradient>
<linearGradient id="paint3_linear_11848_3888" x1="813.667" y1="702" x2="243.851" y2="420.845" gradientUnits="userSpaceOnUse">
<stop stop-color="#E5ECF7"/>
<stop offset="0.66" stop-color="#EFEFEF" stop-opacity="0"/>
</linearGradient>
<linearGradient id="paint4_linear_11848_3888" x1="651.775" y1="702" x2="134.566" y2="482.014" gradientUnits="userSpaceOnUse">
<stop stop-color="#E5ECF7"/>
<stop offset="0.66" stop-color="#EFEFEF" stop-opacity="0"/>
</linearGradient>
<linearGradient id="paint5_linear_11848_3888" x1="450.986" y1="702" x2="-170.561" y2="343.448" gradientUnits="userSpaceOnUse">
<stop stop-color="#E5ECF7"/>
<stop offset="0.66" stop-color="#EFEFEF" stop-opacity="0"/>
</linearGradient>
<linearGradient id="paint6_linear_11848_3888" x1="690.123" y1="702" x2="956.224" y2="604.598" gradientUnits="userSpaceOnUse">
<stop stop-color="#C2C7DF"/>
<stop offset="0.66" stop-color="#EFEFEF" stop-opacity="0"/>
</linearGradient>
<linearGradient id="paint7_linear_11848_3888" x1="150.877" y1="702" x2="-115.224" y2="604.598" gradientUnits="userSpaceOnUse">
<stop stop-color="#E5ECF7"/>
<stop offset="0.66" stop-color="#EFEFEF" stop-opacity="0"/>
</linearGradient>
<clipPath id="clip0_11848_3888">
<rect width="841" height="718" fill="white" transform="translate(0 -16)"/>
</clipPath>
</defs>
</svg>
