<svg width="608" height="409" viewBox="0 0 608 409" fill="none" xmlns="http://www.w3.org/2000/svg">
<ellipse cx="305.5" cy="392.5" rx="221.5" ry="16.5" fill="#C5A8C6" fill-opacity="0.3"/>
<path d="M504.851 343.026V373.337C504.851 374.364 504.443 375.349 503.716 376.076C502.99 376.802 502.005 377.21 500.978 377.21H439.525C438.497 377.21 437.512 376.802 436.786 376.076C436.06 375.349 435.652 374.364 435.652 373.337V345.663L481.029 343.936L496.175 343.358L504.851 343.026Z" fill="#C5C5C5"/>
<path d="M496.175 343.026V373.337C496.175 373.846 496.075 374.35 495.88 374.821C495.685 375.291 495.399 375.718 495.038 376.078C494.678 376.438 494.25 376.723 493.78 376.917C493.309 377.111 492.805 377.211 492.296 377.21H430.849C430.34 377.211 429.835 377.111 429.365 376.917C428.894 376.723 428.466 376.438 428.106 376.078C427.746 375.718 427.46 375.291 427.265 374.821C427.07 374.35 426.969 373.846 426.969 373.337V345.663L481.029 343.604L496.175 343.026Z" fill="#B3B3B3"/>
<path d="M536.391 345.663V373.337C536.391 373.846 536.491 374.35 536.687 374.821C536.882 375.291 537.167 375.718 537.528 376.078C537.888 376.438 538.316 376.723 538.786 376.917C539.257 377.111 539.761 377.211 540.271 377.21H601.724C602.751 377.21 603.736 376.802 604.462 376.076C605.189 375.349 605.597 374.364 605.597 373.337V343.026L536.391 345.663Z" fill="#C5C5C5"/>
<path d="M527.702 345.663V373.337C527.702 373.846 527.802 374.349 527.997 374.819C528.192 375.289 528.477 375.716 528.837 376.076C529.196 376.435 529.623 376.72 530.093 376.915C530.563 377.11 531.066 377.21 531.575 377.21H593.028C594.056 377.21 595.042 376.802 595.769 376.076C596.496 375.35 596.906 374.365 596.908 373.337V343.026L527.702 345.663Z" fill="#B3B3B3"/>
<path d="M607.417 144.363V346.055C607.417 348.206 606.562 350.269 605.041 351.79C603.52 353.311 601.457 354.166 599.306 354.166H489.173C488.987 354.166 488.808 354.166 488.629 354.166C486.576 354.029 484.651 353.117 483.245 351.615C481.839 350.113 481.056 348.132 481.056 346.075V144.363C481.058 142.306 481.841 140.327 483.247 138.825C484.653 137.323 486.576 136.411 488.629 136.272C488.808 136.272 488.987 136.272 489.173 136.272H599.332C601.475 136.279 603.529 137.134 605.044 138.65C606.558 140.166 607.412 142.22 607.417 144.363Z" fill="#C5C5C5"/>
<path d="M496.175 144.364V346.055C496.174 348.113 495.392 350.093 493.986 351.595C492.58 353.098 490.655 354.009 488.602 354.146H488.064H434.981C433.053 354.143 431.19 353.455 429.723 352.206C428.255 350.956 427.28 349.226 426.969 347.324C426.902 346.897 426.869 346.466 426.87 346.035V144.364C426.87 142.212 427.724 140.149 429.245 138.628C430.767 137.107 432.83 136.253 434.981 136.253H488.064C488.241 136.253 488.421 136.253 488.602 136.253C490.655 136.389 492.58 137.301 493.986 138.803C495.392 140.305 496.174 142.286 496.175 144.344V144.364Z" fill="#E1E6ED"/>
<path d="M593.992 153.425H511.733C508.93 153.425 506.658 155.697 506.658 158.5V198.49C506.658 201.293 508.93 203.565 511.733 203.565H593.992C596.795 203.565 599.067 201.293 599.067 198.49V158.5C599.067 155.697 596.795 153.425 593.992 153.425Z" fill="#B3B3B3"/>
<path d="M593.992 214.552H511.733C508.93 214.552 506.658 216.824 506.658 219.627V259.618C506.658 262.421 508.93 264.693 511.733 264.693H593.992C596.795 264.693 599.067 262.421 599.067 259.618V219.627C599.067 216.824 596.795 214.552 593.992 214.552Z" fill="#B3B3B3"/>
<path d="M593.992 275.674H511.733C508.93 275.674 506.658 277.946 506.658 280.749V320.739C506.658 323.542 508.93 325.814 511.733 325.814H593.992C596.795 325.814 599.067 323.542 599.067 320.739V280.749C599.067 277.946 596.795 275.674 593.992 275.674Z" fill="#B3B3B3"/>
<path opacity="0.28" d="M599.067 158.5V198.49C599.065 199.835 598.53 201.125 597.578 202.077C596.627 203.028 595.337 203.563 593.991 203.565H561.581V153.425H593.965C594.633 153.422 595.296 153.551 595.914 153.805C596.533 154.059 597.095 154.432 597.569 154.904C598.043 155.375 598.419 155.935 598.676 156.552C598.933 157.169 599.066 157.831 599.067 158.5V158.5ZM599.067 219.621V259.618C599.065 260.963 598.529 262.252 597.578 263.202C596.626 264.152 595.336 264.686 593.991 264.686H561.581V214.552H593.965C594.633 214.549 595.295 214.677 595.914 214.93C596.532 215.183 597.094 215.556 597.568 216.027C598.042 216.498 598.419 217.058 598.676 217.675C598.933 218.291 599.066 218.953 599.067 219.621ZM599.067 280.749V320.739C599.065 322.084 598.53 323.374 597.578 324.326C596.627 325.277 595.337 325.812 593.991 325.814H561.581V275.674H593.965C594.633 275.671 595.296 275.8 595.914 276.054C596.533 276.308 597.095 276.681 597.569 277.153C598.043 277.624 598.419 278.184 598.676 278.801C598.933 279.419 599.066 280.08 599.067 280.749ZM551.783 240.127L544.289 264.706L540.968 275.693L525.689 325.834L517.054 354.186H504.851V373.357C504.851 374.384 504.443 375.369 503.716 376.096C502.99 376.822 502.005 377.23 500.978 377.23H430.849C430.34 377.231 429.835 377.131 429.365 376.937C428.894 376.743 428.466 376.458 428.106 376.098C427.746 375.738 427.46 375.311 427.265 374.841C427.07 374.37 426.969 373.866 426.969 373.357V347.344C426.902 346.917 426.869 346.486 426.87 346.055V144.364C426.87 142.212 427.724 140.149 429.245 138.628C430.767 137.107 432.83 136.253 434.981 136.253H466.867L463.293 209.324C463.282 209.526 463.251 209.727 463.2 209.922L456.769 233.119C456.658 233.527 456.642 233.955 456.723 234.37C456.804 234.784 456.981 235.175 457.238 235.51C457.495 235.845 457.827 236.116 458.207 236.302C458.586 236.488 459.004 236.583 459.427 236.58H549.172C549.601 236.578 550.025 236.677 550.409 236.87C550.793 237.063 551.126 237.343 551.38 237.689C551.635 238.035 551.804 238.436 551.874 238.86C551.944 239.284 551.913 239.718 551.783 240.127V240.127Z" fill="#171547"/>
<path d="M470.534 338.223L479.302 389.207C479.319 389.307 479.371 389.398 479.449 389.464C479.527 389.53 479.626 389.566 479.727 389.566H486.045C486.157 389.566 486.265 389.522 486.345 389.444C486.426 389.366 486.473 389.259 486.476 389.147L487.878 338.223H470.534Z" fill="#5D2168"/>
<path d="M360.009 338.223L351.247 389.207C351.229 389.307 351.176 389.397 351.099 389.462C351.021 389.528 350.923 389.564 350.822 389.566H344.498C344.386 389.566 344.278 389.522 344.197 389.444C344.117 389.366 344.07 389.259 344.066 389.147L342.671 338.223H360.009Z" fill="#171547"/>
<path d="M291.315 127.225L294.271 322.393C294.336 326.614 296.058 330.64 299.066 333.602C302.074 336.563 306.126 338.223 310.347 338.223H497.995C501.217 338.224 504.365 337.257 507.03 335.447C509.695 333.637 511.755 331.068 512.942 328.072L538.085 264.646C539.052 262.208 539.407 259.57 539.12 256.962C538.833 254.355 537.913 251.857 536.439 249.687C534.965 247.517 532.982 245.741 530.664 244.514C528.345 243.286 525.762 242.645 523.138 242.645H436.821C433.111 242.647 429.515 241.365 426.643 239.017C423.771 236.669 421.8 233.4 421.064 229.764L399.587 123.791C398.853 120.155 396.883 116.885 394.012 114.536C391.142 112.187 387.547 110.903 383.837 110.903H307.391C305.259 110.904 303.149 111.328 301.183 112.152C299.217 112.975 297.434 114.182 295.938 115.7C294.442 117.219 293.263 119.02 292.469 120.998C291.676 122.977 291.283 125.093 291.315 127.225V127.225Z" fill="#C5C5C5"/>
<path d="M503.662 260.302C503.51 261.792 503.152 263.254 502.599 264.646L497.497 277.494L490.854 294.287L477.469 328.046C476.593 330.257 475.238 332.246 473.501 333.87C471.765 335.494 469.689 336.713 467.425 337.439V337.439C465.849 337.944 464.204 338.199 462.549 338.196H274.861C273.2 338.197 271.548 337.942 269.965 337.439H185.839L190.144 110.877H348.344C352.053 110.877 355.647 112.159 358.518 114.507C361.388 116.854 363.359 120.123 364.095 123.757L385.571 229.738C386.306 233.373 388.276 236.642 391.147 238.99C394.018 241.338 397.613 242.62 401.321 242.618H487.679C489.924 242.622 492.143 243.096 494.194 244.009C496.245 244.922 498.083 246.254 499.588 247.919C501.093 249.585 502.233 251.547 502.935 253.679C503.637 255.812 503.884 258.068 503.662 260.302Z" fill="#E1E6ED"/>
<path opacity="0.28" d="M503.662 260.302C503.51 261.792 503.152 263.254 502.599 264.646L497.497 277.494L490.854 294.287H266.325V260.275L503.662 260.302Z" fill="#171547"/>
<path d="M497.497 277.494L487.426 302.896L485.553 307.632L477.455 328.046C476.58 330.257 475.225 332.246 473.488 333.87C471.751 335.494 469.676 336.713 467.411 337.439V337.439C465.835 337.944 464.19 338.199 462.535 338.196H274.861C273.199 338.198 271.548 337.942 269.965 337.439H238.358V277.494H497.497Z" fill="#B3B3B3"/>
<path opacity="0.28" d="M487.426 302.923L485.553 307.659H302.94V302.923H487.426Z" fill="#171547"/>
<path d="M363.955 195.261C363.955 195.261 361.962 195.261 355.319 188.957C348.676 182.653 350.749 166.152 348.079 171.095C345.408 176.037 340.645 188.366 341.794 187.277C342.505 186.603 343.146 185.86 343.708 185.058C343.708 185.058 340.904 188.379 341.874 194.185C342.844 199.991 341.947 202.688 342.844 199.978C343.261 198.659 343.767 197.369 344.359 196.118C344.359 196.118 343.096 203.711 346.969 206.561C350.842 209.411 356.934 209.657 356.934 209.657L363.955 195.261Z" fill="#171547"/>
<path d="M386.986 222.55C386.986 222.55 386.222 233.106 381.725 239.224C377.228 245.342 377.128 243.343 376.597 249.667C376.065 255.991 374.464 257.578 376.876 258.847C379.287 260.116 380.802 262.361 379.333 262.64C377.865 262.919 365.848 262.162 365.642 259.883C365.436 257.605 366.858 253.353 366.38 251.194C365.902 249.035 363.756 233.591 364.347 226.616C364.938 219.641 388.089 211.105 386.986 222.55Z" fill="#C5C5C5"/>
<path d="M386.986 222.55C386.986 222.55 386.222 233.106 381.725 239.224C377.228 245.342 377.128 243.343 376.597 249.667C376.065 255.991 374.464 257.578 376.876 258.847C379.287 260.116 380.802 262.361 379.333 262.64C377.865 262.919 365.848 262.162 365.642 259.883C365.436 257.605 366.858 253.353 366.38 251.194C365.902 249.035 363.756 233.591 364.347 226.616C364.938 219.641 388.089 211.105 386.986 222.55Z" fill="#171547"/>
<path d="M458.616 188.286C456.584 193.421 456.856 196.497 456.584 193.421C456.503 192.553 456.503 191.679 456.584 190.811C456.072 192.923 455.102 196.889 454.345 199.725C453.734 201.997 453.262 203.545 453.275 202.828C453.259 201.501 453.035 200.185 452.611 198.928V198.928C452.611 198.928 449.748 211.55 449.814 215.535C449.881 219.521 447.303 224.742 444.327 236.434C441.351 248.125 437.02 261.816 439.87 263.916C442.72 266.015 444.042 266.393 443.384 267.901C442.727 269.409 438.243 270.386 432.849 269.137C427.455 267.888 427.7 271.349 426.518 266.48C425.335 261.61 427.514 229.678 427.514 229.678L425.03 230.807H424.983L420.692 232.754H420.626C420.626 232.754 413.445 260.886 413.498 263.544C413.551 266.201 419.224 268.008 419.35 269.609C419.476 271.209 417.065 271.535 413.903 271.269C413.006 271.196 411.87 271.123 410.695 270.964C407.719 270.558 404.483 269.635 404.284 266.739C404.012 262.753 404.616 255.625 402.291 245.608C399.966 235.59 400.092 230.827 400.092 230.827C400.092 230.827 385.186 228.237 381.3 227.114C377.414 225.991 373.92 237.497 365.257 239.556C356.595 241.615 356.409 239.065 354.283 245.395C352.157 251.726 350.822 259.558 352.955 261.199C355.087 262.839 358.156 262.434 357.027 264.859C356.429 266.134 352.058 266.287 348.065 265.829C344.478 265.417 341.19 264.5 341.217 263.517C341.263 261.405 343.362 249.102 341.589 243.522C339.815 237.942 341.31 234.222 343.276 231.319C345.242 228.416 348.896 219.86 351.334 211.437C351.467 210.965 351.593 210.494 351.712 210.029C353.705 202.163 353.154 195.115 362.819 193.308C373.069 191.389 400.863 184.321 405.619 181.411C410.376 178.501 412.262 173.871 413.026 170.782C413.318 169.626 414.036 166.757 414.813 163.601C416.142 158.247 417.656 152.069 417.656 152.069C417.656 152.069 421.37 153.471 426.571 155.597C438.834 160.599 459.38 169.607 459.121 173.705C459.108 173.679 460.642 183.165 458.616 188.286Z" fill="#5D2168"/>
<path d="M458.995 187.15C458.89 187.547 458.763 187.937 458.616 188.32C456.584 193.455 456.856 196.53 456.584 193.455C456.503 192.586 456.503 191.712 456.584 190.844C456.072 192.956 455.102 196.922 454.345 199.759C453.302 199.314 452.671 198.988 452.618 198.961C452.618 198.961 444.646 215.276 443.723 218.638C442.8 221.999 443.371 214.898 444.214 212.845C445.058 210.792 440.641 218.91 436.741 223.361C434.37 226.058 428.942 228.987 425.036 230.867H424.99C422.785 231.923 421.077 232.654 420.699 232.814H420.632C420.818 232.07 420.984 231.339 421.137 230.628C424.538 214.419 419.682 205.312 419.43 204.867C419.49 205.04 419.908 206.455 418.998 209.856C418.374 212.181 417.829 207.743 416.779 202.23C416.245 199.103 415.467 196.022 414.454 193.016C411.651 185.35 417.53 178.681 417.53 178.681L414.833 179.159C413.697 179.365 415.404 175.638 417.769 171.247C420.998 165.229 425.495 157.922 425.495 157.922C425.734 157.35 425.98 156.792 426.232 156.254C426.332 156.029 426.438 155.816 426.544 155.59C427.494 155.975 428.491 156.381 429.527 156.819C441.863 161.954 459.334 169.912 459.108 173.699C459.108 173.679 460.43 181.836 458.995 187.15Z" fill="white"/>
<path opacity="0.28" d="M458.995 187.15C453.508 196.059 445.643 202.376 445.045 202.887C444.188 203.611 445.477 197.792 445.477 197.792C443.804 199.869 441.979 201.819 440.016 203.625C437.665 205.618 439.498 200.396 437.326 193.846C436.019 189.951 433.383 186.64 429.879 184.493L431.002 187.974C432.124 191.448 431.553 190.631 422.904 179.903C420.813 177.263 419.078 174.359 417.743 171.267C418.666 169.553 419.689 167.733 420.679 166.006C421.781 166.943 423.103 167.939 424.558 168.956C432.736 174.642 445.364 181.012 448.938 181.896C453.235 182.952 455.408 181.816 459.613 178.94C459.808 181.692 459.6 184.458 458.995 187.15V187.15Z" fill="#171547"/>
<path d="M406.954 230.767C406.086 234.516 405.589 238.341 405.473 242.187C405.267 250.158 408.163 261.989 410.681 270.963C407.705 270.558 404.47 269.635 404.271 266.739C403.998 262.753 404.603 255.625 402.278 245.608C399.953 235.59 400.079 230.827 400.079 230.827C400.079 230.827 385.172 228.236 381.286 227.114C377.4 225.991 373.906 237.497 365.244 239.556C356.581 241.615 356.395 239.064 354.27 245.395C352.144 251.726 350.809 259.558 352.941 261.198C355.073 262.839 358.142 262.434 357.013 264.859C356.415 266.134 352.044 266.287 348.052 265.829C349.341 260.64 346.345 251.878 345.541 246.916C344.312 239.39 350.543 230.156 354.29 223.666C358.036 217.176 371.986 216.97 373.82 216.067C375.653 215.163 368.412 211.895 368.412 211.895L381.32 210.254C394.227 208.613 401.022 210.646 401.022 210.646L394.592 215.502C394.592 215.502 396.671 215.907 403.314 214.067C409.957 212.227 416.766 202.25 416.766 202.25C417.816 207.763 418.36 212.214 418.985 209.876C419.868 206.554 419.496 205.133 419.423 204.9C419.762 205.505 424.492 214.592 421.124 230.648C421.124 230.648 412.694 226.237 408.562 229.532C407.725 230.196 407.233 230.595 406.968 230.767C407.008 230.581 407.054 230.402 407.094 230.223C408.209 228.602 409.009 226.786 409.452 224.869C410.017 221.932 408.429 224.709 407.094 230.223C406.729 230.781 406.589 230.993 406.954 230.767Z" fill="#171547"/>
<path d="M407.081 230.223C407.041 230.403 406.994 230.582 406.955 230.768C406.589 230.994 406.729 230.781 407.081 230.223Z" fill="#C5C5C5"/>
<path d="M410.588 180.886C406.323 189.064 378.417 192.671 368.552 194.936C362.507 196.324 355.93 204.156 351.686 210.028C353.679 202.163 353.127 195.115 362.793 193.308C373.043 191.389 400.836 184.32 405.593 181.411C410.349 178.501 412.236 173.871 412.999 170.782C413.292 169.626 414.009 166.757 414.786 163.601C414.348 168.364 413.259 175.758 410.588 180.886Z" fill="#813C91"/>
<path d="M455.806 150.189C455.806 150.189 464.767 145.606 470.846 144.085C476.924 142.563 484.171 137.163 483.979 139.893C483.786 142.623 482.491 146.815 480.657 150.787C478.824 154.76 477.655 158.639 477.914 156.068L478.173 153.498C478.173 153.498 477.064 159.164 475.443 162.592C473.822 166.019 467.744 170.098 468.707 168.311C469.67 166.524 470.879 164.784 470.879 164.784C470.879 164.784 466.953 168.889 463.153 169.155C459.354 169.421 458.337 168.643 458.337 168.643L455.806 150.189Z" fill="#5D2168"/>
<path d="M458.45 154.421C458.45 154.421 460.443 166.418 460.974 167.268C461.426 167.979 465.452 167.753 470.56 163.163C471.782 162.056 472.921 160.862 473.968 159.589C478.277 154.429 481.04 148.156 481.939 141.494C482.099 140.165 480.119 141.872 476.06 144.935C474.659 145.991 473.011 147.213 471.118 148.522C463.745 153.604 458.45 154.421 458.45 154.421Z" fill="white"/>
<path d="M444.666 144.331C444.666 144.331 445.483 139.647 446.041 135.535C446.599 131.423 446.101 129.324 445.742 130.454C445.527 131.129 445.408 131.831 445.39 132.539C445.39 132.539 444.992 122.515 443.776 119.805C442.56 117.095 436.781 111.794 436.562 113.939C435.913 118.303 434.647 122.553 432.802 126.561C430.59 131.151 426.564 134.287 426.159 140.006C425.754 145.726 425.721 146.775 425.721 146.775L444.666 144.331Z" fill="#5D2168"/>
<path d="M427.88 138.392C427.75 140.216 427.904 142.049 428.338 143.826L440.574 143.447C440.574 143.447 441.305 137.767 441.604 134.147C441.903 130.527 442.162 127.949 441.703 129.105L440.654 131.762C441.035 128.641 441.234 125.5 441.252 122.356C441.149 120.486 440.546 118.678 439.505 117.121C438.767 115.999 438.076 115.434 438.043 115.793C437.983 116.623 435.313 123.884 433.493 127.212C432.164 129.617 429.952 132.832 428.73 135.549C428.288 136.441 428 137.403 427.88 138.392Z" fill="white"/>
<path opacity="0.28" d="M458.45 154.421C458.45 154.421 460.443 166.418 460.974 167.268C461.426 167.979 465.452 167.753 470.56 163.163C469.619 162.308 468.98 161.17 468.74 159.921C468.076 156.341 472.287 149.864 476.047 144.935C474.645 145.991 472.998 147.214 471.105 148.522C463.744 153.604 458.45 154.421 458.45 154.421ZM427.88 138.392C427.75 140.216 427.904 142.049 428.338 143.826L440.574 143.447C440.574 143.447 441.305 137.767 441.604 134.147C441.903 130.527 442.162 127.949 441.703 129.105L440.654 131.762C441.035 128.641 441.234 125.5 441.252 122.356C441.149 120.486 440.546 118.678 439.505 117.121C439.578 122.216 439.246 134.021 434.615 136.93C432.775 138.086 430.703 137.269 428.73 135.602C428.293 136.478 428.006 137.421 427.88 138.392V138.392Z" fill="#171547"/>
<path d="M461.765 166.558C460.981 175.539 457.586 179.279 452.119 182.447C451.047 183.006 449.906 183.419 448.725 183.676C447.463 183.982 446.008 184.254 444.434 184.487C435.612 185.769 422.957 185.815 419.742 185.085L419.39 184.998C419.275 184.973 419.162 184.942 419.051 184.905L418.726 184.812L418.413 184.713L418.115 184.606C418.015 184.567 417.915 184.533 417.822 184.487L417.596 184.387C417.551 184.374 417.509 184.354 417.47 184.327L417.018 184.101L416.773 183.962L416.553 183.822C416.407 183.729 416.268 183.63 416.135 183.53L415.863 183.311L415.776 183.238C415.663 183.145 415.564 183.045 415.464 182.946L415.245 182.733L415.205 182.687L415.065 182.54L414.793 182.228L414.534 181.903C414.434 181.77 414.335 181.637 414.242 181.497C414.149 181.358 413.91 181.019 413.743 180.76L413.65 180.614C413.613 180.564 413.579 180.511 413.551 180.455V180.421C413.019 179.458 413.763 179.006 415.637 179.458C416.144 179.563 416.656 179.64 417.171 179.691C418.925 179.903 421.695 180.129 424.226 180.315C423.868 180.284 423.513 180.226 423.163 180.142C421.908 179.817 419.669 174.828 418.254 174.669C416.839 174.509 410.037 173.579 410.037 173.579C409.957 173.347 409.884 173.121 409.811 172.915C409.738 172.709 409.718 172.596 409.678 172.443C409.638 172.29 409.598 172.178 409.565 172.038C409.532 171.899 409.499 171.779 409.472 171.653C409.446 171.527 409.392 171.321 409.359 171.161C408.713 168.29 408.784 165.303 409.565 162.466C410.535 159.41 411.558 160.964 413.896 159.603C416.235 158.241 418.546 149.864 419.323 148.522C420.101 147.18 427.116 142.079 434.934 141.627C438.346 141.413 441.767 141.846 445.018 142.902L445.596 143.108L445.676 143.141L446.174 143.327L446.646 143.527C446.925 143.646 447.151 143.753 447.31 143.839C447.469 143.925 447.655 144.018 447.695 144.038L447.649 143.992L447.562 143.919C447.396 143.759 447.097 143.48 446.792 143.135L446.632 142.955C446.402 142.686 446.194 142.4 446.008 142.099L445.948 141.986C445.897 141.896 445.853 141.803 445.815 141.707C445.8 141.67 445.787 141.632 445.775 141.594C445.75 141.524 445.73 141.453 445.716 141.381C445.71 141.306 445.71 141.23 445.716 141.155C445.713 140.962 445.781 140.775 445.908 140.63C446.818 139.614 451.223 144.291 451.375 144.47L450.871 142.876C450.552 141.866 453.455 144.53 455.627 146.622C456.896 147.838 457.912 148.868 457.912 148.868C458.663 150.348 459.309 151.88 459.845 153.451C459.845 153.451 459.845 153.451 459.845 153.451C460.988 156.813 462.183 161.655 461.765 166.558Z" fill="#5D2168"/>
<path d="M410.123 173.964C410.07 173.832 410.023 173.705 409.984 173.579L410.21 173.971L410.123 173.964Z" fill="#C5C5C5"/>
<path d="M445.417 178.063C445.288 178.236 445.119 178.375 444.925 178.468L443.597 179.312C443.597 179.312 445.722 180.036 445.357 180.009C444.992 179.983 440.043 182.215 440.043 182.215L444.367 182.879H444.268C443.583 182.806 442.892 182.874 442.235 183.078L444.48 184.493C435.658 185.775 423.004 185.822 419.788 185.091L419.436 185.005C419.322 184.98 419.209 184.949 419.098 184.912L418.772 184.819L418.46 184.719L418.161 184.613C418.061 184.573 417.962 184.54 417.869 184.493L417.643 184.394C417.598 184.381 417.555 184.36 417.517 184.334L417.065 184.108L416.819 183.969L416.6 183.829C416.454 183.736 416.314 183.636 416.181 183.537L415.909 183.318L415.823 183.245C415.71 183.152 415.61 183.052 415.51 182.952L415.291 182.74L415.251 182.693L415.112 182.547L414.84 182.235L414.58 181.909C414.481 181.776 414.381 181.644 414.288 181.504C414.195 181.365 413.956 181.026 413.79 180.767L413.697 180.621C413.659 180.571 413.626 180.517 413.597 180.461V180.428C413.385 180.043 413.378 179.764 413.597 179.544C413.817 179.325 414.594 179.199 415.716 179.465C416.223 179.569 416.736 179.647 417.251 179.697C419.005 179.91 421.775 180.136 424.306 180.322C423.948 180.29 423.592 180.233 423.243 180.149C422.492 179.956 421.403 178.11 420.34 176.608C419.616 175.585 418.905 174.728 418.347 174.675C416.932 174.536 410.13 173.586 410.13 173.586C410.05 173.353 409.977 173.127 409.904 172.921C409.831 172.716 409.811 172.603 409.771 172.45C409.731 172.297 409.691 172.184 409.658 172.045C409.625 171.905 409.592 171.786 409.565 171.659C409.538 171.533 409.485 171.327 409.452 171.168C410.781 168.265 412.647 164.525 414.727 163.342C416.806 162.16 421.263 163.396 423.675 161.177C426.086 158.958 431.566 149.678 433.081 148.755C434.396 148.015 435.761 147.367 437.166 146.815C437.166 146.815 431.653 146.908 433.101 146.47C434.549 146.031 438.9 145.978 441.072 145.692C442.833 145.453 445.935 144.643 445.138 142.909L445.716 143.115L445.795 143.148L446.294 143.334L446.765 143.533C447.044 143.653 447.27 143.759 447.43 143.846C447.589 143.932 447.775 144.025 447.815 144.045L447.768 143.998L447.682 143.925C447.516 143.766 447.217 143.487 446.911 143.141L446.752 142.962C446.522 142.693 446.313 142.406 446.128 142.105L446.068 141.992C446.017 141.903 445.972 141.809 445.935 141.713C445.92 141.676 445.906 141.639 445.895 141.6C445.87 141.531 445.85 141.46 445.835 141.388C445.829 141.313 445.829 141.237 445.835 141.162C445.832 140.969 445.901 140.782 446.028 140.637C446.938 139.621 451.342 144.297 451.495 144.477L450.99 142.882C450.671 141.873 453.574 144.536 455.746 146.629C451.276 147.592 441.371 149.95 438.528 152.435C434.821 155.67 431.779 165.535 433.612 168.936C435.446 172.337 437.99 176.316 441.537 177.08C444.214 177.664 445.643 177.658 445.417 178.063Z" fill="white"/>
<path d="M438.568 179.04C438.568 179.04 440.202 178.302 439.963 179.259C439.724 180.215 426.232 181.478 423.136 180.149C420.041 178.82 419.33 175.433 417.158 174.954C414.986 174.476 410.429 173.519 410.608 173.3C410.787 173.081 417.576 173.785 417.915 173.38C418.254 172.975 420.2 168.61 420.2 168.61L420.911 169.328C420.911 169.328 418.918 173.725 419.217 174.144C419.516 174.562 421.144 177.392 422.18 178.375C423.367 179.38 424.808 180.037 426.345 180.275C427.64 180.461 438.568 179.04 438.568 179.04Z" fill="#171547"/>
<path d="M420.38 169.434C420.38 169.434 426.485 168.179 426.77 167.441C427.056 166.704 418.606 163.17 418.307 164.067C418.008 164.963 419.948 169.527 420.38 169.434Z" fill="#171547"/>
<path d="M438.814 168.484L438.894 168.557C441.072 170.463 444.321 170.928 444.952 167.926C445.003 167.392 444.948 166.854 444.789 166.342C444.631 165.83 444.372 165.354 444.028 164.943L443.935 164.844C442.667 163.482 438.103 164.844 438.103 164.844C438.103 164.844 436.635 166.518 438.814 168.484Z" fill="#C5C5C5"/>
<path d="M418.898 159.961L419.197 160.254C420.579 161.482 422.592 161.476 423.183 159.038C423.296 158.386 423.239 157.715 423.017 157.092V157.092C422.94 156.882 422.832 156.685 422.698 156.507C421.921 155.437 418.646 156.952 418.646 156.952C418.329 157.404 418.181 157.953 418.227 158.502C418.273 159.052 418.511 159.568 418.898 159.961Z" fill="#C5C5C5"/>
<path d="M438.103 164.864C438.103 164.864 436.635 166.518 438.814 168.484L438.894 168.557C439.53 168.773 440.207 168.847 440.875 168.776C441.544 168.705 442.189 168.49 442.766 168.145C443.856 167.368 444.048 165.947 444.028 164.943L443.935 164.844C442.673 163.482 438.103 164.864 438.103 164.864ZM418.898 159.961L419.197 160.254C419.757 160.275 420.314 160.162 420.821 159.922C421.327 159.683 421.768 159.325 422.107 158.878C422.517 158.339 422.833 157.735 423.044 157.092V157.092C422.966 156.882 422.859 156.685 422.725 156.507C421.947 155.437 418.673 156.952 418.673 156.952C418.353 157.401 418.2 157.948 418.241 158.498C418.282 159.047 418.515 159.565 418.898 159.961Z" fill="#171547"/>
<path d="M439.571 165.129C439.471 165.256 439.413 165.412 439.407 165.573C439.4 165.735 439.444 165.895 439.533 166.03C439.622 166.165 439.752 166.269 439.903 166.326C440.054 166.384 440.22 166.392 440.376 166.35C440.533 166.308 440.672 166.218 440.774 166.092C440.876 165.967 440.936 165.812 440.946 165.651C440.955 165.489 440.913 165.329 440.826 165.192C440.739 165.055 440.612 164.95 440.461 164.89C440.311 164.807 440.134 164.785 439.968 164.83C439.802 164.875 439.66 164.982 439.571 165.129V165.129ZM420.127 156.792C420.027 156.919 419.97 157.075 419.963 157.237C419.956 157.398 420 157.558 420.089 157.693C420.179 157.829 420.308 157.932 420.459 157.99C420.611 158.047 420.776 158.055 420.933 158.013C421.089 157.971 421.228 157.881 421.33 157.756C421.433 157.63 421.493 157.475 421.502 157.314C421.511 157.152 421.47 156.992 421.383 156.855C421.296 156.719 421.168 156.613 421.018 156.553C420.867 156.47 420.69 156.449 420.524 156.493C420.358 156.538 420.216 156.645 420.127 156.792Z" fill="#C5C5C5"/>
<path opacity="0.28" d="M461.765 166.558C460.981 175.539 457.587 179.279 452.119 182.447C450.612 183.324 447.802 183.995 444.434 184.487C435.612 185.769 422.957 185.815 419.742 185.085C416.666 184.387 415.225 183.092 413.651 180.614C413.611 180.559 413.576 180.501 413.544 180.441V180.408C413.013 179.445 413.757 178.993 415.63 179.445C416.137 179.549 416.649 179.627 417.165 179.677L417.689 180.056C421.848 183.052 428.012 183.377 434.137 182.793C437.758 182.427 441.823 180.375 445.43 178.05C447.941 176.442 450.22 174.728 451.993 173.3C456.324 169.879 449.482 177.445 447.423 180.202C445.364 182.959 454.684 176.847 458.098 169.228C459.872 165.289 460.051 158.785 459.819 153.425C460.988 156.812 462.183 161.655 461.765 166.558Z" fill="#171547"/>
<path d="M429.68 178.827C428.896 178.794 425.349 178.621 423.296 178.382C426.312 178.608 429.002 178.78 429.68 178.827Z" fill="#C5C5C5"/>
<path d="M424.199 180.315C421.668 180.129 418.885 179.903 417.145 179.69C416.629 179.64 416.117 179.563 415.61 179.458C414.487 179.192 413.77 179.245 413.491 179.538C411.923 177.791 418.34 176.841 420.234 176.602C421.296 178.103 422.386 179.923 423.136 180.142C423.486 180.226 423.841 180.284 424.199 180.315Z" fill="#171547"/>
<path d="M421.888 178.973C421.888 178.973 418.168 179.458 417.038 180.514C415.909 181.57 415.278 187.423 414.893 188.771C414.507 190.12 412.714 189.987 410.621 189.216C408.529 188.446 409.293 181.836 410.621 178.754C411.95 175.671 418.726 175.539 418.726 175.539L419.636 176.528L419.755 176.655L421.888 178.973Z" fill="#E2567B"/>
<path d="M419.755 176.655C418.002 177.246 415.045 178.461 413.85 180.315C412.109 183.038 411.684 187.549 411.684 187.549C411.474 185.131 411.912 182.7 412.953 180.507C414.142 178.116 417.603 176.993 419.636 176.522L419.755 176.655Z" fill="#8E2B4A"/>
<path d="M256.267 58.2784C256.503 58.7553 256.698 59.2508 256.852 59.7598C256.918 59.5406 256.991 59.3213 257.064 59.0955C257.094 58.9843 257.094 58.8673 257.065 58.756C257.036 58.6446 256.978 58.5428 256.898 58.4604C256.818 58.378 256.717 58.3179 256.607 58.286C256.496 58.2541 256.379 58.2515 256.267 58.2784Z" fill="#5D2168"/>
<path d="M256.267 58.2787C256.503 58.7556 256.698 59.251 256.852 59.76C256.918 59.5408 256.991 59.3216 257.064 59.0958C257.094 58.9846 257.094 58.8676 257.065 58.7562C257.036 58.6449 256.978 58.5431 256.898 58.4607C256.818 58.3783 256.717 58.3182 256.607 58.2863C256.496 58.2544 256.379 58.2518 256.267 58.2787ZM304.448 27.4889C306.248 33.2284 308.042 40.1104 306.361 46.089C305.681 48.4198 304.403 50.5326 302.656 52.2185C300.908 53.9043 298.751 55.1048 296.397 55.7012C295.513 55.9337 295.068 54.5719 295.985 54.3727C298.356 53.7664 300.498 52.482 302.15 50.6768C303.802 48.8717 304.891 46.624 305.285 44.2091C306.195 38.8549 304.621 32.9826 303.04 27.9074C303.025 27.7451 303.066 27.5825 303.157 27.4469C303.247 27.3113 303.381 27.211 303.537 27.1627C303.693 27.1145 303.86 27.1212 304.012 27.1818C304.163 27.2424 304.289 27.3532 304.368 27.4956L304.448 27.4889Z" fill="#5D2168"/>
<path d="M299.851 44.6938C299.851 44.6938 308.879 32.2251 306.727 21.4437C304.574 10.6623 292.982 7.12833 292.982 7.12833C292.982 7.12833 287.369 -4.33729 268.477 1.81402C249.585 7.96533 247.426 26.2798 249.272 34.3642C251.119 42.4485 250.382 41.0535 250.382 41.0535C250.382 41.0535 233.356 41.492 232.851 50.2406C232.346 58.9893 241.58 68.9072 249.08 65.9179C256.58 62.9286 259.044 58.1058 259.044 58.1058C259.044 58.1058 258.792 59.3879 263.289 63.3736C267.786 67.3594 299.851 44.6938 299.851 44.6938Z" fill="#5D2168"/>
<path d="M263.814 57.4747C263.814 57.4747 263.654 59.7864 263.309 63.3736C262.963 66.9607 256.872 81.6282 256.872 81.6282L258.2 91.1142C258.2 91.1142 285.655 114.311 293.873 110.923C302.09 107.535 284.008 79.4759 284.008 79.4759L280.056 74.2214L279.006 66.1968H279.052C279.624 66.3762 285.695 68.0634 293.999 63.5064C302.728 58.7103 298.928 28.8372 298.928 28.8372C298.928 28.8372 294.942 24.526 293.328 23.1576L291.727 21.7825C291.727 21.7825 290.744 23.297 282.115 28.5582C273.486 33.8194 270.702 33.7264 269.62 34.1117C268.537 34.4969 268.371 40.3892 267.148 41.8174C265.926 43.2456 265.069 42.0233 264.996 41.9237C263.927 39.9308 261.814 38.9278 259.715 41.0867C256.918 43.9896 256.334 51.051 257.191 54.1067C258.048 57.1625 263.814 57.4747 263.814 57.4747Z" fill="#FFD3B6"/>
<path d="M263.515 51.6356C263.036 51.051 262.478 52.6984 262.266 52.9243C261.958 53.256 261.535 53.4579 261.083 53.4889C260.614 53.4657 260.165 53.2896 259.805 52.9873C259.445 52.685 259.194 52.2733 259.091 51.8149C258.426 49.5497 259.243 46.3545 261.641 45.6238C261.818 45.5718 262.007 45.5919 262.169 45.6798C262.33 45.7676 262.45 45.9159 262.502 46.0921C262.554 46.2683 262.534 46.4579 262.446 46.6192C262.358 46.7805 262.21 46.9004 262.033 46.9523C260.705 47.3576 260.293 48.6928 260.253 49.9815C260.211 50.458 260.247 50.9381 260.359 51.4031C260.605 52.2268 260.984 52.2667 261.482 51.516C261.502 51.3545 261.543 51.1961 261.602 51.0444C262.266 49.9284 263.508 49.5165 264.418 50.6259C264.956 51.2901 264.053 52.3198 263.501 51.6489L263.515 51.6356Z" fill="#B25D67"/>
<path d="M278.222 43.7307C278.222 44.6873 278.78 45.4313 279.411 45.4047C280.042 45.3781 280.534 44.5743 280.507 43.6244C280.481 42.6745 279.949 41.9238 279.318 41.9504C278.687 41.977 278.196 42.7808 278.222 43.7307ZM294.285 45.1124C294.285 46.0623 294.843 46.813 295.474 46.7798C296.105 46.7466 296.596 45.956 296.57 44.9995C296.543 44.0429 296.012 43.2989 295.381 43.3321C294.75 43.3653 294.258 44.1558 294.285 45.1124Z" fill="#5D2168"/>
<path d="M288.924 55.4154C289.199 55.4029 289.472 55.3673 289.741 55.3091C289.944 55.2764 290.139 55.2017 290.312 55.0899C290.506 54.9352 290.661 54.7378 290.766 54.5131C290.871 54.2884 290.923 54.0424 290.917 53.7945C290.959 52.9922 290.752 52.1965 290.325 51.516C290.189 51.3057 290.041 51.1038 289.88 50.9115C289.741 50.7446 289.613 50.5693 289.495 50.3867C289.12 49.7944 288.967 49.0883 289.063 48.3938C289.073 48.3353 289.07 48.2755 289.056 48.2179C289.042 48.1603 289.017 48.1061 288.981 48.0584C288.946 48.0108 288.902 47.9707 288.851 47.9404C288.8 47.9102 288.743 47.8904 288.685 47.8823C288.566 47.8693 288.446 47.9039 288.353 47.9786C288.26 48.0533 288.2 48.162 288.186 48.2809C288.061 49.1947 288.261 50.1235 288.751 50.9048C288.89 51.1174 289.043 51.3101 289.196 51.5027C289.337 51.6699 289.468 51.8452 289.588 52.0275C289.911 52.5406 290.065 53.1427 290.026 53.748C290.034 53.8512 290.02 53.9549 289.987 54.0529C289.954 54.151 289.902 54.2415 289.834 54.3193C289.752 54.36 289.665 54.3891 289.575 54.4056C288.83 54.558 288.058 54.5122 287.336 54.2728C287.28 54.2543 287.22 54.2472 287.161 54.2519C287.102 54.2566 287.045 54.2731 286.992 54.3003C286.94 54.3275 286.893 54.365 286.855 54.4104C286.817 54.4559 286.789 54.5085 286.771 54.5651C286.751 54.6209 286.742 54.6801 286.745 54.7394C286.748 54.7987 286.763 54.8568 286.788 54.9105C286.813 54.9641 286.849 55.0123 286.893 55.0522C286.937 55.0921 286.988 55.123 287.044 55.143C287.647 55.3526 288.285 55.445 288.924 55.4154Z" fill="#B25D67"/>
<path d="M298.523 36.4366C297.213 35.7661 295.706 35.5915 294.278 35.945C293.66 36.0978 293.361 35.1146 293.986 34.9618C295.67 34.5331 297.452 34.7314 299.001 35.5199C299.572 35.8121 299.094 36.7289 298.523 36.4366V36.4366ZM282.54 33.8525V33.6864L282.799 34.1248C281.344 33.2214 278.86 33.8791 277.418 34.5035C276.82 34.7626 276.535 33.7728 277.126 33.5203C278.439 32.9342 279.875 32.6744 281.311 32.763C282.075 32.8228 283.443 32.7631 283.55 33.806C283.623 34.4703 282.626 34.5101 282.553 33.8525H282.54Z" fill="#5D2168"/>
<path d="M290.126 59.6072C290.126 59.6072 288.758 62.4371 286.552 62.6961C284.347 62.9552 282.733 60.7033 282.566 59.9659C282.4 59.2285 282.121 58.6838 282.38 58.7104C282.64 58.737 285.137 59.6138 287.03 59.2883C288.924 58.9628 290.604 58.2255 290.126 59.6072ZM269.879 60.4575C270.011 60.783 274.356 71.3186 277.75 73.0458L280.055 74.2215L279.006 66.1903C277.524 65.7642 276.067 65.2563 274.641 64.6691C272.184 63.6726 270.011 60.6435 269.879 60.4575Z" fill="#B25D67"/>
<path d="M265.733 43.033L272.376 42.9666C272.376 43.1725 272.323 43.3718 272.31 43.5844C272.064 47.7827 274.967 51.3167 278.767 51.4562C282.566 51.5957 285.861 48.3009 286.074 44.0959C286.084 43.9012 286.084 43.7061 286.074 43.5113C286.802 43.2239 287.584 43.0992 288.366 43.146C288.914 43.1524 289.438 43.3716 289.827 43.7571C289.676 44.2858 289.583 44.8293 289.548 45.378C289.322 49.2375 292.053 52.4925 295.633 52.6254C299.214 52.7582 302.276 49.7224 302.528 45.8629C302.781 42.0034 300.024 38.7484 296.45 38.6155C295.058 38.6038 293.696 39.0243 292.552 39.8191C291.409 40.6138 290.54 41.7437 290.066 43.053C289.595 42.6975 289.028 42.4916 288.439 42.4618C287.623 42.4028 286.803 42.5159 286.034 42.7939C285.689 39.1935 283.018 36.3503 279.61 36.2241C276.203 36.0979 273.227 38.7218 272.456 42.2758L265.707 42.3422L265.733 43.033ZM290.246 45.4046C290.452 41.9237 293.228 39.1868 296.443 39.3064C299.659 39.426 302.103 42.3555 301.897 45.8363C301.691 49.3172 298.921 52.0541 295.706 51.9345C292.491 51.8149 290.046 48.8854 290.246 45.4046ZM272.974 43.6043C273.193 39.7847 276.176 36.7821 279.617 36.9083C283.058 37.0345 285.675 40.2297 285.449 44.076C285.224 47.9222 282.248 50.8982 278.807 50.772C275.366 50.6458 272.748 47.4306 272.967 43.6043H272.974Z" fill="#5D2168"/>
<path d="M516.808 358.949C515.944 362.549 494.302 367.02 482.756 368.574C471.211 370.129 462.562 374.407 458.543 374.207C454.524 374.008 453.568 367.432 452.226 359.234C452.078 358.378 451.874 357.533 451.615 356.703C449.177 348.732 441.836 338.967 441.836 338.967L457.221 331.965C457.221 331.965 464.98 340.933 465.233 342.009C465.485 343.086 471.875 346.135 478.518 347.988C480.989 348.652 486.211 349.423 491.917 350.147C501.616 351.376 512.742 352.552 514.337 353.256C516.881 354.392 517.671 355.342 516.808 358.949Z" fill="#FFD3B6"/>
<path d="M516.808 358.949C515.944 362.549 494.302 367.02 482.756 368.574C471.211 370.129 462.562 374.407 458.543 374.207C454.524 374.008 453.568 367.432 452.226 359.234C452.078 358.378 451.874 357.533 451.615 356.703C454.26 356.059 457.03 356.142 459.633 356.942C466.422 359.334 470.029 360.197 481.74 356.903C493.451 353.608 495.69 352.312 491.937 350.173C501.636 351.402 512.762 352.578 514.357 353.282C516.881 354.392 517.671 355.342 516.808 358.949Z" fill="url(#paint0_linear_11822_4160)"/>
<path d="M504.857 385.547C503.316 388.921 481.215 389.154 469.584 388.463C457.952 387.772 448.652 390.31 444.746 389.347C440.84 388.383 441.159 381.734 441.424 373.404C441.448 372.534 441.41 371.664 441.312 370.8C440.441 362.543 435.12 351.535 435.12 351.535L451.562 347.636C451.562 347.636 457.454 357.926 457.494 359.035C457.533 360.145 463.213 364.349 469.398 367.452C471.696 368.594 476.672 370.341 482.132 372.142C491.432 375.211 502.107 378.499 503.535 379.495C505.781 381.123 506.392 382.179 504.857 385.547Z" fill="#FFD3B6"/>
<path d="M504.857 385.547C503.316 388.921 481.215 389.154 469.584 388.463C457.952 387.772 448.652 390.31 444.746 389.347C440.84 388.383 441.159 381.734 441.424 373.404C441.448 372.534 441.41 371.664 441.312 370.8C444.03 370.676 446.731 371.288 449.13 372.573C455.341 376.22 458.716 377.761 470.839 376.778C482.962 375.795 485.4 374.951 482.132 372.128C491.432 375.197 502.107 378.485 503.535 379.482C505.781 381.123 506.392 382.179 504.857 385.547Z" fill="url(#paint1_linear_11822_4160)"/>
<path d="M323.653 201.32C323.653 201.32 423.05 198.888 430.504 206.362C437.957 213.835 463.665 330.637 463.266 335.074C462.868 339.512 450.884 344.733 449.721 342.926C448.559 341.119 387.086 228.908 378.848 230.329C370.611 231.751 320.909 232.947 307.77 220.697C294.63 208.448 306.899 196.384 323.653 201.32Z" fill="#171547"/>
<path d="M455.042 352.498C454.65 356.936 438.661 358.059 434.715 355.986C430.769 353.913 424.738 338.655 409.054 318.215C393.37 297.774 380.164 267.29 375.055 263.597C369.947 259.903 328.608 278.517 280.447 276.358C232.287 274.199 241.301 216.306 241.301 216.306L276.309 211.889L313.363 207.239C313.363 207.239 399.946 217.422 403.553 225.586C406.583 232.442 441.172 314.315 451.894 342.893C453.966 348.287 455.109 351.788 455.042 352.498Z" fill="url(#paint2_linear_11822_4160)"/>
<path opacity="0.78" d="M455.042 352.499C454.65 356.936 438.661 358.059 434.715 355.986C430.769 353.914 424.738 338.655 409.054 318.215C393.37 297.775 380.164 267.29 375.055 263.597C369.947 259.903 328.608 278.517 280.447 276.358C232.287 274.199 241.301 216.306 241.301 216.306L276.309 211.889C274.376 222.438 273.399 242.127 291.588 246.671C316.684 252.968 376.909 237.005 385.976 243.316C395.044 249.627 425.608 331.992 432.477 338.934C436.137 342.627 444.706 343.172 451.914 342.866C453.966 348.287 455.109 351.788 455.042 352.499Z" fill="#171547"/>
<path d="M303.977 83.1895C303.977 83.1895 317.581 92.6556 322.962 104.068C328.343 115.481 334.76 140.65 334.76 140.65L303.399 144.53L303.977 83.1895Z" fill="#8586E1"/>
<path d="M325.958 203.997C324.463 208.474 293.335 218.977 276.8 220.119C271.367 220.491 265.714 221.175 260.559 221.72C250.003 222.849 241.547 223.427 241.414 219.727C241.215 214.207 240.809 187.137 236.292 169.062C235.229 164.791 234.299 157.915 233.429 149.897C230.712 123.93 229.204 86.0125 229.204 86.0125C229.204 86.0125 236.425 79.5225 245.811 78.6323C255.198 77.7422 257.915 77.0978 257.915 77.0978C257.915 77.0978 264.438 89.5798 274.469 91.9845C284.5 94.3892 284.347 89.9916 284.174 85.0095C284.03 81.9337 283.165 78.9348 281.65 76.2542C281.65 76.2542 301.698 80.5122 304.023 83.7473C306.348 86.9824 318.252 110.877 320.836 121.286C322.484 127.929 320.172 144.762 319.335 159.855C319.089 164.133 318.97 168.271 319.082 172.005C319.111 175.218 319.49 178.419 320.212 181.551C324.031 196.331 327.459 199.526 325.958 203.997Z" fill="#8586E1"/>
<path opacity="0.65" d="M319.308 159.848C319.062 164.126 318.943 168.265 319.056 171.998C302.728 179.398 259.815 199.327 259.11 204.721C258.745 207.564 259.522 214.599 260.552 221.72C249.996 222.849 241.54 223.427 241.407 219.727C241.208 214.207 240.803 187.137 236.286 169.062C235.223 164.791 237.176 124.86 236.332 116.836C261.628 113.142 302.289 143.62 319.308 159.848Z" fill="url(#paint3_linear_11822_4160)"/>
<path d="M236.498 81.7212C236.498 81.7212 221.18 86.1321 217.546 108.372C215.101 123.372 213.613 178.329 213.613 178.329C213.613 178.329 230.373 173.679 234.532 166.371C238.69 159.064 251.956 81.1698 236.498 81.7212Z" fill="#8586E1"/>
<path d="M346.591 109.967C346.591 109.967 350.576 118.058 345.674 132.493C340.771 146.928 343.781 161.914 358.01 160.991C372.239 160.067 371.521 151.691 377.487 154.428C383.452 157.165 377.932 166.989 370.904 169.759C363.875 172.53 346.611 170.623 339.018 157.052C331.425 143.48 340.081 128.075 341.582 122.994C343.083 117.912 341.914 106.938 346.591 109.967Z" fill="#F7C06C"/>
<path d="M336.155 136.186C320.212 148.077 254.115 152.521 252.62 145.865C251.345 140.179 250.282 132.034 266.378 119.26C269.115 117.081 272.356 114.77 276.176 112.312C276.176 112.312 289.156 111.853 300.708 106.413C312.26 100.972 317.94 95.7311 334.892 100.58C337.443 101.273 339.835 102.451 341.941 104.048C351.48 111.488 349.454 126.262 336.155 136.186Z" fill="#F7C06C"/>
<path d="M336.155 136.186C320.212 148.077 254.115 152.521 252.62 145.865C251.345 140.178 250.282 132.034 266.378 119.26L273.419 117.447C273.419 117.447 267.301 134.007 271.533 135.13C275.764 136.253 302.322 128.161 306.494 126.753C310.666 125.345 311.018 124.096 306.826 124.229C302.635 124.362 296.443 127.112 302.635 124.375C308.826 121.638 318.033 120.894 324.629 117.732C331.226 114.57 336.42 107.243 333.664 112.378C330.907 117.513 324.749 121.08 324.749 121.08C324.749 121.08 344.824 119.526 342.313 107.874C342.054 106.618 341.941 105.336 341.974 104.054C351.48 111.488 349.454 126.262 336.155 136.186Z" fill="#E46255"/>
<path d="M240.61 136.126C243.965 137.714 247.479 138.823 250.043 138.478C256.42 137.614 261.834 132.945 266.903 127.537L267.72 126.654C270.635 123.431 273.378 120.056 275.937 116.543C275.937 116.543 277.963 112.843 274.336 109.442L269.613 105.018C268.322 99.3979 265.206 94.364 260.751 90.7024C253.444 84.8699 247.127 84.7703 246.728 85.8531C246.33 86.9359 248.721 97.8435 248.721 97.8435C246.402 97.9679 244.167 98.7514 242.277 100.102C240.194 101.637 238.248 103.348 236.458 105.217C236.458 105.217 231.337 101.896 227.158 101.696C222.98 101.497 221.997 100.594 222.156 102.188C222.316 103.782 231.456 116.922 231.456 116.922C231.456 116.922 228.892 127.159 230.174 129.191C230.958 130.407 235.615 133.795 240.61 136.126Z" fill="#F7C06C"/>
<path d="M244.596 125.697C245.056 125.326 245.357 124.794 245.439 124.209C245.572 123.246 245.094 123.186 245.439 122.409C245.785 121.632 246.037 120.868 245.632 120.722C245.227 120.575 240.676 122.376 240.823 123.133C240.969 123.89 242.151 124.541 242.437 124.647C242.722 124.754 243.945 126.514 244.596 125.697Z" fill="#B5433E"/>
<path d="M244.828 125.485C244.828 125.485 248.396 127.916 250.907 127.624C252.464 127.432 253.97 126.945 255.344 126.189C254.787 126.843 254.099 127.373 253.324 127.744C252.549 128.116 251.706 128.322 250.847 128.348C248.952 128.247 247.099 127.752 245.406 126.893C245.406 126.893 244.895 129.915 242.982 131.463L241.062 133.011C241.062 133.011 244.921 127.843 244.257 125.903C243.593 123.963 244.828 125.485 244.828 125.485Z" fill="#B5433E"/>
<path d="M253.444 120.21C253.444 120.21 259.615 114.949 263.408 112.903C265.741 111.645 268.188 110.61 270.716 109.814C270.716 109.814 254.992 118.397 253.444 120.21ZM256.413 122.163C256.413 122.163 260.187 117.666 265.122 115.766C267.71 114.709 270.412 113.955 273.173 113.521C273.173 113.521 260.173 118.317 256.413 122.163ZM259.688 123.279C259.688 123.279 263.076 120.994 270.045 122.475L277.013 123.957C277.013 123.957 263.315 122.349 259.688 123.279ZM235.914 128.188C233.139 128.232 230.411 128.914 227.942 130.181C223.737 132.3 222.707 132.885 222.707 132.885C222.707 132.885 234.645 128.547 235.914 128.188ZM238.072 129.278C238.072 129.278 233.25 130.36 231.33 133.071L229.437 135.781C229.437 135.781 235.522 130.46 238.072 129.278ZM238.112 131.35C236.902 132.753 235.894 134.318 235.116 136C234.14 138.352 234.519 141.813 234.519 141.813C234.519 141.813 236.193 133.576 238.112 131.35Z" fill="#C5C5C5"/>
<path d="M250.694 99.2983C250.694 99.2983 253.69 99.8231 256.48 100.467C259.27 101.112 263.05 102.899 262.85 102.46C262.651 102.022 260.658 96.6279 256.759 92.8215C252.859 89.0151 249.359 87.0223 249.007 87.7331C248.655 88.4438 250.694 99.2983 250.694 99.2983ZM234.313 108.598C234.313 108.598 224.381 103.018 224.727 103.756C225.072 104.493 231.204 115.221 232.24 114.225C233.276 113.228 234.313 108.598 234.313 108.598Z" fill="#E46255"/>
<path d="M338.015 129.404C332.036 138.006 327.592 142.915 315.429 143.905C315.429 143.905 297.32 144.935 292.431 136.379C291.308 134.326 290.939 131.946 291.388 129.65C291.388 129.563 291.388 129.47 291.428 129.384C294.212 113.348 307.869 108.253 322.709 112.777C329.352 114.77 334.335 116.623 337.237 118.802C340.845 121.466 341.31 124.667 338.015 129.404Z" fill="#F7C06C"/>
<path d="M345.86 141.016C344.531 142.723 340.592 145.765 339.257 146.642C338.38 147.22 333.511 148.13 329.558 148.941C327.565 149.353 325.778 149.744 324.875 150.05L321.188 151.325L319.78 151.81L315.469 153.272L315.09 152.368L312.32 145.726L311.536 143.852L310.513 141.401C310.513 141.401 312.938 140.132 315.522 138.618L316.684 137.953C318.273 137.058 319.772 136.012 321.162 134.831C323.347 132.686 332.196 126.567 332.74 129.039C333.285 131.51 327.957 132.699 328.422 134.041C328.887 135.383 331.591 134.878 335.125 132.267C335.789 131.789 336.493 131.158 337.264 130.454C340.692 127.311 344.844 122.768 345.275 124.475C345.359 124.806 345.41 125.144 345.428 125.485C345.481 126.707 345.03 127.71 344.491 128.966C344.923 128.52 345.335 128.115 345.701 127.776C345.94 127.54 346.193 127.319 346.458 127.112C346.823 126.833 347.082 126.727 347.169 126.866C347.434 127.325 347.295 128.308 347.062 129.45C346.87 130.354 346.624 131.357 346.451 132.274C346.401 132.558 346.334 132.84 346.252 133.117C347.029 131.643 348.065 129.796 348.776 129.178C349.128 128.853 349.401 128.819 349.52 129.264C350.052 131.35 347.162 139.322 345.86 141.016Z" fill="#FFD3B6"/>
<path d="M322.145 158.812C322.211 160.712 298.795 171.546 276.648 180.873C260.04 187.881 244.098 194.039 239.447 194.916C228.473 196.969 215.028 191.375 213.374 176.548C213.371 176.533 213.371 176.517 213.374 176.502C211.74 161.635 244.011 152.196 244.011 152.196C244.011 152.196 272.649 145.021 293.68 140.491L296.025 139.986C306.029 137.867 313.881 136.465 315.289 136.95C315.786 137.139 316.228 137.447 316.578 137.847L316.691 137.973C317.707 139.142 318.584 141.122 319.315 143.414C319.508 143.992 319.68 144.589 319.846 145.201C320.072 145.991 320.265 146.802 320.451 147.619C320.73 148.867 320.982 150.116 321.195 151.319C321.328 152.069 321.447 152.807 321.554 153.504C321.66 154.202 321.74 154.8 321.819 155.391C322.012 156.932 322.118 158.148 322.145 158.812Z" fill="#8586E1"/>
<path d="M261.987 126.66C261.987 126.66 246.708 133.914 240.982 149.213C235.256 164.512 242.065 168.046 244.071 165.461C246.077 162.877 247.592 157.297 254.374 148.077C261.157 138.857 270.244 134.333 270.623 132.679C271.001 131.025 269.786 121.386 261.987 126.66Z" fill="#F7C06C"/>
<path opacity="0.65" d="M322.145 158.812C322.211 160.705 298.788 171.546 276.648 180.873C260.041 187.881 244.098 194.039 239.448 194.916C228.474 196.969 215.028 191.375 213.374 176.542C218.815 181.856 226.793 185.842 237.289 181.192C259.057 171.573 319.66 158.606 319.86 145.22C320.079 146.011 320.285 146.821 320.464 147.638C320.923 149.678 321.295 151.724 321.574 153.524C321.673 154.188 321.753 154.853 321.833 155.411C322.012 156.932 322.118 158.154 322.145 158.812Z" fill="url(#paint4_linear_11822_4160)"/>
<path d="M276.654 180.879C276.654 180.879 267.155 182.328 264.93 181.849C262.704 181.371 257.696 180.448 258.287 182.088C258.878 183.729 263.375 185.224 263.375 185.224C263.375 185.224 257.855 185.417 256.174 184.925C254.494 184.433 247.698 179.697 247.758 181.358C247.801 182.061 248.042 182.737 248.453 183.308C248.865 183.88 249.43 184.323 250.083 184.586C251.205 185.104 254.64 188.293 256.294 188.24C257.948 188.187 262.385 188.572 262.385 188.572C262.385 188.572 253.59 189.993 252.468 189.475C251.345 188.957 247.386 186.34 246.834 186.36C246.283 186.38 245.233 188.08 245.805 188.612C246.376 189.143 252.607 193.341 254.832 193.813C257.058 194.285 266.976 193.381 266.976 193.381C266.976 193.381 261.555 195.786 259.33 195.866C257.104 195.945 248.103 191.249 247.598 192.392C247.093 193.534 247.658 194.072 249.923 195.647C252.189 197.221 263.369 200.695 267.195 200.004C271.021 199.313 277.996 192.989 281.311 192.876C283.347 192.798 285.372 192.54 287.363 192.106C287.363 192.106 287.23 178.84 276.654 180.879Z" fill="#FFD3B6"/>
<path d="M332.448 168.949C327.698 175.2 287.635 198.729 284.779 196.065C281.922 193.401 275.797 183.67 276.648 180.873C298.788 171.573 322.211 160.705 322.145 158.812C322.145 158.148 322.012 156.932 321.813 155.397L328.017 153.079C329.889 152.488 331.791 152 333.717 151.618C334.481 154.6 336.387 163.754 332.448 168.949Z" fill="#8586E1"/>
<path opacity="0.65" d="M332.448 168.949C327.698 175.2 287.635 198.729 284.779 196.065C281.922 193.401 275.797 183.67 276.648 180.873C298.788 171.573 322.211 160.705 322.145 158.812C322.145 158.148 322.012 156.932 321.813 155.397L328.017 153.079C329.889 152.488 331.791 152 333.717 151.618C334.481 154.6 336.387 163.754 332.448 168.949Z" fill="url(#paint5_linear_11822_4160)"/>
<path d="M337.762 136.432L338.34 135.967C337.882 136.405 337.762 136.432 337.762 136.432ZM345.687 127.77C343.653 130.832 341.193 133.587 338.38 135.954C339.229 135.096 340.034 134.196 340.791 133.257C342.452 131.264 344.339 127.71 345.441 125.478C345.495 126.7 345.043 127.703 344.505 128.959C344.923 128.514 345.335 128.108 345.687 127.77ZM348.783 129.198C345.627 135.741 342.671 139.215 341.974 139.979C342.319 139.547 343.336 138.066 345.495 133.429C346.039 132.254 346.571 130.898 347.069 129.444C346.876 130.347 346.63 131.35 346.458 132.267C346.408 132.552 346.341 132.833 346.258 133.11C347.016 131.662 348.072 129.842 348.783 129.198Z" fill="#B25D67"/>
<path opacity="0.53" d="M338.015 129.404L337.264 130.473C336.493 131.178 335.769 131.802 335.125 132.287C331.591 134.898 328.887 135.409 328.422 134.061C327.957 132.712 333.285 131.523 332.74 129.058C332.195 126.594 323.347 132.705 321.162 134.851C319.772 136.032 318.273 137.078 316.684 137.973L316.571 137.847C316.221 137.447 315.779 137.14 315.283 136.95C313.848 136.465 305.983 137.867 296.018 139.986C294.572 139.082 293.362 137.845 292.491 136.379C291.368 134.326 290.999 131.946 291.448 129.65C293.842 131.449 296.61 132.685 299.547 133.267C302.485 133.849 305.515 133.761 308.414 133.011C317.535 130.719 329.126 121.227 337.304 118.789C340.844 121.466 341.309 124.668 338.015 129.404Z" fill="#E46255"/>
<path d="M232.758 119.393C233.189 120.002 233.785 120.474 234.476 120.753C235.168 121.032 235.925 121.107 236.657 120.967C238.378 120.695 239.315 118.842 239.507 117.274C239.58 116.61 238.524 116.61 238.444 117.274C238.305 118.51 237.521 119.885 236.146 119.931C235.674 119.982 235.198 119.909 234.763 119.719C234.329 119.529 233.951 119.229 233.668 118.848C233.598 118.728 233.482 118.64 233.347 118.604C233.212 118.569 233.068 118.589 232.947 118.659C232.827 118.73 232.739 118.845 232.704 118.98C232.668 119.115 232.688 119.259 232.758 119.38V119.393ZM245.951 114.418C248.429 114.883 250.249 115.162 252.594 114.072C254.314 113.275 255.915 112.079 255.676 109.98C255.603 109.316 254.547 109.316 254.62 109.98C254.832 111.973 252.873 112.91 251.298 113.474C249.538 114.139 247.977 113.727 246.223 113.395C245.559 113.268 245.273 114.291 245.944 114.418H245.951Z" fill="#B5433E"/>
<path d="M344.359 264.646L319.215 328.072C318.027 331.067 315.967 333.635 313.302 335.445C310.637 337.255 307.49 338.222 304.269 338.223H116.607C112.391 338.216 108.347 336.553 105.346 333.592C102.345 330.631 100.628 326.608 100.565 322.393L97.6021 127.225C97.5704 125.093 97.9627 122.977 98.7563 120.998C99.5499 119.02 100.729 117.219 102.225 115.7C103.721 114.182 105.503 112.975 107.47 112.152C109.436 111.328 111.546 110.904 113.678 110.903H190.098C193.806 110.904 197.401 112.187 200.273 114.534C203.144 116.882 205.116 120.149 205.854 123.784L227.324 229.764C228.06 233.4 230.032 236.669 232.904 239.017C235.776 241.365 239.372 242.647 243.081 242.645H329.399C332.023 242.642 334.608 243.282 336.928 244.509C339.248 245.736 341.233 247.511 342.709 249.682C344.184 251.852 345.106 254.35 345.394 256.959C345.681 259.567 345.326 262.207 344.359 264.646V264.646Z" fill="#C5C5C5"/>
<path d="M308.859 264.646L283.716 328.072C282.529 331.066 280.47 333.634 277.806 335.444C275.142 337.254 271.996 338.222 268.776 338.223H116.607C112.391 338.216 108.347 336.553 105.346 333.592C102.345 330.631 100.628 326.608 100.565 322.393L97.6021 127.225C97.5704 125.093 97.9627 122.977 98.7563 120.998C99.5499 119.02 100.729 117.219 102.225 115.7C103.721 114.182 105.503 112.975 107.47 112.152C109.436 111.328 111.546 110.904 113.678 110.903H154.638C158.346 110.903 161.941 112.186 164.811 114.533C167.682 116.881 169.652 120.149 170.388 123.784L191.838 229.764C192.573 233.4 194.543 236.669 197.414 239.017C200.285 241.364 203.88 242.646 207.588 242.645H293.913C296.536 242.645 299.119 243.286 301.438 244.514C303.756 245.741 305.739 247.517 307.213 249.687C308.687 251.857 309.607 254.355 309.894 256.962C310.181 259.57 309.826 262.208 308.859 264.646Z" fill="#E1E6ED"/>
<path d="M257.523 338.223L266.285 389.207C266.302 389.307 266.354 389.398 266.432 389.464C266.51 389.53 266.608 389.566 266.71 389.566H273.034C273.146 389.566 273.253 389.522 273.332 389.444C273.412 389.365 273.457 389.259 273.459 389.147L274.861 338.223H257.523Z" fill="#5D2168"/>
<path d="M146.992 338.223L138.23 389.207C138.213 389.307 138.161 389.398 138.083 389.464C138.005 389.53 137.907 389.566 137.805 389.566H131.481C131.369 389.566 131.262 389.522 131.182 389.444C131.103 389.365 131.057 389.259 131.056 389.147L129.654 338.223H146.992Z" fill="#171547"/>
<path d="M116.229 298.346C115.332 293.8 115.577 289.103 116.939 284.675C119.218 277.281 122.812 273.123 122.652 274.83C122.493 276.537 126.233 289.703 125.974 290.627C125.715 291.55 116.229 298.346 116.229 298.346Z" fill="#232544"/>
<path d="M119.437 292.334C119.437 292.334 119.205 286.09 120.58 281.705C121.955 277.321 121.384 276.431 121.955 277.314C122.526 278.198 124.579 287.478 124.287 288.747C123.994 290.016 119.437 292.334 119.437 292.334Z" fill="#E2567B"/>
<path d="M107.639 301.408C105.502 297.008 104.648 292.095 105.175 287.232C106.065 279.167 109.3 274.145 109.526 275.939C109.752 277.733 117.338 290.447 117.225 291.45C117.112 292.453 107.639 301.408 107.639 301.408Z" fill="#232544"/>
<path d="M109.971 294.579C109.971 294.579 108.184 288.222 108.742 283.419C109.3 278.616 108.41 277.846 109.3 278.623C110.19 279.4 114.847 288.501 114.807 289.863C114.767 291.224 109.971 294.579 109.971 294.579Z" fill="#E2567B"/>
<path d="M81.3933 351.143C81.3933 351.143 102.817 337.678 114.721 346.307C126.625 354.936 107.952 383.508 110.403 384.836C112.854 386.165 121.789 386.165 122.234 388.822C122.679 391.479 92.4936 396.514 87.6908 392.887C82.888 389.26 88.9463 389.267 87.6111 385.474C86.2759 381.681 77.3412 386.802 74.89 372.527C72.4387 358.251 81.3933 351.143 81.3933 351.143Z" fill="#232544"/>
<path d="M79.7326 347.025C79.7326 347.025 69.4694 351.044 66.7856 341.671C64.1019 332.298 52.7293 317.756 41.5427 318.235C30.3561 318.713 21.0095 332.251 13.8684 333.055C6.72734 333.859 6.50812 322.254 2.71503 324.931C-1.07806 327.608 -0.606414 343.006 10.7463 342.342C22.099 341.677 32.1696 323.144 46.6776 329.169C61.1857 335.194 53.8187 351.263 66.9849 355.508C80.1511 359.753 86.8737 349.702 79.7326 347.025ZM152.114 318.235C152.114 318.235 150.121 355.621 152.114 369.385C154.106 383.149 154.319 386.351 157.86 388.324C161.4 390.297 163.34 391.765 162.809 392.974C162.277 394.183 150.785 394.967 148.799 394.203C146.812 393.439 145.922 390.27 146.367 386.822C146.812 383.375 139.06 367.644 136.861 348.706C134.663 329.767 152.114 318.235 152.114 318.235Z" fill="#232544"/>
<path d="M113.651 325.821C113.651 325.821 88.4082 327.608 79.5068 338.994C70.6053 350.379 71.9206 386.523 96.579 385.188C121.237 383.853 143.112 357.952 148.247 346.354C153.382 334.755 154.272 329.84 156.053 320.912C157.833 311.984 159.135 312.655 163.061 306.855C166.987 301.056 175.251 281.858 179.044 278.736C182.837 275.614 192.655 273.601 191.539 271.595C190.423 269.589 187.965 268.021 183.953 268.692C179.941 269.363 166.542 275.162 164.31 279.626C162.078 284.09 154.272 303.952 150.924 306.862C147.576 309.772 135.3 322.26 127.933 323.376C120.566 324.492 113.651 325.821 113.651 325.821Z" fill="#323460"/>
<path d="M90.6668 352.379C90.6668 352.379 112.09 338.914 123.994 347.543C135.898 356.172 117.225 384.743 119.676 386.072C122.128 387.4 131.062 387.4 131.507 390.057C131.952 392.715 101.767 397.75 96.9975 394.123C92.2279 390.496 98.253 390.502 96.9178 386.709C95.5826 382.916 86.6479 388.038 84.1967 373.762C81.7455 359.487 90.6668 352.379 90.6668 352.379ZM107.639 294.194C107.639 294.194 119.975 284.462 129.501 288.036C139.027 291.61 144.534 293.158 145.497 296.619C146.46 300.079 147.796 310.502 142.441 316.747C137.087 322.991 122.061 327.375 116.627 325.269C111.193 323.164 98.4058 316.394 100.784 306.53C103.162 296.665 107.639 294.194 107.639 294.194Z" fill="#232544"/>
<path d="M142.182 294.878C142.182 294.878 144.674 293.018 145.305 293.39C145.936 293.762 146.633 296.665 146.049 297.336C145.464 298.007 142.853 297.595 142.182 297.482C141.511 297.369 139.319 296.758 142.182 294.878Z" fill="#E2567B"/>
<path d="M144.448 297.708C144.448 297.708 145.398 300.159 144.062 302.225C142.727 304.291 139.539 308.204 138.535 308.25L137.532 308.303C137.532 308.303 138.861 309.532 141.385 307.134C143.91 304.736 145.418 300.764 145.437 299.654C145.449 298.987 145.322 298.324 145.065 297.708H144.448Z" fill="#E2567B"/>
<g opacity="0.51">
<path opacity="0.51" d="M136.264 300.597C133.161 300.192 129.82 301.023 126.837 301.833C126.749 301.857 126.674 301.915 126.629 301.994C126.583 302.073 126.571 302.167 126.595 302.255C126.619 302.343 126.676 302.418 126.756 302.463C126.835 302.509 126.929 302.521 127.017 302.497C129.966 301.687 133.195 300.876 136.264 301.282C136.689 301.335 136.689 300.671 136.264 300.617V300.597Z" fill="#C5C5C5"/>
<path opacity="0.51" d="M135.865 302.61C132.617 303.222 128.438 304.763 126.399 307.513C126.14 307.858 126.724 308.177 126.977 307.852C128.883 305.281 133.015 303.826 136.044 303.255C136.469 303.175 136.29 302.531 135.865 302.591V302.61Z" fill="#C5C5C5"/>
<path opacity="0.51" d="M136.137 304.351C134.283 307.035 133.486 310.309 133.899 313.545C133.952 313.963 134.623 313.97 134.563 313.545C134.151 310.429 134.916 307.271 136.709 304.69C136.954 304.331 136.37 304.025 136.131 304.351H136.137Z" fill="#C5C5C5"/>
</g>
<path d="M131.315 294.513C131.315 294.808 131.227 295.097 131.063 295.343C130.899 295.589 130.665 295.78 130.392 295.894C130.119 296.007 129.818 296.036 129.528 295.979C129.239 295.921 128.972 295.779 128.763 295.57C128.554 295.361 128.412 295.094 128.354 294.804C128.296 294.514 128.326 294.214 128.439 293.941C128.552 293.668 128.744 293.434 128.99 293.27C129.235 293.106 129.524 293.018 129.82 293.018C130.017 293.017 130.211 293.055 130.393 293.13C130.575 293.205 130.74 293.315 130.879 293.454C131.018 293.593 131.128 293.758 131.203 293.94C131.278 294.121 131.316 294.316 131.315 294.513V294.513Z" fill="#151728"/>
<defs>
<linearGradient id="paint0_linear_11822_4160" x1="451.615" y1="362.197" x2="517.14" y2="362.197" gradientUnits="userSpaceOnUse">
<stop stop-color="#5D2168"/>
<stop offset="1" stop-color="#223148"/>
</linearGradient>
<linearGradient id="paint1_linear_11822_4160" x1="441.278" y1="380.199" x2="505.714" y2="380.199" gradientUnits="userSpaceOnUse">
<stop stop-color="#5D2168"/>
<stop offset="1" stop-color="#223148"/>
</linearGradient>
<linearGradient id="paint2_linear_11822_4160" x1="240.63" y1="282.097" x2="455.049" y2="282.097" gradientUnits="userSpaceOnUse">
<stop stop-color="#5D2168"/>
<stop offset="1" stop-color="#223148"/>
</linearGradient>
<linearGradient id="paint3_linear_11822_4160" x1="235.96" y1="169.547" x2="319.308" y2="169.547" gradientUnits="userSpaceOnUse">
<stop offset="0.35" stop-color="#442EA4"/>
<stop offset="1" stop-color="#639090"/>
</linearGradient>
<linearGradient id="paint4_linear_11822_4160" x1="213.348" y1="170.264" x2="322.145" y2="170.264" gradientUnits="userSpaceOnUse">
<stop offset="0.35" stop-color="#442EA4"/>
<stop offset="1" stop-color="#639090"/>
</linearGradient>
<linearGradient id="paint5_linear_11822_4160" x1="276.568" y1="173.944" x2="334.859" y2="173.944" gradientUnits="userSpaceOnUse">
<stop offset="0.35" stop-color="#442EA4"/>
<stop offset="1" stop-color="#639090"/>
</linearGradient>
</defs>
</svg>
