<svg width="592" height="496" viewBox="0 0 592 496" fill="none" xmlns="http://www.w3.org/2000/svg">
<path d="M138.447 447.435C135.695 445.47 135.672 441.108 137.657 438.379C139.641 435.649 143.012 434.276 146.311 433.514C151.65 432.282 156.768 432.298 162.115 432.551C157.591 430.239 153.151 427.763 148.804 425.157C145.93 423.433 143.091 421.645 140.29 419.794C135.828 425.955 129.492 430.746 122.339 433.338C119.628 434.32 116.38 434.923 114.038 433.241C111.301 431.276 111.278 426.915 113.252 424.184C115.226 421.454 118.577 420.082 121.858 419.319C127.368 418.04 132.644 418.106 138.182 418.384C129.618 412.586 121.456 406.182 113.912 399.117C108.562 404.364 101.646 408.007 94.2821 409.41C91.4496 409.95 88.1464 410.03 86.1 407.999C83.7102 405.625 84.3795 401.315 86.7615 398.933C89.1426 396.55 92.6698 395.726 96.0305 395.494C101.476 395.117 106.507 395.943 111.728 397.039C103.893 389.467 96.4601 380.896 91.9437 370.945C91.8496 370.738 91.7651 370.526 91.6727 370.318C85.591 374.839 78.1427 377.508 70.5697 377.849C67.6892 377.979 64.4078 377.588 62.6734 375.285C60.6462 372.594 61.9248 368.423 64.6214 366.406C67.3188 364.387 70.9262 364.075 74.286 364.325C80.2056 364.765 85.4376 366.543 90.9197 368.581C86.0154 356.944 83.236 344.353 77.9387 332.904C71.8004 337.567 64.2292 340.325 56.5264 340.673C53.6459 340.804 50.3645 340.411 48.6301 338.108C46.6028 335.417 47.8814 331.247 50.578 329.229C53.2755 327.21 56.8837 326.898 60.2427 327.148C66.3218 327.601 71.6749 329.463 77.3191 331.57C75.9446 328.732 74.4037 325.97 72.617 323.319C68.9983 317.952 64.2658 313.412 58.8726 309.735C54.1226 316.031 47.3838 320.808 39.8614 323.183C37.1116 324.05 33.8407 324.516 31.5703 322.738C28.919 320.66 29.0793 316.301 31.1659 313.656C33.2524 311.011 36.6593 309.781 39.9686 309.158C46.0398 308.013 51.7633 308.461 57.8503 309.055C49.0249 303.303 38.554 299.817 28.3106 298.796C23.3367 303.94 16.9029 307.67 9.95307 309.385C7.15276 310.075 3.85916 310.333 1.70729 308.414C-0.807146 306.172 -0.369615 301.831 1.88161 299.325C4.13197 296.818 7.61034 295.806 10.9536 295.395C16.2875 294.738 21.2824 295.267 26.4656 296.06C26.646 295.986 26.8534 295.947 27.0913 295.966C35.8287 296.64 44.3891 299.113 52.2549 302.954C53.9893 303.801 55.701 304.715 57.3787 305.693C53.1351 300.174 50.4107 293.49 49.642 286.568C49.3238 283.702 49.4999 280.401 51.6849 278.52C54.2377 276.321 58.4821 277.323 60.6723 279.883C62.8634 282.443 63.4099 286.023 63.3803 289.391C63.3245 295.675 61.7235 301.287 59.9246 307.257C63.3506 309.463 66.5676 311.985 69.3783 314.928C73.6341 319.385 76.8563 324.473 79.4988 329.888C78.0799 322.85 78.6682 315.409 81.221 308.696C82.246 306 83.9089 303.145 86.7118 302.467C89.9862 301.676 93.3051 304.506 94.0869 307.783C94.8678 311.06 93.72 314.495 92.1564 317.479C89.1591 323.196 85.0332 327.54 80.5717 332.167C84.6715 341.223 87.3629 351.056 90.6504 360.326C91.6858 363.244 92.7944 366.11 94.0529 368.903C92.1276 361.346 92.5704 353.202 95.3332 345.908C96.3547 343.212 98.0141 340.354 100.815 339.673C104.089 338.878 107.412 341.703 108.196 344.978C108.982 348.255 107.839 351.691 106.279 354.677C103.222 360.529 98.9815 364.945 94.4094 369.697C95.7829 372.658 97.343 375.529 99.1977 378.271C102.591 383.287 106.55 387.91 110.761 392.254C111.88 393.41 113.021 394.544 114.178 395.663C111.787 389.009 111.264 381.684 112.73 374.765C113.328 371.943 114.531 368.867 117.196 367.766C120.31 366.48 124.026 368.764 125.302 371.882C126.578 374.999 125.974 378.571 124.888 381.76C122.881 387.652 119.643 392.443 116.1 397.492C123.47 404.393 131.506 410.612 139.877 416.259C135.752 410.139 133.429 402.813 133.318 395.432C133.276 392.549 133.766 389.28 136.121 387.617C138.872 385.672 143.002 387.075 144.937 389.833C146.873 392.59 147.076 396.206 146.724 399.557C146.057 405.915 143.863 411.429 141.453 417.311C142.569 418.051 143.689 418.784 144.814 419.505C150.993 423.458 157.375 427.145 163.939 430.467C160.014 424.445 157.808 417.307 157.702 410.117C157.659 407.234 158.15 403.966 160.504 402.301C163.254 400.357 167.385 401.761 169.32 404.518C171.256 407.275 171.458 410.891 171.107 414.242C170.458 420.425 168.366 425.81 166.036 431.512C173.564 435.208 181.33 438.412 189.31 440.961C190.972 441.493 190.034 444.033 188.374 443.503C180.317 440.929 172.482 437.677 164.882 433.94C160.393 440.124 154.008 444.934 146.794 447.532C144.071 448.514 140.803 449.116 138.447 447.435Z" fill="url(#paint0_linear_11865_5440)"/>
<path d="M173.62 107.775L173.39 108.512C170.157 103.714 166.075 99.5369 162.818 94.7553C161.008 92.1085 159.453 89.2682 158.518 86.1906C157.542 83.0075 157.199 79.6857 156.476 76.4442C155.811 73.4791 154.731 70.7085 152.971 68.2222C151.427 66.0542 149.526 64.1626 147.567 62.3783C143.708 58.8795 139.442 55.7104 136.363 51.4546C134.66 49.0983 133.496 46.4654 132.753 43.6626C131.906 40.4777 131.532 37.1978 130.997 33.9554C130.489 30.8909 129.807 27.87 128.552 25.0209C127.423 22.4622 125.923 20.0762 124.152 17.9196C120.529 13.4998 115.839 10.0185 110.755 7.45893C99.1728 1.6308 85.9108 0.949704 73.1454 0.607847C73.1698 0.401164 73.2011 0.200579 73.2438 0C74.0429 0.0183137 74.8358 0.0436067 75.6287 0.068025C89.0442 0.510171 103.107 1.74765 114.772 9.01385C119.539 11.9789 123.807 15.8562 126.858 20.6004C128.384 22.9628 129.581 25.5355 130.375 28.2363C131.308 31.4055 131.719 34.6932 132.235 37.9469C132.75 41.2068 133.367 44.5068 134.757 47.525C135.907 50.0288 137.578 52.2256 139.476 54.2087C143.236 58.1566 147.772 61.2848 151.424 65.3452C153.188 67.3004 154.726 69.4797 155.731 71.9242C157.014 75.0314 157.466 78.3689 158.078 81.6435C158.712 85.029 159.681 88.2304 161.356 91.2574C163.004 94.2347 165.087 96.939 167.215 99.5709C169.378 102.248 171.651 104.921 173.62 107.775Z" fill="white"/>
<path d="M367.174 95.5822C366.668 93.8027 364.978 92.515 363.17 92.208C361.362 91.901 359.486 92.4673 357.938 93.4585C356.39 94.4496 355.133 95.8406 353.998 97.2939C352.12 99.6995 350.495 102.427 349.838 105.391C347.524 101.551 345.506 97.5281 343.801 93.37C343.646 92.9919 343.497 92.6113 343.347 92.2306C346.364 91.2177 349.379 90.204 352.395 89.1911C354.407 88.5156 356.473 87.8098 358.089 86.424C359.707 85.0392 360.788 82.7941 360.203 80.7354C359.697 78.956 358.007 77.6682 356.2 77.3613C354.392 77.0543 352.515 77.6206 350.967 78.6117C349.42 79.6029 348.163 80.9938 347.028 82.4472C345.09 84.929 343.421 87.7525 342.807 90.824C341.056 86.1526 339.693 81.3346 338.74 76.4343C341.756 75.2896 344.772 74.1449 347.789 73.0003C349.774 72.2467 351.812 71.4611 353.375 70.0146C354.938 68.5673 355.934 66.2824 355.271 64.248C354.697 62.4894 352.961 61.2675 351.142 61.0317C349.323 60.7949 347.47 61.4332 345.961 62.4842C344.452 63.5343 343.249 64.9729 342.17 66.4697C340.443 68.8656 338.961 71.5539 338.373 74.4311C337.764 70.8714 337.366 67.2744 337.195 63.6644C337.145 62.596 337.121 61.5268 337.111 60.4576C340.175 59.1768 343.239 57.8969 346.303 56.6161C348.262 55.7974 350.273 54.945 351.789 53.4466C353.304 51.949 354.224 49.6319 353.496 47.6201C352.866 45.8814 351.089 44.7185 349.265 44.5425C347.44 44.3665 345.608 45.0654 344.134 46.1658C342.66 47.2663 341.504 48.743 340.475 50.2745C339.004 52.4632 337.739 54.8774 337.132 57.4286C337.225 53.8021 337.549 50.1834 338.105 46.596C340.142 44.0638 342.18 41.5308 344.217 38.9987C345.554 37.3372 346.921 35.6202 347.547 33.5737C348.174 31.5272 347.892 29.0471 346.303 27.6276C344.93 26.4005 342.82 26.2314 341.132 26.9538C339.444 27.6761 338.163 29.172 337.384 30.8482C336.606 32.5244 336.286 34.3793 336.102 36.2221C335.764 39.617 335.899 43.1793 337.286 46.2708C337.283 46.282 337.279 46.2924 337.277 46.3046C336.679 50.121 336.343 53.9755 336.264 57.8353C335.39 55.2286 333.784 52.8569 331.985 50.7566C330.786 49.3561 329.467 48.025 327.875 47.105C326.284 46.1858 324.384 45.7054 322.592 46.0947C320.8 46.4841 319.17 47.8473 318.746 49.6484C318.255 51.7322 319.438 53.9252 321.115 55.2347C322.794 56.5441 324.89 57.1554 326.931 57.7382C330.038 58.6261 333.146 59.5141 336.254 60.403C336.296 65.1282 336.721 69.8499 337.515 74.5092C336.023 72.0334 333.779 70.0181 331.401 68.3505C329.894 67.2943 328.29 66.3353 326.522 65.8436C324.755 65.3519 322.796 65.3632 321.156 66.1896C319.515 67.016 318.272 68.7451 318.304 70.5965C318.34 72.7384 320.024 74.5664 321.972 75.4145C323.919 76.2626 326.1 76.3293 328.219 76.3822C331.446 76.4638 334.673 76.5444 337.9 76.6259C337.929 76.7716 337.955 76.9181 337.984 77.0647C338.942 81.8454 340.289 86.5446 341.996 91.105C339.987 88.5685 337.084 86.8255 334.105 85.543C332.418 84.8172 330.654 84.2058 328.826 84.0853C326.996 83.9647 325.081 84.3775 323.64 85.5213C322.2 86.666 321.329 88.6145 321.73 90.4208C322.195 92.5107 324.211 93.9562 326.288 94.3889C328.365 94.8208 330.513 94.4401 332.6 94.0586C335.879 93.4593 339.157 92.861 342.436 92.2618C342.461 92.3251 342.486 92.3884 342.512 92.4517L342.458 92.5297C342.482 92.5211 342.507 92.5124 342.532 92.5046C344.267 96.9133 346.345 101.184 348.754 105.261C346.206 103.883 343.244 103.273 340.337 103.032C338.475 102.878 336.575 102.859 334.767 103.335C332.96 103.812 331.237 104.831 330.208 106.404C329.179 107.976 328.955 110.14 329.918 111.755C331.033 113.623 333.442 114.366 335.588 114.111C337.735 113.855 339.692 112.791 341.589 111.746C344.284 110.262 346.978 108.779 349.672 107.296C349.761 107.266 349.85 107.237 349.937 107.207C352.709 111.626 355.874 115.786 359.402 119.617C359.774 120.022 360.472 119.512 360.095 119.102C356.626 115.336 353.513 111.254 350.78 106.924C353.641 105.963 356.502 105.002 359.363 104.041C361.375 103.365 363.441 102.659 365.058 101.273C366.678 99.885 367.759 97.6408 367.174 95.5822Z" fill="url(#paint1_linear_11865_5440)"/>
<g filter="url(#filter0_d_11865_5440)">
<path d="M559.499 107.289H135.785C129.157 107.289 123.785 112.661 123.785 119.289V398.74C123.785 405.367 129.157 410.74 135.785 410.74H559.499C566.126 410.74 571.499 405.367 571.499 398.74V119.289C571.499 112.661 566.126 107.289 559.499 107.289Z" fill="url(#paint2_linear_11865_5440)"/>
<path d="M509.606 120.081H186.388C186.388 146.44 165.042 167.808 138.708 167.808V350.931C165.042 350.931 186.388 372.299 186.388 398.658H509.606C509.606 372.299 530.953 350.931 557.286 350.931V167.808C530.952 167.808 509.606 146.44 509.606 120.081Z" fill="white"/>
<path d="M504.296 390.841H191.698C191.442 390.841 191.225 390.653 191.188 390.4C187.84 367.324 169.364 348.873 146.257 345.53C146.003 345.493 145.815 345.277 145.815 345.021V173.008C145.815 172.753 146.003 172.536 146.257 172.499C169.364 169.156 187.841 150.704 191.188 127.628C191.225 127.375 191.442 127.187 191.698 127.187H504.296C504.552 127.187 504.769 127.375 504.806 127.628C508.154 150.704 526.63 169.156 549.737 172.499C549.991 172.536 550.179 172.752 550.179 173.008V345.022C550.179 345.277 549.991 345.494 549.737 345.531C526.63 348.874 508.153 367.325 504.806 390.401C504.77 390.653 504.552 390.841 504.296 390.841ZM192.142 389.812H503.852C507.411 366.64 525.944 348.132 549.149 344.578V173.452C525.945 169.897 507.411 151.389 503.852 128.217H192.142C188.583 151.389 170.05 169.897 146.845 173.452V344.578C170.05 348.132 188.583 366.64 192.142 389.812Z" fill="#9390C2"/>
<path d="M280.557 227.507H186.715C185.713 227.507 184.901 226.957 184.901 226.277C184.901 225.598 185.713 225.048 186.715 225.048H280.557C281.558 225.048 282.371 225.598 282.371 226.277C282.371 226.957 281.558 227.507 280.557 227.507ZM495.467 227.507H290.6C289.598 227.507 288.786 226.957 288.786 226.277C288.786 225.598 289.598 225.048 290.6 225.048H495.467C496.469 225.048 497.281 225.598 497.281 226.277C497.281 226.957 496.469 227.507 495.467 227.507ZM522.306 227.507H507.257C506.386 227.507 505.678 227.028 505.678 226.437C505.678 225.846 506.386 225.366 507.257 225.366H522.305C523.177 225.366 523.884 225.846 523.884 226.437C523.885 227.028 523.177 227.507 522.306 227.507ZM522.07 240.216H186.715C185.713 240.216 184.901 239.665 184.901 238.987C184.901 238.307 185.713 237.757 186.715 237.757H522.071C523.073 237.757 523.885 238.307 523.885 238.987C523.885 239.665 523.073 240.216 522.07 240.216ZM280.557 264.266H186.715C185.713 264.266 184.901 263.715 184.901 263.037C184.901 262.357 185.713 261.807 186.715 261.807H280.557C281.558 261.807 282.371 262.358 282.371 263.038C282.371 263.715 281.558 264.266 280.557 264.266ZM495.467 264.266H290.6C289.598 264.266 288.786 263.715 288.786 263.036C288.786 262.357 289.598 261.807 290.6 261.807H495.467C496.469 261.807 497.281 262.357 497.281 263.036C497.281 263.715 496.469 264.266 495.467 264.266ZM311.225 251.558H186.715C185.713 251.558 184.901 251.007 184.901 250.328C184.901 249.649 185.713 249.098 186.715 249.098H311.225C312.227 249.098 313.039 249.649 313.039 250.328C313.039 251.007 312.227 251.558 311.225 251.558ZM522.07 251.558H329.666C328.664 251.558 327.852 251.007 327.852 250.328C327.852 249.649 328.664 249.098 329.666 249.098H522.07C523.072 249.098 523.884 249.649 523.884 250.328C523.885 251.007 523.073 251.558 522.07 251.558ZM522.306 264.266H507.257C506.386 264.266 505.678 263.787 505.678 263.196C505.678 262.605 506.386 262.125 507.257 262.125H522.305C523.177 262.125 523.884 262.605 523.884 263.196C523.885 263.786 523.177 264.266 522.306 264.266ZM280.557 279.398H186.715C185.713 279.398 184.901 278.848 184.901 278.168C184.901 277.489 185.713 276.939 186.715 276.939H280.557C281.558 276.939 282.371 277.489 282.371 278.168C282.371 278.848 281.558 279.398 280.557 279.398ZM495.467 279.398H290.6C289.598 279.398 288.786 278.848 288.786 278.168C288.786 277.489 289.598 276.939 290.6 276.939H495.467C496.469 276.939 497.281 277.489 497.281 278.168C497.281 278.848 496.469 279.398 495.467 279.398ZM522.306 279.398H507.257C506.386 279.398 505.678 278.919 505.678 278.328C505.678 277.737 506.386 277.257 507.257 277.257H522.305C523.177 277.257 523.884 277.737 523.884 278.328C523.885 278.919 523.177 279.398 522.306 279.398ZM522.07 292.106H186.715C185.713 292.106 184.901 291.555 184.901 290.877C184.901 290.197 185.713 289.647 186.715 289.647H522.071C523.073 289.647 523.885 290.197 523.885 290.877C523.885 291.555 523.073 292.106 522.07 292.106ZM280.557 316.156H186.715C185.713 316.156 184.901 315.606 184.901 314.927C184.901 314.248 185.713 313.697 186.715 313.697H280.557C281.558 313.697 282.371 314.248 282.371 314.928C282.371 315.606 281.558 316.156 280.557 316.156ZM495.467 316.156H290.6C289.598 316.156 288.786 315.606 288.786 314.926C288.786 314.247 289.598 313.697 290.6 313.697H495.467C496.469 313.697 497.281 314.247 497.281 314.926C497.281 315.606 496.469 316.156 495.467 316.156ZM311.225 303.448H186.715C185.713 303.448 184.901 302.898 184.901 302.218C184.901 301.539 185.713 300.988 186.715 300.988H311.225C312.227 300.988 313.039 301.539 313.039 302.218C313.039 302.898 312.227 303.448 311.225 303.448ZM522.07 303.448H329.666C328.664 303.448 327.852 302.898 327.852 302.218C327.852 301.539 328.664 300.988 329.666 300.988H522.07C523.072 300.988 523.884 301.539 523.884 302.218C523.885 302.898 523.073 303.448 522.07 303.448ZM522.306 316.156H507.257C506.386 316.156 505.678 315.677 505.678 315.086C505.678 314.495 506.386 314.015 507.257 314.015H522.305C523.177 314.015 523.884 314.495 523.884 315.086C523.885 315.677 523.177 316.156 522.306 316.156ZM394.916 343.513H481.238C481.807 343.513 482.267 343.052 482.267 342.483V342.192C482.267 341.624 481.807 341.163 481.239 341.163H394.916C394.347 341.163 393.887 341.624 393.887 342.192V342.483C393.887 343.052 394.348 343.513 394.916 343.513ZM395.111 356.73H447.392C447.96 356.73 448.421 356.268 448.421 355.7V355.409C448.421 354.84 447.96 354.38 447.392 354.38H395.111C394.542 354.38 394.081 354.841 394.081 355.41V355.701C394.081 356.268 394.542 356.73 395.111 356.73ZM458.322 356.73H475.898C476.466 356.73 476.927 356.268 476.927 355.699V355.409C476.927 354.839 476.466 354.379 475.899 354.379H458.322C457.753 354.379 457.293 354.84 457.293 355.409V355.699C457.292 356.268 457.753 356.73 458.322 356.73ZM276.735 188.749H212.06C211.37 188.749 210.811 188.173 210.811 187.461C210.811 186.749 211.37 186.172 212.06 186.172H276.735C277.426 186.172 277.985 186.749 277.985 187.461C277.985 188.173 277.426 188.749 276.735 188.749ZM342.795 188.749H283.656C282.966 188.749 282.407 188.173 282.407 187.461C282.407 186.749 282.966 186.172 283.656 186.172H342.795C343.485 186.172 344.044 186.749 344.044 187.461C344.045 188.173 343.485 188.749 342.795 188.749ZM361.291 188.749H350.92C350.319 188.749 349.832 188.247 349.832 187.628C349.832 187.009 350.319 186.507 350.92 186.507H361.291C361.892 186.507 362.379 187.009 362.379 187.628C362.38 188.247 361.892 188.749 361.291 188.749ZM361.13 202.064H212.06C211.369 202.064 210.81 201.487 210.81 200.775C210.81 200.063 211.369 199.486 212.06 199.486H361.13C361.82 199.486 362.38 200.063 362.38 200.775C362.38 201.487 361.82 202.064 361.13 202.064Z" fill="#BFCCF5"/>
</g>
<g filter="url(#filter1_d_11865_5440)">
<path d="M335.72 377.538L325.592 380.959L320.375 365.511L330.503 362.09L335.72 377.538Z" fill="url(#paint3_linear_11865_5440)"/>
<path d="M354.707 417.138C357.91 426.517 360.54 435.527 362.706 444.065C363.03 445.34 363.344 446.6 363.649 447.851C363.913 448.947 364.168 450.033 364.42 451.109C365.655 456.439 366.706 461.56 367.61 466.45L354.14 471C351.894 466.564 349.625 461.853 347.375 456.866C346.923 455.858 346.467 454.839 346.013 453.808C345.497 452.628 344.982 451.435 344.468 450.226C341.012 442.122 337.642 433.363 334.503 423.962C331.626 415.358 329.225 407.063 327.225 399.172C326.901 397.897 326.592 396.635 326.287 395.384C326.023 394.288 325.768 393.201 325.517 392.126C324.284 386.802 323.225 381.677 322.321 376.787L335.792 372.237C338.038 376.674 340.303 381.391 342.55 386.373C343.003 387.381 343.459 388.4 343.913 389.431C344.43 390.611 344.949 391.802 345.464 393.012C348.658 400.5 351.778 408.552 354.707 417.138Z" fill="url(#paint4_linear_11865_5440)"/>
<path d="M342.55 386.373L325.517 392.126C324.284 386.802 323.225 381.677 322.321 376.787L335.792 372.237C338.038 376.673 340.302 381.391 342.55 386.373Z" fill="url(#paint5_linear_11865_5440)"/>
<path d="M345.463 393.012L327.224 399.172C326.9 397.897 326.591 396.635 326.286 395.384L343.912 389.431C344.429 390.61 344.949 391.802 345.463 393.012Z" fill="url(#paint6_linear_11865_5440)"/>
<path d="M310.993 362.217C333.74 362.217 352.181 343.776 352.181 321.029C352.181 298.281 333.74 279.841 310.993 279.841C288.246 279.841 269.805 298.281 269.805 321.029C269.805 343.776 288.246 362.217 310.993 362.217Z" fill="url(#paint7_linear_11865_5440)"/>
<path d="M295.85 276.189C271.015 284.576 257.605 311.515 265.956 336.24C274.306 360.964 301.303 374.256 326.137 365.869C350.972 357.482 364.383 330.543 356.033 305.818C347.682 281.093 320.684 267.801 295.85 276.189ZM323.807 358.97C302.76 366.078 279.961 354.854 272.884 333.899C265.807 312.944 277.132 290.195 298.18 283.086C319.227 275.978 342.027 287.202 349.104 308.157C356.18 329.112 344.855 351.862 323.807 358.97Z" fill="#4F5387"/>
<path d="M296.043 308.194C292.105 312.326 284.653 317.555 281.406 315.325C278.182 313.109 279.618 303.885 284.171 298.041C289.556 291.128 300.091 287.931 302.887 290.941C305.622 293.882 301.098 302.891 296.043 308.194Z" fill="white"/>
</g>
<defs>
<filter id="filter0_d_11865_5440" x="103.785" y="92.2889" width="487.714" height="343.451" filterUnits="userSpaceOnUse" color-interpolation-filters="sRGB">
<feFlood flood-opacity="0" result="BackgroundImageFix"/>
<feColorMatrix in="SourceAlpha" type="matrix" values="0 0 0 0 0 0 0 0 0 0 0 0 0 0 0 0 0 0 127 0" result="hardAlpha"/>
<feOffset dy="5"/>
<feGaussianBlur stdDeviation="10"/>
<feComposite in2="hardAlpha" operator="out"/>
<feColorMatrix type="matrix" values="0 0 0 0 0 0 0 0 0 0 0 0 0 0 0 0 0 0 0.3 0"/>
<feBlend mode="normal" in2="BackgroundImageFix" result="effect1_dropShadow_11865_5440"/>
<feBlend mode="normal" in="SourceGraphic" in2="effect1_dropShadow_11865_5440" result="shape"/>
</filter>
<filter id="filter1_d_11865_5440" x="243.474" y="258.675" width="144.136" height="237.325" filterUnits="userSpaceOnUse" color-interpolation-filters="sRGB">
<feFlood flood-opacity="0" result="BackgroundImageFix"/>
<feColorMatrix in="SourceAlpha" type="matrix" values="0 0 0 0 0 0 0 0 0 0 0 0 0 0 0 0 0 0 127 0" result="hardAlpha"/>
<feOffset dy="5"/>
<feGaussianBlur stdDeviation="10"/>
<feComposite in2="hardAlpha" operator="out"/>
<feColorMatrix type="matrix" values="0 0 0 0 0 0 0 0 0 0 0 0 0 0 0 0 0 0 0.3 0"/>
<feBlend mode="normal" in2="BackgroundImageFix" result="effect1_dropShadow_11865_5440"/>
<feBlend mode="normal" in="SourceGraphic" in2="effect1_dropShadow_11865_5440" result="shape"/>
</filter>
<linearGradient id="paint0_linear_11865_5440" x1="12.2808" y1="298.111" x2="184.523" y2="433.119" gradientUnits="userSpaceOnUse">
<stop stop-color="#B686BD"/>
<stop offset="1" stop-color="#3A7C9F"/>
</linearGradient>
<linearGradient id="paint1_linear_11865_5440" x1="332.549" y1="20.6178" x2="353.941" y2="149.947" gradientUnits="userSpaceOnUse">
<stop stop-color="#8B698F"/>
<stop offset="1" stop-color="#2B7DA9"/>
</linearGradient>
<linearGradient id="paint2_linear_11865_5440" x1="149.591" y1="129.228" x2="775.242" y2="538.22" gradientUnits="userSpaceOnUse">
<stop stop-color="#41446C"/>
<stop offset="1" stop-color="#5A5674"/>
</linearGradient>
<linearGradient id="paint3_linear_11865_5440" x1="320.432" y1="371.567" x2="335.644" y2="371.401" gradientUnits="userSpaceOnUse">
<stop stop-color="#2B2E53"/>
<stop offset="1" stop-color="#65617E"/>
</linearGradient>
<linearGradient id="paint4_linear_11865_5440" x1="322.803" y1="421.82" x2="367.108" y2="421.337" gradientUnits="userSpaceOnUse">
<stop stop-color="#6A4B83"/>
<stop offset="1" stop-color="#605B87"/>
</linearGradient>
<linearGradient id="paint5_linear_11865_5440" x1="322.371" y1="382.231" x2="342.493" y2="382.012" gradientUnits="userSpaceOnUse">
<stop stop-color="#E3F2FF"/>
<stop offset="1" stop-color="#888EFF"/>
</linearGradient>
<linearGradient id="paint6_linear_11865_5440" x1="326.267" y1="394.363" x2="345.467" y2="394.153" gradientUnits="userSpaceOnUse">
<stop stop-color="#E2EFFC"/>
<stop offset="1" stop-color="#6D72CB"/>
</linearGradient>
<linearGradient id="paint7_linear_11865_5440" x1="285.627" y1="291.868" x2="335.632" y2="349.353" gradientUnits="userSpaceOnUse">
<stop stop-color="#C590CD"/>
<stop offset="1" stop-color="#BBE0F3"/>
</linearGradient>
</defs>
</svg>
