<svg width="80" height="81" viewBox="0 0 80 81" fill="none" xmlns="http://www.w3.org/2000/svg">
<g clip-path="url(#clip0_11854_4391)">
<path d="M40 75.1428C39.9144 75.1428 39.8288 75.1349 39.7442 75.1185C31.5344 73.5396 24.0805 69.1204 18.7558 62.6746C13.4317 56.2287 10.4995 48.0744 10.4995 39.7139V16.0297C10.4995 15.4381 10.8838 14.9148 11.4483 14.7383L39.5528 5.93324C39.695 5.88355 39.851 5.86029 40 5.85712H40.0016C40.1549 5.85712 40.3056 5.88355 40.4478 5.93324L68.5517 14.7383C69.1163 14.9153 69.5006 15.4381 69.5006 16.0297V39.7139C69.5006 48.0744 66.5684 56.2287 61.2437 62.6746C55.9196 69.1204 48.4657 73.5396 40.2559 75.1185C40.1713 75.1349 40.0857 75.1428 40 75.1428V75.1428ZM13.2059 17.0234V39.7139C13.2059 55.588 24.4584 69.297 40 72.4105C55.5416 69.297 66.7936 55.588 66.7936 39.7139V17.0234L40 8.62914L13.2059 17.0234Z" fill="#3F3F3F"/>
<path d="M40 67.3854C39.8901 67.3854 39.7801 67.3722 39.6733 67.3458C33.5637 65.8255 28.0508 62.2479 24.1492 57.2721C20.2338 52.2778 18.0776 46.0424 18.0776 39.7139V21.5963C18.0776 21.0048 18.4619 20.482 19.0259 20.3055L39.5951 13.8612C39.8584 13.7788 40.1412 13.7788 40.4044 13.8612L60.9736 20.3055C61.5376 20.482 61.9219 21.0048 61.9219 21.5963V39.7139C61.9219 44.3397 60.7759 48.9444 58.6081 53.03C58.2576 53.6903 57.4388 53.9408 56.7786 53.5909C56.1183 53.2404 55.8673 52.4216 56.2172 51.7614C58.1789 48.0653 59.2155 43.8994 59.2155 39.7139V22.5907L39.9995 16.5703L20.7841 22.5907V39.7139C20.7841 51.4611 28.6688 61.6611 39.9995 64.6356C43.1474 63.8094 46.0721 62.4112 48.6983 60.4771C49.2998 60.0341 50.1472 60.1625 50.5902 60.7641C51.0337 61.3656 50.9052 62.213 50.3031 62.656C47.3001 64.8682 43.9434 66.4456 40.3262 67.3458C40.2194 67.3722 40.1094 67.3854 40 67.3854V67.3854Z" fill="#3F3F3F"/>
<path d="M37.5419 50.684C37.1952 50.684 36.8494 50.5519 36.5851 50.2876L27.5232 41.2256C26.9946 40.6975 26.9946 39.8407 27.5232 39.3121L32.1163 34.719C32.37 34.4653 32.7141 34.3225 33.0731 34.3225C33.432 34.3225 33.7761 34.4653 34.0298 34.719L37.5419 38.2311L45.9695 29.8029C46.4981 29.2749 47.355 29.2743 47.8836 29.8029L52.4767 34.396C52.7304 34.6497 52.8731 34.9939 52.8731 35.3528C52.8731 35.7117 52.7304 36.0558 52.4767 36.3096L38.4987 50.2876C38.2344 50.5519 37.8882 50.684 37.5419 50.684V50.684ZM30.3936 40.2688L37.5419 47.4167L49.6058 35.3528L46.9263 32.6738L38.4987 41.1019C38.245 41.3557 37.9008 41.4979 37.5419 41.4979C37.183 41.4979 36.8389 41.3557 36.5851 41.1019L33.0731 37.5899L30.3936 40.2688Z" fill="#3F3F3F"/>
<path d="M53.9679 58.7823C53.6122 58.7823 53.2628 58.6386 53.0111 58.3859C52.7595 58.1343 52.6147 57.7849 52.6147 57.4291C52.6147 57.0734 52.7595 56.7239 53.0111 56.4723C53.2628 56.2207 53.6122 56.0759 53.9679 56.0759C54.3237 56.0759 54.6731 56.2207 54.9247 56.4723C55.1763 56.7239 55.3212 57.0734 55.3212 57.4291C55.3212 57.7849 55.1763 58.1343 54.9247 58.3859C54.6731 58.6386 54.3237 58.7823 53.9679 58.7823Z" fill="#3F3F3F"/>
</g>
<defs>
<clipPath id="clip0_11854_4391">
<rect width="69.2857" height="69.2857" fill="white" transform="translate(5.35715 5.85712)"/>
</clipPath>
</defs>
</svg>
