<svg width="593" height="412" viewBox="0 0 593 412" fill="none" xmlns="http://www.w3.org/2000/svg">
<path d="M588.949 253.099H559.474V381.218H588.949V253.099Z" fill="#D1E2EE"/>
<path d="M566.282 253.099H495.092V381.218H566.282V253.099Z" fill="#EFEFEF"/>
<path d="M566.282 253.53H495.092L517.846 227.234H588.949L566.282 253.53Z" fill="#6A669A"/>
<path d="M588.949 253.099V227.234L566.282 253.53L588.949 253.099Z" fill="#D1E2EE"/>
<path d="M559.56 218.698H531.377V245.081H559.56V218.698Z" fill="#D1E2EE"/>
<path d="M553.958 218.698H525.775V245.081H553.958V218.698Z" fill="#EFEFEF"/>
<path d="M589.639 157.225H498.798C496.942 157.225 495.437 158.73 495.437 160.587V218.526C495.437 220.383 496.942 221.888 498.798 221.888H589.639C591.495 221.888 593 220.383 593 218.526V160.587C593 158.73 591.495 157.225 589.639 157.225Z" fill="#D1E2EE"/>
<path d="M585.243 157.225H494.403C492.546 157.225 491.041 158.73 491.041 160.587V218.526C491.041 220.383 492.546 221.888 494.403 221.888H585.243C587.099 221.888 588.604 220.383 588.604 218.526V160.587C588.604 158.73 587.099 157.225 585.243 157.225Z" fill="#EFEFEF"/>
<path d="M584.295 164.036V212.318C584.295 213.118 583.977 213.886 583.412 214.452C582.846 215.017 582.079 215.335 581.279 215.335H498.454C497.654 215.335 496.886 215.017 496.321 214.452C495.755 213.886 495.437 213.118 495.437 212.318V164.036C495.437 163.235 495.755 162.468 496.321 161.902C496.886 161.336 497.654 161.018 498.454 161.018H581.02C581.437 160.982 581.858 161.034 582.254 161.169C582.65 161.305 583.014 161.521 583.322 161.805C583.63 162.089 583.876 162.434 584.044 162.818C584.211 163.202 584.297 163.617 584.295 164.036V164.036ZM541.03 218.439C541.03 218.119 540.903 217.812 540.676 217.586C540.45 217.359 540.143 217.232 539.823 217.232C539.51 217.252 539.214 217.386 538.992 217.608C538.77 217.83 538.637 218.126 538.616 218.439C538.616 218.768 538.74 219.084 538.964 219.324C539.188 219.565 539.495 219.711 539.823 219.732C540.151 219.711 540.458 219.565 540.682 219.324C540.906 219.084 541.03 218.768 541.03 218.439V218.439Z" fill="#412A4D"/>
<path opacity="0.18" d="M573.264 215.077H497.592C496.845 214.993 496.153 214.641 495.646 214.086C495.139 213.531 494.85 212.811 494.834 212.059V163.346C494.834 162.523 495.161 161.733 495.743 161.151C496.325 160.569 497.114 160.242 497.937 160.242H529.309L573.264 215.077Z" fill="#EFEFEF"/>
<path d="M513.536 247.236L507.072 250.512L507.762 251.03C508.574 251.499 509.495 251.746 510.433 251.746C511.371 251.746 512.293 251.499 513.105 251.03C514.915 250.167 515.432 248.702 514.312 247.84L513.536 247.236Z" fill="#CDD5D3"/>
<path d="M513.536 247.236C514.657 248.098 514.14 249.564 512.33 250.426C511.525 250.871 510.621 251.105 509.701 251.105C508.781 251.105 507.877 250.871 507.072 250.426C505.866 249.478 506.469 248.098 508.193 247.15C509.018 246.71 509.941 246.487 510.876 246.502C511.81 246.517 512.726 246.77 513.536 247.236V247.236Z" fill="#7994AC"/>
<path d="M526.206 247.236L519.655 250.512L520.69 250.857C521.502 251.326 522.423 251.573 523.361 251.573C524.299 251.573 525.221 251.326 526.033 250.857C527.843 249.995 528.36 248.529 527.24 247.667L526.206 247.236Z" fill="#CDD5D3"/>
<path d="M526.206 247.236C527.326 248.098 526.809 249.564 524.999 250.426C524.179 250.871 523.26 251.104 522.327 251.104C521.394 251.104 520.476 250.871 519.655 250.426C518.535 249.478 519.138 248.098 520.862 247.15C521.687 246.71 522.61 246.487 523.545 246.502C524.48 246.517 525.395 246.77 526.206 247.236V247.236Z" fill="#7994AC"/>
<path d="M544.65 247.236L537.927 250.857L538.703 251.375C539.499 251.845 540.407 252.093 541.331 252.093C542.256 252.093 543.164 251.845 543.96 251.375C545.77 250.512 546.287 249.047 545.167 248.184L544.65 247.236Z" fill="#404F86"/>
<path d="M544.649 247.236C545.856 248.098 545.253 249.564 543.443 250.426C542.646 250.986 541.714 251.321 540.744 251.397C539.773 251.473 538.801 251.286 537.927 250.857C536.807 249.909 537.324 248.529 539.134 247.581C539.938 247.035 540.874 246.715 541.844 246.654C542.815 246.593 543.783 246.794 544.649 247.236V247.236Z" fill="#604D6A"/>
<path d="M559.56 261.203H501.729V279.999H559.56V261.203Z" fill="#6A669A"/>
<path d="M510.692 273.791C512.406 273.791 513.795 272.363 513.795 270.601C513.795 268.839 512.406 267.411 510.692 267.411C508.978 267.411 507.589 268.839 507.589 270.601C507.589 272.363 508.978 273.791 510.692 273.791Z" fill="#D1E2EE"/>
<path d="M524.31 270.601C524.31 269.77 523.986 268.971 523.406 268.375C522.827 267.779 522.038 267.433 521.207 267.411C520.462 267.535 519.785 267.919 519.297 268.495C518.809 269.072 518.541 269.803 518.541 270.558C518.541 271.313 518.809 272.044 519.297 272.621C519.785 273.197 520.462 273.581 521.207 273.705C522.03 273.705 522.819 273.378 523.401 272.796C523.983 272.214 524.31 271.424 524.31 270.601V270.601ZM534.738 270.601C534.738 269.987 534.556 269.387 534.215 268.877C533.874 268.366 533.39 267.968 532.823 267.734C532.256 267.499 531.632 267.437 531.03 267.557C530.428 267.677 529.876 267.972 529.442 268.406C529.008 268.84 528.712 269.393 528.592 269.996C528.473 270.598 528.534 271.222 528.769 271.789C529.004 272.356 529.402 272.841 529.912 273.182C530.422 273.523 531.022 273.705 531.636 273.705C532.458 273.705 533.248 273.378 533.83 272.796C534.411 272.214 534.738 271.424 534.738 270.601V270.601Z" fill="#D1E2EE"/>
<path d="M559.56 285.172H501.729V303.967H559.56V285.172Z" fill="#6A669A"/>
<path d="M510.692 297.76C512.406 297.76 513.795 296.331 513.795 294.57C513.795 292.808 512.406 291.38 510.692 291.38C508.978 291.38 507.589 292.808 507.589 294.57C507.589 296.331 508.978 297.76 510.692 297.76Z" fill="#D1E2EE"/>
<path d="M524.31 294.569C524.31 293.746 523.983 292.957 523.401 292.375C522.819 291.793 522.03 291.466 521.207 291.466C520.384 291.466 519.595 291.793 519.013 292.375C518.431 292.957 518.104 293.746 518.104 294.569C518.104 295.401 518.428 296.199 519.007 296.795C519.587 297.391 520.376 297.737 521.207 297.759C522.038 297.737 522.827 297.391 523.406 296.795C523.986 296.199 524.31 295.401 524.31 294.569V294.569ZM534.738 294.569C534.738 293.746 534.411 292.957 533.829 292.375C533.247 291.793 532.458 291.466 531.635 291.466C530.812 291.466 530.023 291.793 529.441 292.375C528.86 292.957 528.533 293.746 528.533 294.569C528.533 295.393 528.86 296.182 529.441 296.764C530.023 297.346 530.812 297.673 531.635 297.673C532.458 297.673 533.247 297.346 533.829 296.764C534.411 296.182 534.738 295.393 534.738 294.569V294.569Z" fill="#D1E2EE"/>
<path d="M107.733 369.771H110.749L102.044 296.917H96.8733L107.733 369.771Z" fill="#6A669A"/>
<path d="M49.2124 369.771H46.1959L54.9869 296.917H60.0719L49.2124 369.771Z" fill="#6A669A"/>
<path d="M76.5335 369.771H79.7224L81.1013 299.503H75.1545L76.5335 369.771Z" fill="#6A669A"/>
<path d="M48.8676 356.924H107.388V354.338H48.8676V356.924Z" fill="#6A669A"/>
<path d="M108.164 299.072C98.8137 295.804 88.9284 294.341 79.0329 294.761C69.1378 294.35 59.254 295.812 49.9019 299.072H46.1959V302.78C46.1959 307.177 60.9337 310.798 79.0329 310.798C97.132 310.798 111.956 307.177 111.956 302.78V299.072H108.164Z" fill="#7994AC"/>
<path d="M111.956 299.072C111.956 303.469 97.2182 307.09 79.0329 307.09C60.8475 307.09 46.1959 303.469 46.1959 299.072C46.1959 294.675 60.9337 291.14 79.3776 291.14C97.8215 291.14 111.956 294.589 111.956 299.072Z" fill="#404F86"/>
<path d="M57.0554 292.864C57.0554 292.864 58.262 254.842 52.2289 252.342C46.1959 249.842 34.4745 248.98 31.889 257.084C29.3034 265.189 46.3683 303.642 46.3683 303.642C46.3683 303.642 56.7106 298.124 57.0554 292.864Z" fill="#7994AC"/>
<path d="M62.571 293.123C62.571 293.123 60.8473 254.584 54.8142 252.083C48.7812 249.583 37.0599 248.721 34.4743 256.825C31.8887 264.93 47.4884 300.624 47.4884 300.624C47.4884 300.624 49.2983 303.038 50.3325 302.779C53.5214 301.745 62.1401 297.175 62.571 293.123Z" fill="#404F86"/>
<path d="M4.82644 268.292H183.318L188.231 260.016H0L4.82644 268.292Z" fill="#6A669A"/>
<path d="M183.835 369.771H188.145L180.646 268.292H171.511L183.835 369.771Z" fill="#6A669A"/>
<path d="M161.513 369.771H165.822L158.324 268.292H149.188L161.513 369.771Z" fill="#7874A8"/>
<path d="M6.11927 369.771H1.72377L9.22197 268.292H18.3577L6.11927 369.771Z" fill="#6A669A"/>
<path d="M26.8038 369.771H22.4945L29.9927 268.292H39.1284L26.8038 369.771Z" fill="#7874A8"/>
<path d="M128.762 257.256H141.863V237.685H128.762V257.256Z" fill="#D1E2EE"/>
<path d="M121.178 260.015H149.533C149.534 258.536 148.958 257.114 147.928 256.052C146.899 254.989 145.496 254.37 144.017 254.325H126.78C125.301 254.37 123.898 254.989 122.869 256.052C121.839 257.114 121.263 258.536 121.264 260.015H121.178Z" fill="#D1E2EE"/>
<path d="M94.4602 240.703H175.475C177.332 240.703 178.837 239.197 178.837 237.34V191.817C178.837 189.96 177.332 188.455 175.475 188.455H94.4602C92.6038 188.455 91.099 189.96 91.099 191.817V237.34C91.099 239.197 92.6038 240.703 94.4602 240.703Z" fill="#D1E2EE"/>
<path d="M96.3561 240.703H177.371C179.228 240.703 180.732 239.197 180.732 237.34V191.817C180.732 189.96 179.228 188.455 177.371 188.455H96.3561C94.4997 188.455 92.9948 189.96 92.9948 191.817V237.34C92.9948 239.197 94.4997 240.703 96.3561 240.703Z" fill="#EFEFEF"/>
<path d="M130.314 257.256H143.414V237.685H130.314V257.256Z" fill="#EFEFEF"/>
<path d="M122.471 260.015H150.826C150.827 258.536 150.251 257.114 149.221 256.052C148.192 254.989 146.789 254.37 145.31 254.325H128.073C126.579 254.348 125.154 254.957 124.106 256.022C123.058 257.087 122.47 258.521 122.471 260.015Z" fill="#EFEFEF"/>
<path opacity="0.22" d="M448.201 82.493H181.282L202.14 17.4849H427.258L448.201 82.493Z" fill="url(#paint0_linear_11848_2387)"/>
<path d="M427.258 0.5H202.139V11.7945H427.258V0.5Z" fill="#7874A8"/>
<path d="M220.928 176.212L415.364 176.212V49.8166L220.928 49.8166L220.928 176.212Z" fill="#EFEFEF"/>
<path d="M220.928 176.212L415.364 176.212V171.384L220.928 171.384V176.212Z" fill="#6A669A"/>
<path d="M220.928 54.5587L415.364 54.5587V49.7305L220.928 49.7305V54.5587Z" fill="#6A669A"/>
<path d="M329.695 154.916H402.867V154.054H329.695C329.581 154.054 329.471 154.099 329.39 154.18C329.31 154.261 329.264 154.371 329.264 154.485C329.264 154.599 329.31 154.709 329.39 154.79C329.471 154.871 329.581 154.916 329.695 154.916V154.916ZM329.695 161.813H402.867C402.982 161.813 403.091 161.768 403.172 161.687C403.253 161.606 403.298 161.497 403.298 161.382C403.298 161.268 403.253 161.158 403.172 161.077C403.091 160.997 402.982 160.951 402.867 160.951H329.695V161.813ZM362.101 125.171H403.04V124.74H362.101C362.101 124.74 362.101 124.74 362.101 125.171C361.929 125.171 362.101 125.602 362.101 125.171ZM315.388 125.171H355.982V124.74H315.388C315.388 124.74 315.388 124.74 315.388 125.171C315.388 125.171 315.388 125.602 315.388 125.171ZM351.328 138.621H403.04C403.04 138.621 403.04 138.621 403.04 138.19H351.328C351.328 138.19 351.155 138.621 351.328 138.621ZM315.388 138.621H342.537C342.537 138.621 342.537 138.621 342.537 138.19C342.537 137.759 342.537 138.19 342.537 138.19H315.388V138.621ZM315.991 131.637H402.781C402.86 131.683 402.949 131.706 403.04 131.706C403.13 131.706 403.22 131.683 403.298 131.637C403.278 131.515 403.214 131.405 403.119 131.326C403.025 131.247 402.905 131.204 402.781 131.206H315.991C315.868 131.204 315.748 131.247 315.653 131.326C315.558 131.405 315.495 131.515 315.474 131.637C315.553 131.683 315.642 131.706 315.733 131.706C315.824 131.706 315.913 131.683 315.991 131.637V131.637ZM238.51 154.916H311.682V154.054H238.51C238.396 154.054 238.286 154.099 238.205 154.18C238.124 154.261 238.079 154.371 238.079 154.485C238.079 154.599 238.124 154.709 238.205 154.79C238.286 154.871 238.396 154.916 238.51 154.916ZM238.51 161.813H311.682C311.796 161.813 311.906 161.768 311.987 161.687C312.068 161.606 312.113 161.497 312.113 161.382C312.113 161.268 312.068 161.158 311.987 161.077C311.906 160.997 311.796 160.951 311.682 160.951H238.51V161.813ZM237.82 133.362H282.293C282.293 133.362 282.293 133.362 282.293 132.93C282.293 132.499 282.293 132.93 282.293 132.93H237.82V133.362ZM237.82 139.828H282.293C282.293 139.828 282.293 139.828 282.293 139.397C282.293 138.966 282.293 139.397 282.293 139.397H237.82V139.828Z" fill="#90A6DE"/>
<path d="M403.557 77.7511H247.646V79.1306H403.557V77.7511Z" fill="#90A6DE"/>
<path d="M247.646 80.3376C248.74 80.3376 249.628 79.4498 249.628 78.3546C249.628 77.2594 248.74 76.3716 247.646 76.3716C246.551 76.3716 245.663 77.2594 245.663 78.3546C245.663 79.4498 246.551 80.3376 247.646 80.3376Z" fill="#90A6DE"/>
<path d="M403.471 90.8562H283.672V92.2357H403.471V90.8562Z" fill="#90A6DE"/>
<path d="M283.671 93.529C284.766 93.529 285.654 92.6412 285.654 91.546C285.654 90.4508 284.766 89.563 283.671 89.563C282.577 89.563 281.689 90.4508 281.689 91.546C281.689 92.6412 282.577 93.529 283.671 93.529Z" fill="#90A6DE"/>
<path d="M403.557 109.221H293.928V110.514H403.557V109.221Z" fill="#90A6DE"/>
<path d="M295.91 110.083C295.893 109.695 295.763 109.32 295.535 109.006C295.307 108.691 294.992 108.45 294.629 108.313C294.265 108.177 293.87 108.149 293.491 108.235C293.112 108.321 292.767 108.517 292.499 108.797C292.23 109.078 292.049 109.431 291.98 109.813C291.91 110.195 291.954 110.589 292.106 110.947C292.258 111.304 292.512 111.609 292.836 111.823C293.16 112.037 293.54 112.152 293.928 112.152C294.196 112.152 294.461 112.098 294.707 111.993C294.953 111.888 295.176 111.735 295.361 111.541C295.546 111.348 295.69 111.119 295.785 110.868C295.879 110.618 295.922 110.351 295.91 110.083V110.083Z" fill="#90A6DE"/>
<path d="M245.319 256.653C243.767 265.275 222.479 402.361 222.479 402.361H209.982C209.982 402.361 192.917 291.14 190.245 274.759C189.574 259.924 191.291 245.077 195.33 230.788C197.399 230.788 235.924 224.235 235.924 224.235C237.045 230.788 246.87 248.031 245.319 256.653Z" fill="#FFAE81"/>
<path d="M216.791 402.706L220.583 265.275C223.736 262.039 226.619 258.55 229.202 254.842C227.602 259.001 225.641 263.011 223.341 266.827C223.341 266.827 223.341 306.314 218.859 402.878L216.791 402.706ZM211.964 402.706H210.155C210.155 402.706 192.917 291.14 190.245 274.759C189.574 259.924 191.291 245.077 195.33 230.788H209.206C202.409 244.108 199.144 258.952 199.726 273.896C200.416 293.899 208.086 367.615 211.964 402.706Z" fill="#C76B4F"/>
<path d="M216.791 402.706V408.482H196.106C200.058 405.225 204.887 403.214 209.982 402.706H216.791Z" fill="#7874A8"/>
<path d="M216.791 408.482H196.106V410.121H216.791V408.482Z" fill="#6A669A"/>
<path d="M216.791 402.706V408.482H237.82C233.848 405.26 229.029 403.254 223.944 402.706H216.791Z" fill="#7874A8"/>
<path d="M216.877 410.12H237.562V408.482H216.877V410.12Z" fill="#6A669A"/>
<path d="M217.222 403.827L216.36 410.121H217.653L217.222 403.827Z" fill="#6A669A"/>
<path d="M236.097 203.801C256.523 250.014 254.713 307.263 244.716 322.696C244.716 322.696 231.184 330.283 188.091 322.696C188.091 322.696 182.575 238.547 198.52 202.422C198.089 202.853 223.428 197.249 236.097 203.801Z" fill="#7994AC"/>
<path d="M213.602 205.44C208.875 228.836 207.023 252.723 208.086 276.569C208.776 286.57 209.293 325.713 209.293 325.713L187.66 323.127C187.66 323.127 181.713 241.996 198.089 202.853L213.602 205.44Z" fill="#404F86"/>
<path d="M226.185 161.813C221.617 164.745 226.185 184.575 252.817 215.355C259.626 223.287 266.434 206.733 262.901 201.818C259.367 196.904 238.337 161.813 238.337 161.813C238.337 161.813 234.718 156.037 226.185 161.813Z" fill="#FFAE81"/>
<path d="M238.941 162.676C240.883 166.975 242.413 171.45 243.509 176.04C244.974 182.506 249.369 208.544 252.127 214.234C252.127 214.234 239.975 199.663 236.614 194.318C233.681 184.247 232.457 173.755 232.994 163.279C233.425 161.814 238.941 162.676 238.941 162.676Z" fill="#C76B4F"/>
<path d="M252.731 214.148C252.731 216.562 255.402 217.941 261.866 217.51C266.865 217.079 295.479 208.888 295.479 208.888L296.082 202.422C284.076 201.353 272.022 200.921 259.97 201.129C254.368 201.56 252.127 208.63 252.731 214.148Z" fill="#FFAE81"/>
<path d="M214.292 145.346C224.612 147.537 234.109 152.586 241.699 159.917C241.699 159.917 228.599 172.591 229.202 177.85L220.583 175.522C217.411 171.249 215.206 166.337 214.12 161.126C213.033 155.916 213.092 150.531 214.292 145.346V145.346Z" fill="#EFEFEF"/>
<path d="M307.804 202.422C308.145 203.788 308.055 205.226 307.545 206.538C307.036 207.851 306.133 208.973 304.96 209.751C303.271 210.234 301.499 210.353 299.76 210.101C298.022 209.848 296.357 209.229 294.876 208.285C293.066 206.733 292.893 203.284 294.876 202.336C296.858 201.387 299.185 197.939 302.374 198.456C304.581 199.124 306.496 200.522 307.804 202.422V202.422Z" fill="#FFAE81"/>
<path d="M314.871 199.577C315.388 199.06 316.078 198.542 315.905 197.766C315.861 197.634 315.781 197.516 315.675 197.424C315.569 197.333 315.44 197.273 315.302 197.249C314.407 197.246 313.52 197.419 312.691 197.76C311.863 198.1 311.11 198.6 310.476 199.232C309.021 200.412 307.173 200.997 305.304 200.87C303.649 200.738 302.007 200.479 300.392 200.094C299.53 200.094 299.444 201.387 300.392 201.474H301.34C301.251 201.537 301.178 201.622 301.128 201.719C301.078 201.817 301.052 201.924 301.052 202.034C301.052 202.144 301.078 202.252 301.128 202.349C301.178 202.446 301.251 202.531 301.34 202.594C302.628 203.371 304.085 203.823 305.586 203.913C307.087 204.003 308.587 203.728 309.958 203.112C311.724 202.123 313.372 200.937 314.871 199.577V199.577Z" fill="#FFAE81"/>
<path d="M316.422 204.405C316.853 203.888 317.543 203.457 317.37 202.681C317.198 201.905 317.37 202.077 316.767 202.077C314.996 202.128 313.307 202.835 312.027 204.06C311.326 204.678 310.504 205.142 309.614 205.424C308.723 205.706 307.784 205.8 306.856 205.698C305.203 205.596 303.56 205.365 301.943 205.009C301.081 205.009 300.909 206.216 301.943 206.388H302.977C302.887 206.461 302.815 206.553 302.765 206.657C302.715 206.762 302.689 206.876 302.689 206.992C302.689 207.107 302.715 207.222 302.765 207.326C302.815 207.43 302.887 207.522 302.977 207.595C304.273 208.351 305.728 208.792 307.225 208.882C308.722 208.972 310.219 208.708 311.596 208.112C313.338 207.06 314.956 205.817 316.422 204.405V204.405Z" fill="#FFAE81"/>
<path d="M314.526 208.802C315.13 208.802 315.905 208.112 315.905 207.337C315.91 207.18 315.862 207.026 315.768 206.901C315.674 206.775 315.54 206.686 315.388 206.647C314.54 206.446 313.66 206.419 312.801 206.567C311.942 206.715 311.121 207.035 310.389 207.509C308.711 208.366 306.769 208.55 304.96 208.026C303.375 207.513 301.821 206.909 300.306 206.216C299.444 206.216 299.099 207.164 300.306 207.509L301.254 207.94C300.823 207.94 294.617 207.25 294.876 207.94C296.427 211.044 306.856 212.768 309.786 211.734C311.479 210.953 313.071 209.969 314.526 208.802Z" fill="#FFAE81"/>
<path d="M316.767 201.905C317.284 201.387 317.974 200.87 317.801 200.094C317.78 199.949 317.708 199.817 317.597 199.722C317.486 199.627 317.344 199.575 317.198 199.577C315.418 199.584 313.713 200.297 312.458 201.56C310.995 202.725 309.153 203.308 307.287 203.198C305.608 203.024 303.94 202.765 302.288 202.422C301.426 202.422 301.34 203.715 302.288 203.801H303.322C303.233 203.865 303.16 203.949 303.11 204.047C303.06 204.144 303.034 204.252 303.034 204.362C303.034 204.471 303.06 204.579 303.11 204.677C303.16 204.774 303.233 204.858 303.322 204.922C304.615 205.685 306.071 206.129 307.569 206.219C309.067 206.309 310.566 206.042 311.941 205.44C313.695 204.475 315.318 203.287 316.767 201.905V201.905Z" fill="#FFAE81"/>
<path d="M306.77 202.163C307.321 203.514 307.476 204.993 307.216 206.429C306.957 207.864 306.294 209.196 305.305 210.268C306.182 207.651 306.676 204.921 306.77 202.163ZM303.753 200.956C303.763 201.888 303.499 202.801 302.993 203.583C302.487 204.365 301.762 204.981 300.909 205.353C302.058 204.854 303.109 204.153 304.012 203.284C304.148 202.902 304.196 202.494 304.151 202.09C304.106 201.687 303.97 201.299 303.753 200.956V200.956Z" fill="#C76B4F"/>
<path d="M237.82 208.371C233.511 213.027 200.674 210.095 200.674 210.095C201.774 204.287 201.114 198.282 198.778 192.852C197.485 189.834 195.158 185.178 192.831 180.178L191.107 176.298L190.59 175.177C189.211 172.332 188.005 169.573 186.971 166.555V165.866C185.6 162.962 184.754 159.839 184.471 156.64V156.209C185.353 153.664 186.901 151.402 188.953 149.657L190.246 148.45C192.454 146.697 195.058 145.513 197.83 145.001C203.239 146.535 208.968 146.535 214.378 145.001C223.837 151.045 232.521 158.226 240.234 166.383C243.423 172.591 237.39 179.143 237.39 179.143C234.825 188.738 234.974 198.856 237.82 208.371V208.371Z" fill="#6A669A"/>
<path d="M237.045 179.488C229.547 181.04 217.394 185.351 210.155 182.592C210.155 182.592 216.877 189.231 234.976 187.075C235.953 184.633 236.647 182.088 237.045 179.488V179.488Z" fill="#7874A8"/>
<path d="M198.089 202.853C199.202 198.325 198.871 193.561 197.141 189.231C196.193 186.041 193.176 177.074 191.539 171.987C192.573 173.539 188.867 159.486 196.537 155.433C201.795 167.849 198.261 188.369 205.156 204.405L198.089 202.853Z" fill="#FFC179"/>
<path d="M221.1 148.105C221.1 148.105 242.906 162.848 241.527 172.936C240.148 183.023 234.718 181.557 235.924 193.628C237.648 211.561 261.263 264.499 253.162 318.299C249.009 316.62 244.462 316.171 240.061 317.005C240.061 317.005 249.628 289.157 238.941 236.995C235.463 218.846 233.932 200.377 234.373 181.902C235.321 179.057 239.717 165.521 221.1 148.105ZM176.973 288.64C178.352 304.59 178.352 317.264 178.352 317.264C181.507 317.019 184.677 317.019 187.832 317.264C191.591 317.356 195.325 317.906 198.951 318.902C198.951 318.902 192.917 266.051 200.76 240.53C204.998 226.805 208.14 212.765 210.155 198.542C212.14 186.206 212.14 173.632 210.155 161.296C209.034 156.296 200.071 148.795 197.658 145.346C194.791 145.681 192.105 146.919 189.987 148.881C187.919 150.778 189.987 153.106 189.556 154.571C189.269 156.37 189.269 158.204 189.556 160.003C190.935 170.004 195.934 188.196 196.365 195.525C193.317 205.877 189.515 215.991 184.988 225.787C179.719 246.324 177.026 267.437 176.973 288.64V288.64Z" fill="#EFEFEF"/>
<path d="M176.973 288.64C178.352 304.59 178.352 317.264 178.352 317.264C181.507 317.018 184.677 317.018 187.832 317.264C182.23 280.277 182.317 251.652 189.642 231.564C195.973 213.496 199.518 194.57 200.157 175.436C200.556 167.466 198.18 159.605 193.435 153.192L189.815 160.003L188.694 161.813C188.694 161.813 196.451 191.903 196.623 195.18C193.576 205.532 189.773 215.646 185.247 225.442C179.862 246.08 177.082 267.311 176.973 288.64V288.64Z" fill="#D1E2EE"/>
<path d="M187.746 95.4258L184.127 99.6505L182.575 101.547C150.772 99.2194 188.005 149.139 182.575 155.347C180.663 156.81 178.412 157.767 176.032 158.129C173.651 158.491 171.218 158.246 168.958 157.416C166.862 156.942 164.814 156.279 162.839 155.433C162.839 155.433 170.595 152.416 159.133 137.673C147.67 122.929 138.448 91.7185 159.133 85.1659C170.681 81.4586 187.746 95.4258 187.746 95.4258Z" fill="#5F5261"/>
<path d="M184.126 99.6506L182.575 101.547C150.772 99.2195 188.005 149.14 182.575 155.347C180.663 156.811 178.412 157.767 176.032 158.129C173.651 158.491 171.218 158.246 168.958 157.416C169.415 157.347 169.88 157.347 170.337 157.416C176.111 156.813 176.456 145.691 171.629 135.172C166.803 124.654 158.012 108.703 163.873 99.7368C167.923 92.8394 178.524 96.8916 184.126 99.6506Z" fill="#412A4D"/>
<path d="M184.816 103.272C184.431 103.6 183.966 103.819 183.468 103.907C182.97 103.996 182.458 103.95 181.984 103.774C181.51 103.598 181.091 103.299 180.771 102.908C180.45 102.517 180.24 102.047 180.162 101.547C179.041 97.495 180.162 90.0803 185.592 91.0287C191.021 91.9771 184.816 103.272 184.816 103.272Z" fill="#7994AC"/>
<path d="M226.272 84.2174C226.272 84.2174 249.542 126.464 211.017 138.19C214.546 130.682 216.455 122.516 216.619 114.221C219.066 103.988 222.293 93.9573 226.272 84.2174Z" fill="#5F5261"/>
<path d="M215.24 129.913C214.518 135.285 214.373 140.719 214.809 146.122C219.894 153.881 197.572 145.087 197.572 145.087C197.706 143.769 197.706 142.44 197.572 141.121C197.725 138.249 197.725 135.371 197.572 132.499V132.499L215.24 129.913Z" fill="#FFAE81"/>
<path d="M215.24 129.913C215.207 130.516 215.207 131.12 215.24 131.723C215.138 133.159 215.138 134.599 215.24 136.034V141.035C211.448 143.794 201.364 138.017 198.52 134.396C198.496 131.515 198.323 128.638 198.002 125.774L215.24 129.913Z" fill="#C76B4F"/>
<path d="M194.21 102.065C194.38 110.768 195.419 119.433 197.313 127.93C199.289 131.12 201.9 133.868 204.985 136.004C208.069 138.14 211.56 139.618 215.24 140.345C220.497 140.345 227.564 127.671 228.771 123.102C229.721 115.927 229.866 108.668 229.202 101.461C228.38 96.7028 226.809 92.1049 224.548 87.8387C222.738 86.2867 198.089 88.6146 194.21 102.065Z" fill="#FFAE81"/>
<path d="M217.911 114.308C217.324 116.878 217.692 119.575 218.946 121.895V120.86C218.618 121.353 218.131 121.718 217.567 121.895C216.673 122.077 215.805 122.367 214.981 122.757C215.875 123.077 216.799 123.308 217.739 123.447C218.249 123.568 218.78 123.568 219.29 123.447C219.918 123.253 220.445 122.819 220.755 122.24V121.722V121.205C219.721 118.705 219.032 116.635 217.911 114.308Z" fill="#C76B4F"/>
<path d="M208.685 115.365C208.716 114.893 208.929 114.453 209.28 114.136C209.63 113.82 210.09 113.652 210.562 113.669C210.795 113.668 211.026 113.716 211.24 113.809C211.454 113.901 211.646 114.037 211.805 114.208C211.964 114.378 212.087 114.58 212.164 114.8C212.242 115.02 212.274 115.253 212.257 115.486C212.257 115.722 212.21 115.955 212.118 116.172C212.026 116.389 211.891 116.586 211.722 116.75C211.552 116.914 211.351 117.042 211.131 117.126C210.911 117.211 210.676 117.25 210.441 117.242C210.202 117.234 209.967 117.18 209.75 117.081C209.533 116.982 209.337 116.842 209.174 116.668C209.011 116.493 208.884 116.288 208.8 116.065C208.716 115.841 208.677 115.603 208.685 115.365V115.365Z" fill="#412A4D"/>
<path d="M221.61 113.647C221.633 113.41 221.703 113.18 221.816 112.971C221.93 112.762 222.085 112.579 222.272 112.431C222.459 112.284 222.674 112.176 222.903 112.115C223.133 112.053 223.373 112.039 223.608 112.072C224.074 112.161 224.489 112.423 224.77 112.805C225.05 113.187 225.176 113.661 225.122 114.132C225.092 114.363 225.017 114.587 224.9 114.789C224.783 114.991 224.627 115.167 224.441 115.308C224.255 115.449 224.042 115.552 223.816 115.61C223.59 115.668 223.355 115.68 223.124 115.646C222.893 115.616 222.669 115.541 222.467 115.424C222.265 115.307 222.089 115.15 221.948 114.964C221.807 114.778 221.705 114.566 221.647 114.34C221.589 114.114 221.576 113.878 221.61 113.647V113.647Z" fill="#412A4D"/>
<path d="M211.965 103.358C212.827 103.358 212.827 105.427 212.396 106.289C211.965 107.151 208.086 106.289 201.881 108.876C201.622 109.048 207.828 102.841 211.965 103.358ZM220.583 103.358C219.721 103.358 220.066 105.513 220.583 106.289C221.1 107.065 224.72 105.427 231.012 107.496C231.184 107.583 224.289 102.323 220.583 103.358Z" fill="#5F5261"/>
<path d="M211.911 129.366C212.421 130.078 213.078 130.672 213.837 131.109C214.597 131.545 215.441 131.814 216.313 131.896C217.173 131.995 218.043 131.869 218.839 131.53C219.654 131.46 220.437 131.176 221.108 130.707C219.62 131.156 218.06 131.317 216.512 131.182C214.865 130.916 213.296 130.296 211.911 129.366Z" fill="#C76B4F"/>
<path d="M219.894 111.893C220.443 111.212 221.154 110.678 221.962 110.341C222.753 110.129 223.585 110.129 224.375 110.341C225.215 110.527 225.972 110.98 226.532 111.633C227.091 112.286 227.423 113.104 227.478 113.963C227.587 113.044 227.34 112.118 226.789 111.376C226.266 110.593 225.465 110.038 224.548 109.824C223.653 109.522 222.684 109.522 221.79 109.824C220.911 110.239 220.23 110.982 219.894 111.893V111.893ZM212.999 112.497C212.773 112.08 212.453 111.723 212.064 111.453C211.674 111.184 211.227 111.009 210.758 110.945C209.857 110.686 208.901 110.686 208 110.945C207.08 111.203 206.284 111.785 205.759 112.583C205.194 113.326 204.891 114.236 204.897 115.17C205.056 114.308 205.443 113.504 206.018 112.842C206.578 112.154 207.327 111.645 208.172 111.376C209 111.245 209.844 111.245 210.672 111.376C211.549 111.486 212.366 111.879 212.999 112.497V112.497Z" fill="#412A4D"/>
<path d="M197.399 100.34C198.389 105.35 198.389 110.505 197.399 115.515C195.589 113.963 197.399 131.982 197.399 131.982C197.399 131.982 174.387 115.687 184.73 91.3737C186.68 87.7054 189.681 84.7033 193.348 82.7519C196.468 81.314 199.843 80.5123 203.276 80.3939C206.71 80.2755 210.132 80.8426 213.344 82.0622C232.649 76.3718 234.804 103.703 234.804 103.703C218.687 88.8733 197.399 100.34 197.399 100.34Z" fill="#5F5261"/>
<path d="M197.83 114.307C196.192 113.1 191.107 113.187 190.159 116.032C189.211 118.877 195.244 126.809 198.778 122.239C199.393 120.965 199.631 119.54 199.463 118.135C199.295 116.729 198.728 115.401 197.83 114.307Z" fill="#FFAE81"/>
<path d="M196.106 116.291C196.106 116.291 192.314 114.825 192.314 116.722C192.37 117.8 192.768 118.832 193.45 119.669C194.132 120.506 195.062 121.104 196.106 121.377C195.702 121.053 195.371 120.648 195.134 120.187C194.896 119.727 194.758 119.222 194.727 118.705C194.865 117.754 195.358 116.892 196.106 116.291Z" fill="#C76B4F"/>
<path d="M189.556 151.554C184.385 149.915 170.25 175.608 163.7 216.044C162.149 226.391 178.869 221.218 180.42 215.269C181.972 209.319 193.435 178.54 193.435 178.54C193.435 178.54 199.209 154.571 189.556 151.554Z" fill="#FFAE81"/>
<path d="M190.16 148.536C182.327 154.398 176.343 162.388 172.922 171.556C172.922 171.556 191.021 180.954 192.918 185.868L198.692 177.246C199.228 172.135 198.751 166.967 197.286 162.04C195.822 157.114 193.4 152.524 190.16 148.536V148.536Z" fill="#EFEFEF"/>
<path d="M164.045 217.596C163.355 219.924 165.079 222.166 171.198 224.149C176.025 225.701 205.673 228.718 205.673 228.718L208.603 222.942C208.603 222.942 181.196 207.423 175.594 208.026C172.913 208.222 170.36 209.25 168.291 210.965C166.221 212.68 164.737 214.998 164.045 217.596V217.596Z" fill="#FFAE81"/>
<path d="M237.82 163.71C234.365 159.539 230.527 155.7 226.358 152.243C230.902 155.205 235.069 158.708 238.768 162.676L237.82 163.71Z" fill="#D1E2EE"/>
<path d="M310.562 197.68C310.633 197.624 310.691 197.552 310.731 197.469C310.771 197.387 310.792 197.297 310.792 197.206C310.792 197.115 310.771 197.024 310.731 196.942C310.691 196.86 310.633 196.788 310.562 196.732C308.607 195.751 306.37 195.49 304.243 195.995C302.115 196.499 300.233 197.737 298.927 199.491C298.834 199.531 298.756 199.597 298.701 199.681C298.645 199.766 298.616 199.864 298.616 199.965C298.616 200.066 298.645 200.164 298.701 200.248C298.756 200.332 298.834 200.399 298.927 200.439C298.874 200.531 298.846 200.635 298.846 200.741C298.846 200.847 298.874 200.951 298.927 201.043C301.254 202.077 302.546 200.094 304.615 199.404C306.683 198.715 309.269 200.267 310.562 197.68ZM208.603 216.734C206.888 217.961 205.401 219.478 204.208 221.218V221.218C204.031 221.399 203.907 221.625 203.85 221.873C203.793 222.12 203.805 222.378 203.885 222.618C203.966 222.859 204.11 223.073 204.304 223.236C204.498 223.4 204.733 223.507 204.983 223.545C205.754 223.66 206.539 223.62 207.294 223.428C208.049 223.235 208.758 222.894 209.379 222.425C209.896 221.735 209.379 220.097 210.413 219.666C211.447 219.234 212.654 219.666 213.688 219.666C214.723 219.666 217.05 217.941 215.412 217.251C214.372 216.706 213.232 216.378 212.061 216.29C210.89 216.201 209.714 216.352 208.603 216.734V216.734Z" fill="#FFAE81"/>
<path d="M225.754 223.718C225.086 222.47 224.167 221.373 223.054 220.498C221.942 219.622 220.66 218.987 219.29 218.631C214.335 219.375 209.439 220.47 204.639 221.907C203.777 221.907 210.93 221.907 211.534 222.683C211.543 222.805 211.579 222.924 211.638 223.031C211.697 223.138 211.778 223.231 211.876 223.305C211.973 223.378 212.086 223.43 212.205 223.456C212.324 223.483 212.448 223.484 212.568 223.459C214.637 222.902 216.738 222.471 218.859 222.166C220.669 222.166 222.134 223.89 223.772 224.752C225.409 225.615 226.013 224.149 225.754 223.718ZM222.393 230.788C221.359 228.805 218.773 225.615 216.274 225.356C213.706 224.922 211.084 224.922 208.517 225.356C207.569 225.356 207.741 228.029 208.517 227.942C210.886 228.005 213.248 228.236 215.584 228.632C217.48 228.632 218.773 230.615 220.325 231.564C221.876 232.512 222.738 230.788 222.393 230.788Z" fill="#FFAE81"/>
<path d="M218.256 231.822C218.124 230.428 217.655 229.088 216.89 227.916C216.124 226.744 215.084 225.777 213.861 225.097C211.2 224.751 208.506 224.751 205.845 225.097C205.652 225.089 205.461 225.14 205.298 225.244C205.135 225.347 205.007 225.498 204.932 225.677C204.857 225.855 204.838 226.052 204.878 226.241C204.918 226.43 205.015 226.603 205.156 226.735C205.131 226.855 205.132 226.979 205.159 227.098C205.185 227.218 205.237 227.33 205.31 227.428C205.384 227.526 205.477 227.607 205.584 227.666C205.691 227.725 205.81 227.76 205.932 227.77C208.072 227.896 210.202 228.155 212.309 228.546C214.119 229.063 214.895 231.132 216.274 232.426C217.653 233.719 218.342 232.339 218.256 231.822Z" fill="#FFAE81"/>
<path d="M224.806 228.546C224.378 227.214 223.673 225.987 222.737 224.947C221.802 223.907 220.656 223.077 219.377 222.511C216.706 222.409 214.034 222.699 211.448 223.373C210.5 223.373 210.413 224.494 210.93 225.097C210.917 225.225 210.932 225.355 210.975 225.476C211.018 225.597 211.087 225.707 211.178 225.798C211.269 225.889 211.379 225.958 211.5 226.001C211.621 226.044 211.751 226.059 211.879 226.046C213.972 225.873 216.076 225.873 218.17 226.046C220.066 226.046 221.1 228.288 222.652 229.408C224.203 230.529 224.979 229.063 224.806 228.546Z" fill="#FFAE81"/>
<path d="M203.346 227.77C203.346 227.77 208.948 230.701 211.965 228.287C213.358 226.821 214.391 225.05 214.981 223.114L213.947 219.924L204.639 222.166L203.346 227.77Z" fill="#FFAE81"/>
<path d="M228.082 85.1659C228.082 85.1659 214.809 95.2534 184.988 94.3912L177.059 77.1476C177.059 77.1476 193.176 83.4415 228.771 69.2156C229.642 74.5231 229.407 79.9533 228.082 85.1659V85.1659Z" fill="#EFEFEF"/>
<path d="M228.426 69.4742C212.663 78.134 194.348 80.9434 176.715 77.4062C192.671 69.3309 210.784 66.5525 228.426 69.4742V69.4742Z" fill="#D1E2EE"/>
<path d="M453.096 243.117H510.41V231.305H453.096V243.117Z" fill="#7874A8"/>
<path d="M506.531 243.117H514.288L522.045 160.003H514.288L506.531 243.117Z" fill="#7874A8"/>
<path d="M481.107 91.4597L516.788 163.538L522.045 160.003L486.364 88.011L481.107 91.4597Z" fill="#7874A8"/>
<path d="M431.722 123.447L483.434 93.1842V86.2867L431.722 116.463V123.447Z" fill="#7874A8"/>
<path d="M448.183 106.893L461.284 117.842L465.938 112.152C466.6 111.281 466.906 110.19 466.794 109.101C466.682 108.013 466.16 107.007 465.334 106.289L458.526 100.599C458.122 100.25 457.653 99.9853 457.145 99.8218C456.638 99.6584 456.102 99.599 455.571 99.6473C455.04 99.6956 454.525 99.8505 454.055 100.103C453.585 100.355 453.171 100.7 452.837 101.116L448.183 106.893Z" fill="#6A669A"/>
<path d="M412.502 112.411L411.726 113.445L411.209 114.049C409.83 117.584 418.88 128.964 432.239 139.914C445.598 150.864 458.095 158.02 461.37 155.951L461.887 155.347L462.749 154.312C468.262 147.524 470.891 138.842 470.069 130.134C469.246 121.427 465.039 113.39 458.353 107.755C455.062 104.992 451.25 102.918 447.144 101.654C443.037 100.391 438.719 99.9632 434.445 100.397C430.17 100.831 426.026 102.118 422.257 104.181C418.489 106.245 415.171 109.043 412.502 112.411V112.411Z" fill="#7874A8"/>
<path d="M409.682 113.704C408.303 117.239 417.353 128.62 430.711 139.569C444.07 150.519 456.567 157.675 459.842 155.606C461.48 152.157 452.344 140.69 438.899 129.741C425.454 118.791 413.043 111.462 409.682 113.79V113.704Z" fill="#EFEFEF"/>
<path d="M446.219 129.223C445.529 130.603 448.115 133.275 451.562 136.207C455.01 139.138 458.112 141.207 459.319 140.173C459.527 139.896 459.758 139.636 460.009 139.397V139.397C460.784 138.103 458.716 134.741 455.182 131.81C451.648 128.878 448.029 127.412 446.563 128.447C446.431 128.698 446.316 128.957 446.219 129.223V129.223Z" fill="#6A669A"/>
<path d="M446.219 129.223C445.529 130.603 447.598 133.879 451.045 136.81C454.493 139.742 458.113 141.207 459.664 140.173C460.44 138.88 458.371 135.517 454.838 132.586C451.304 129.654 447.684 128.189 446.219 129.223Z" fill="#EFEFEF"/>
<path d="M478.176 89.8217C478.176 88.7815 478.485 87.7647 479.062 86.8998C479.64 86.0349 480.461 85.3608 481.422 84.9627C482.382 84.5647 483.439 84.4605 484.459 84.6634C485.479 84.8664 486.416 85.3673 487.151 86.1028C487.886 86.8383 488.387 87.7754 488.59 88.7956C488.793 89.8158 488.689 90.8733 488.291 91.8343C487.893 92.7953 487.219 93.6167 486.354 94.1946C485.49 94.7725 484.473 95.0809 483.434 95.0809C482.039 95.0809 480.702 94.5269 479.716 93.5406C478.73 92.5543 478.176 91.2165 478.176 89.8217Z" fill="#6A669A"/>
<path d="M480.245 89.8217C480.245 89.2419 480.416 88.6751 480.738 88.1931C481.06 87.711 481.518 87.3353 482.054 87.1134C482.589 86.8915 483.178 86.8335 483.747 86.9466C484.315 87.0597 484.837 87.3389 485.247 87.7489C485.657 88.1588 485.936 88.6811 486.049 89.2498C486.162 89.8184 486.104 90.4078 485.882 90.9435C485.66 91.4791 485.285 91.9369 484.803 92.2591C484.321 92.5812 483.755 92.7531 483.175 92.7531C482.79 92.7531 482.409 92.6773 482.054 92.5299C481.698 92.3826 481.375 92.1667 481.103 91.8945C480.831 91.6223 480.615 91.2991 480.468 90.9435C480.32 90.5878 480.245 90.2066 480.245 89.8217V89.8217Z" fill="#EFEFEF"/>
<path d="M512.909 160.003C512.926 158.966 513.249 157.958 513.837 157.105C514.425 156.251 515.252 155.591 516.214 155.206C517.176 154.821 518.23 154.729 519.244 154.942C520.258 155.154 521.187 155.662 521.913 156.4C522.64 157.139 523.132 158.076 523.328 159.094C523.524 160.112 523.415 161.165 523.015 162.121C522.615 163.077 521.941 163.893 521.078 164.468C520.216 165.042 519.203 165.348 518.166 165.348C517.469 165.348 516.778 165.21 516.134 164.94C515.491 164.67 514.907 164.275 514.418 163.778C513.929 163.28 513.543 162.69 513.284 162.042C513.025 161.394 512.898 160.701 512.909 160.003V160.003Z" fill="#6A669A"/>
<path d="M515.236 160.003C515.253 159.427 515.44 158.869 515.772 158.399C516.104 157.928 516.567 157.566 517.104 157.357C517.641 157.148 518.227 157.102 518.79 157.225C519.352 157.348 519.866 157.633 520.267 158.047C520.669 158.46 520.939 158.982 521.046 159.548C521.152 160.114 521.089 160.699 520.865 161.23C520.641 161.761 520.265 162.214 519.786 162.532C519.306 162.85 518.743 163.02 518.167 163.021C517.382 162.998 516.636 162.67 516.089 162.107C515.542 161.543 515.236 160.789 515.236 160.003V160.003Z" fill="#EFEFEF"/>
<path d="M402.523 326.92H407.78L451.218 231.305H446.047L402.523 326.92Z" fill="#6A669A"/>
<path d="M347.966 326.92H353.138L396.662 231.305H391.404L347.966 326.92Z" fill="#6A669A"/>
<path d="M259.608 237.254H472.574C472.597 235.632 472.297 234.021 471.692 232.516C471.088 231.011 470.19 229.64 469.051 228.485C467.912 227.33 466.555 226.413 465.059 225.787C463.563 225.161 461.957 224.838 460.336 224.839H271.846C270.228 224.85 268.627 225.18 267.136 225.81C265.645 226.44 264.293 227.358 263.157 228.511C262.02 229.663 261.122 231.029 260.513 232.529C259.904 234.029 259.596 235.635 259.608 237.254V237.254Z" fill="#EFEFEF"/>
<path d="M258.056 243.117H473.522L473.608 231.305H255.729L258.056 243.117Z" fill="#7874A8"/>
<path d="M310.371 323.903H468.437V231.305H473.608V386.497C473.608 388.783 472.7 390.976 471.084 392.593C469.467 394.21 467.275 395.119 464.99 395.119H309.854C307.568 395.119 305.376 394.21 303.76 392.593C302.144 390.976 301.236 388.783 301.236 386.497V332.525C301.233 331.347 301.472 330.182 301.937 329.101C302.402 328.02 303.084 327.045 303.94 326.238C304.796 325.43 305.808 324.806 306.914 324.404C308.02 324.003 309.197 323.832 310.371 323.903V323.903ZM468.437 330.024H312.44C310.992 330.047 309.611 330.638 308.595 331.671C307.579 332.703 307.01 334.094 307.01 335.542V383.652C307.01 385.1 307.579 386.491 308.595 387.523C309.611 388.556 310.992 389.147 312.44 389.17H463.007C463.728 389.17 464.441 389.026 465.105 388.748C465.77 388.47 466.372 388.062 466.877 387.548C467.383 387.035 467.781 386.426 468.049 385.757C468.316 385.088 468.448 384.372 468.437 383.652V330.024Z" fill="#6A669A"/>
<path d="M454.389 402.016C454.423 403.918 455.018 405.768 456.099 407.333C457.18 408.898 458.699 410.109 460.466 410.814C462.232 411.518 464.167 411.685 466.028 411.293C467.889 410.901 469.593 409.968 470.926 408.611C472.259 407.254 473.161 405.533 473.52 403.665C473.879 401.797 473.678 399.864 472.942 398.11C472.207 396.355 470.97 394.857 469.386 393.803C467.803 392.75 465.944 392.188 464.042 392.187C462.763 392.199 461.499 392.462 460.321 392.962C459.144 393.462 458.077 394.189 457.18 395.102C456.284 396.014 455.576 397.095 455.097 398.281C454.618 399.467 454.378 400.737 454.389 402.016V402.016Z" fill="#7874A8"/>
<path d="M458.181 402.016C458.198 403.175 458.559 404.304 459.217 405.258C459.875 406.213 460.801 406.95 461.878 407.378C462.956 407.806 464.136 407.905 465.269 407.662C466.402 407.419 467.438 406.845 468.246 406.013C469.053 405.182 469.596 404.129 469.805 402.988C470.015 401.848 469.881 400.671 469.422 399.607C468.963 398.542 468.198 397.637 467.225 397.007C466.252 396.377 465.114 396.05 463.955 396.067C463.186 396.078 462.426 396.241 461.719 396.546C461.012 396.851 460.373 397.293 459.836 397.845C459.3 398.397 458.878 399.05 458.594 399.766C458.31 400.482 458.17 401.246 458.181 402.016V402.016Z" fill="#EFEFEF"/>
<path d="M436.049 402.016C436.083 403.918 436.678 405.768 437.759 407.333C438.84 408.898 440.359 410.109 442.126 410.814C443.892 411.518 445.828 411.685 447.689 411.293C449.55 410.901 451.253 409.968 452.586 408.611C453.919 407.254 454.821 405.533 455.18 403.665C455.539 401.797 455.338 399.864 454.602 398.11C453.867 396.355 452.63 394.857 451.046 393.803C449.463 392.75 447.604 392.188 445.702 392.187C444.423 392.199 443.159 392.462 441.981 392.962C440.804 393.462 439.737 394.189 438.84 395.102C437.944 396.014 437.236 397.095 436.757 398.281C436.278 399.467 436.038 400.737 436.049 402.016V402.016Z" fill="#7874A8"/>
<path d="M440.013 402.016C440.013 403.579 440.628 405.079 441.725 406.192C442.821 407.306 444.312 407.942 445.874 407.965C447.451 407.965 448.964 407.338 450.079 406.223C451.194 405.107 451.821 403.594 451.821 402.016C451.821 400.438 451.194 398.925 450.079 397.809C448.964 396.694 447.451 396.067 445.874 396.067C444.312 396.09 442.821 396.726 441.725 397.84C440.628 398.953 440.013 400.453 440.013 402.016V402.016Z" fill="#EFEFEF"/>
<path d="M352.104 402.016C352.138 403.918 352.732 405.768 353.814 407.333C354.895 408.898 356.414 410.109 358.18 410.814C359.947 411.518 361.882 411.685 363.743 411.293C365.604 410.901 367.308 409.968 368.641 408.611C369.973 407.254 370.876 405.533 371.235 403.665C371.593 401.797 371.392 399.864 370.657 398.11C369.922 396.355 368.684 394.857 367.101 393.803C365.518 392.75 363.658 392.188 361.757 392.187C360.478 392.199 359.213 392.462 358.036 392.962C356.859 393.462 355.791 394.189 354.895 395.102C353.999 396.014 353.291 397.095 352.812 398.281C352.333 399.467 352.092 400.737 352.104 402.016V402.016Z" fill="#7874A8"/>
<path d="M355.896 402.016C355.913 403.172 356.271 404.297 356.925 405.249C357.579 406.202 358.501 406.94 359.573 407.371C360.645 407.801 361.821 407.905 362.952 407.669C364.083 407.433 365.119 406.868 365.93 406.045C366.741 405.222 367.291 404.177 367.51 403.042C367.729 401.907 367.608 400.733 367.162 399.667C366.716 398.6 365.965 397.69 365.003 397.049C364.042 396.409 362.912 396.067 361.757 396.067C360.194 396.09 358.704 396.726 357.607 397.84C356.51 398.953 355.896 400.453 355.896 402.016V402.016Z" fill="#EFEFEF"/>
<path d="M317.887 402.016C317.921 403.918 318.516 405.768 319.597 407.333C320.678 408.898 322.198 410.109 323.964 410.814C325.731 411.518 327.666 411.685 329.527 411.293C331.388 410.901 333.092 409.968 334.425 408.611C335.757 407.254 336.66 405.533 337.018 403.665C337.377 401.797 337.176 399.864 336.441 398.11C335.705 396.355 334.468 394.857 332.885 393.803C331.301 392.75 329.442 392.188 327.54 392.187C326.261 392.199 324.997 392.462 323.82 392.962C322.643 393.462 321.575 394.189 320.679 395.102C319.783 396.014 319.075 397.095 318.596 398.281C318.117 399.467 317.876 400.737 317.887 402.016V402.016Z" fill="#7874A8"/>
<path d="M321.68 402.016C321.697 403.172 322.055 404.297 322.709 405.249C323.363 406.202 324.284 406.94 325.357 407.371C326.429 407.801 327.604 407.905 328.735 407.669C329.867 407.433 330.903 406.868 331.714 406.045C332.525 405.222 333.075 404.177 333.294 403.042C333.513 401.907 333.392 400.733 332.946 399.667C332.5 398.6 331.749 397.69 330.787 397.049C329.825 396.409 328.696 396.067 327.54 396.067C326.763 396.067 325.994 396.221 325.277 396.521C324.561 396.821 323.911 397.261 323.365 397.815C322.82 398.368 322.39 399.025 322.101 399.746C321.811 400.467 321.668 401.239 321.68 402.016Z" fill="#EFEFEF"/>
<path d="M352.479 205.942C352.479 205.942 352.01 213.778 351.721 215.482C351.432 217.186 350.845 219.424 349.264 220.879C347.682 222.333 346.5 223.682 345.356 223.884C344.213 224.085 339.224 223.884 338.917 223.446C338.611 223.008 338.186 222.819 338.374 221.948C338.562 221.076 339.749 220.918 340.766 220.541C341.782 220.165 343.394 220.279 344.292 219.197C345.19 218.115 346.189 215.916 346.075 214.939C345.961 213.962 344.007 204.627 344.007 204.627C344.007 204.627 351.029 197.592 352.479 205.942Z" fill="#A67F45"/>
<path d="M393.545 180.706C393.545 180.706 399.393 182.335 401.78 186.4C404.167 190.465 412.201 203.142 413.235 204.211C414.269 205.28 424.948 211.771 425.938 215.206C426.928 218.64 426.972 221.535 425.018 222.994C423.064 224.453 422.543 224.269 421.707 221.978C420.87 219.687 421.19 216.016 420.064 215.578C418.938 215.14 409.801 210.589 403.51 209.082C397.22 207.575 388.481 200.759 387.281 199.081C386.081 197.404 393.545 180.706 393.545 180.706Z" fill="#A67F45"/>
<path d="M306.931 184.039C306.168 183.326 305.216 182.847 304.189 182.659C304.062 182.659 304.119 182.449 304.242 182.471C305.303 182.666 306.285 183.164 307.071 183.903C307.163 183.991 307.023 184.127 306.931 184.039V184.039Z" fill="#606060"/>
<path d="M306.029 184.162C305.192 183.986 304.325 184.016 303.502 184.249C303.384 184.293 303.335 184.1 303.454 184.056C304.294 183.82 305.179 183.788 306.034 183.964C306.156 183.964 306.156 184.175 306.034 184.162H306.029Z" fill="#606060"/>
<path d="M306.02 184.587C305.366 184.847 304.775 185.245 304.287 185.754C303.8 186.262 303.427 186.87 303.195 187.535C303.155 187.653 302.963 187.6 303.006 187.478C303.245 186.788 303.629 186.157 304.132 185.628C304.636 185.099 305.246 184.684 305.924 184.412C306.042 184.363 306.138 184.534 306.02 184.582V184.587Z" fill="#606060"/>
<path d="M308.491 189.234C309.656 190.369 312.95 189.835 314.186 189.589L314.352 189.567C314.425 189.563 314.498 189.563 314.571 189.567C314.763 189.571 314.95 189.629 315.11 189.734C316.468 190.089 319.705 190.952 322.162 191.784C323.133 192.075 324.07 192.469 324.957 192.958C325.612 193.24 326.206 193.644 326.709 194.149C328.199 195.621 334.498 200.527 334.498 200.527C334.498 200.527 325.763 207.877 325.299 208.46C324.834 209.043 323.547 212.179 323.109 214.014C322.67 215.85 323.915 217.12 325.075 218.452C326.236 219.783 328.326 220.743 329.517 220.103C330.708 219.464 329.802 218.728 329.237 217.142C328.672 215.556 328.575 213.515 329.719 211.956C330.862 210.396 338.129 208.477 342.146 207.952C344.428 207.626 346.52 206.499 348.046 204.772C348.217 204.579 348.305 204.456 348.318 204.439C348.318 204.439 350 206.046 358.664 206.914C367.329 207.781 375.66 205.087 375.989 205.254C376.317 205.42 378.748 209.196 380.102 210.817C381.455 212.437 381.907 213.213 381.893 213.935C381.88 214.658 380.242 218.447 378.77 220.002C377.298 221.557 374.915 222.372 373.724 222.744C372.533 223.117 370.693 223.222 370.658 224.865C370.623 226.507 375.178 225.793 376.69 225.82C378.201 225.846 388.079 220.563 389.625 218.995C391.171 217.427 390.063 211.509 390.786 208.364C391.508 205.219 394.386 205.53 397.794 197.956C401.202 190.382 396.48 184.85 396.48 184.85C395.705 183.711 396.848 178.608 400.817 173.023C404.785 167.438 407.002 156.951 406.104 151.475C405.206 146 401.697 139.701 395.065 139.066C388.433 138.431 387.776 142.57 388.144 144.081C388.512 145.593 393.904 141.742 397.658 145.422C401.412 149.101 401.886 156.075 399.157 162.015C396.428 167.954 388.736 176.032 387.676 176.558C386.616 177.083 382.051 174.621 375.2 175.427C368.349 176.233 364.516 177.096 361.621 176.785C358.726 176.474 342.159 176.593 340.845 176.571C339.531 176.549 334.603 176.404 332.886 176.834C331.168 177.263 324.887 175.388 324.563 175.384C324.239 175.379 323.844 174.911 323.402 174.069C322.96 173.228 321.212 170.416 320.436 170.337C319.661 170.259 318.176 171.945 317.769 172.729C317.361 173.513 317.366 173.167 317.103 173.044C316.84 172.922 314.037 168.59 313.629 168.318C313.222 168.046 313.165 172.655 312.495 173.574C311.825 174.494 312.495 173.574 311.43 174.28C310.366 174.985 309.214 177.004 308.255 179.357C307.295 181.709 305.885 183.395 305.67 184.442C305.456 185.489 307.326 188.096 308.491 189.234Z" fill="#F8A458"/>
<path d="M305.872 184.477C305.872 184.477 307.352 184.35 307.435 184.503C307.519 184.657 306.559 186.584 306.375 186.396C306.191 186.207 305.407 184.81 305.872 184.477Z" fill="#606060"/>
<path d="M309.831 186.102C310.826 186.497 311.82 186.943 312.315 187.955C312.849 189.125 313.057 190.417 312.919 191.696C312.919 191.819 312.714 191.819 312.722 191.696C312.841 190.557 312.691 189.407 312.284 188.336C311.82 187.197 310.878 186.724 309.792 186.295C309.678 186.247 309.731 186.059 309.849 186.107L309.831 186.102Z" fill="#606060"/>
<path d="M309.305 186.667C310.313 187.521 310.993 188.697 311.228 189.996C311.255 190.119 311.062 190.172 311.04 190.045C310.807 188.78 310.145 187.635 309.165 186.803C309.069 186.724 309.213 186.584 309.305 186.667V186.667Z" fill="#606060"/>
<path d="M308.731 187.701C309.511 188.235 309.805 189.116 310.046 189.987C310.44 191.363 310.733 192.765 310.922 194.184C310.922 194.306 310.746 194.359 310.733 194.232C310.575 193.065 310.349 191.908 310.054 190.767C309.787 189.742 309.542 188.502 308.613 187.867C308.512 187.797 308.613 187.626 308.718 187.701H308.731Z" fill="#606060"/>
<path d="M311.461 180.75C311.461 181.249 311.71 181.656 312.034 181.665C312.359 181.674 312.63 181.267 312.639 180.789C312.648 180.312 312.389 179.882 312.065 179.878C311.741 179.874 311.469 180.25 311.461 180.75Z" fill="#606060"/>
<path d="M314.601 189.554C314.793 189.558 314.98 189.615 315.14 189.721V189.721C316.498 190.075 319.735 190.938 322.193 191.771C326.187 188.385 326.135 184.631 326.135 184.631C326.135 184.631 324.308 187.719 321.864 188.573C319.718 189.296 315.622 189.51 314.601 189.554Z" fill="#A67F45"/>
<path d="M334.541 200.514C334.541 200.514 341.681 194.259 340.879 194.819C340.078 195.38 330.769 197.544 330.769 197.544L334.541 200.514Z" fill="#A67F45"/>
<path d="M348.353 204.421C348.353 204.421 350.035 206.029 358.699 206.896C367.364 207.763 375.695 205.069 376.024 205.236L373.698 198.727C373.698 198.727 370.811 206.173 361.03 205.297C351.248 204.421 349.097 198.985 348.962 199.248C348.826 199.511 349.921 202.875 348.353 204.421Z" fill="#A67F45"/>
<defs>
<linearGradient id="paint0_linear_11848_2387" x1="314.699" y1="82.493" x2="314.699" y2="17.4849" gradientUnits="userSpaceOnUse">
<stop stop-color="white"/>
<stop offset="1" stop-color="#9A4AFF"/>
</linearGradient>
</defs>
</svg>
