<svg width="76" height="75" viewBox="0 0 76 75" fill="none" xmlns="http://www.w3.org/2000/svg">
<path d="M30.3349 46.1747C30.4839 46.4231 30.7777 46.6508 31.3131 46.2741L37.0411 38.8228C37.3228 38.1729 37.5442 38.115 37.4436 37.0097C37.1415 35.7607 37.1049 34.4593 37.3364 33.1944C37.5678 31.9295 38.0619 30.7309 38.7847 29.6802C39.5076 28.6295 40.4424 27.7515 41.5253 27.1061C42.6081 26.4608 43.8136 26.0632 45.0594 25.9405C45.6677 25.6507 46.2064 25.2267 46.6374 24.6986L51.3429 18.5596C51.9628 17.5165 51.4516 16.9038 51.1094 16.672C49.4987 16.2017 47.8328 15.9608 46.1583 15.9559H36.0186C30.2786 4.92806 20.0825 6.24858 20.0825 6.24858C19.044 12.3296 23.8381 16.1421 27.328 18.0712C23.8623 17.5082 18.6415 17.2102 14.1976 19.2758C14.1976 19.2758 7.87383 21.6974 15.1676 24.9139C15.1676 24.9139 22.8399 28.4035 30.339 24.7152L30.3349 46.1747ZM57.083 19.7022C56.7973 19.5406 56.472 19.4679 56.1469 19.4929C55.8217 19.5179 55.5107 19.6395 55.2515 19.8429L50.5298 25.9985C50.4332 26.4124 50.2521 27.0416 50.9323 27.5218C51.5287 27.9506 52.0697 28.4556 52.5424 29.0245L52.5827 29.07C52.6994 29.2149 52.8121 29.3598 52.9208 29.5129L52.941 29.5419C53.0456 29.6868 53.1462 29.8358 53.2388 29.9849C53.2481 30.0023 53.2589 30.019 53.271 30.0345C54.3763 31.8153 54.8355 33.9398 54.568 36.0345C54.3005 38.1291 53.3234 40.0596 51.8085 41.4865C50.2936 42.9134 48.3379 43.7452 46.2856 43.8357C44.2332 43.9262 42.2155 43.2696 40.5873 41.9813C39.5408 41.6915 39.1584 42.1428 38.7599 42.4574L38.1681 43.277L31.1279 52.413C30.7035 53.273 30.4309 54.2037 30.3229 55.1617V68.3007L40.0278 63.7761V52.3841C42.011 53.0122 44.0713 53.3453 46.1463 53.3734C49.9648 53.3754 53.6871 52.1416 56.7857 49.8468C59.8844 47.552 62.2022 44.3126 63.4108 40.5875C64.6194 36.8625 64.6574 32.8408 63.5195 29.0923C62.3816 25.3438 60.1255 22.0586 57.0709 19.7022H57.083Z" fill="url(#paint0_linear_11043_351)"/>
<defs>
<linearGradient id="paint0_linear_11043_351" x1="11.6538" y1="34.4013" x2="64.3459" y2="34.4013" gradientUnits="userSpaceOnUse">
<stop stop-color="#ECF0F8"/>
<stop offset="1" stop-color="#FEE6F2"/>
</linearGradient>
</defs>
</svg>
