<svg width="49" height="48" viewBox="0 0 49 48" fill="none" xmlns="http://www.w3.org/2000/svg">
<g clip-path="url(#clip0_11882_5534)">
<path d="M25.5221 34.9502H21.9247C21.3238 34.9502 20.835 34.4606 20.835 33.8588V25.7316H18.7363C18.1354 25.7316 17.6466 25.2419 17.6466 24.6402V21.1577C17.6466 20.5559 18.1354 20.0663 18.7363 20.0663H20.835V18.3224C20.835 16.5932 21.3771 15.1221 22.4025 14.0683C23.4326 13.0096 24.872 12.4502 26.5653 12.4502L29.3088 12.4547C29.9087 12.4557 30.3966 12.9453 30.3966 13.5461V16.7795C30.3966 17.3813 29.908 17.8709 29.3073 17.8709L27.4601 17.8716C26.8968 17.8716 26.7533 17.9847 26.7226 18.0194C26.6721 18.0769 26.6119 18.2395 26.6119 18.6884V20.0661H29.1685C29.3609 20.0661 29.5474 20.1137 29.7076 20.2033C30.0533 20.3967 30.2682 20.7626 30.2682 21.1579L30.2669 24.6404C30.2669 25.2419 29.7781 25.7315 29.1772 25.7315H26.6119V33.8588C26.6119 34.4606 26.123 34.9502 25.5221 34.9502ZM22.152 33.6312H25.2948V25.1411C25.2948 24.7393 25.6213 24.4124 26.0224 24.4124H28.9499L28.9511 21.3853H26.0222C25.6211 21.3853 25.2948 21.0585 25.2948 20.6566V18.6884C25.2948 18.173 25.3471 17.587 25.7355 17.1465C26.2047 16.614 26.9442 16.5526 27.4598 16.5526L29.0797 16.5519V13.7734L26.5643 13.7692C23.843 13.7692 22.152 15.514 22.152 18.3224V20.6566C22.152 21.0583 21.8257 21.3853 21.4246 21.3853H18.9635V24.4124H21.4246C21.8257 24.4124 22.152 24.7393 22.152 25.1411V33.6312Z" fill="#F2F2F2" stroke="#F2F2F2"/>
</g>
<rect x="1.38647" y="1" width="46" height="46" rx="23" stroke="#F2F2F2" stroke-width="2"/>
<defs>
<clipPath id="clip0_11882_5534">
<rect width="24" height="24" fill="white" transform="translate(12.3865 12)"/>
</clipPath>
</defs>
</svg>
