<svg width="54" height="54" viewBox="0 0 54 54" fill="none" xmlns="http://www.w3.org/2000/svg">
<path d="M28.5006 41.6001H23.7041C22.903 41.6001 22.2513 40.9473 22.2513 40.1449V29.3087H19.4529C18.6517 29.3087 18 28.6557 18 27.8535V23.2101C18 22.4077 18.6517 21.7549 19.4529 21.7549H22.2513V19.4297C22.2513 17.1242 22.974 15.1626 24.3412 13.7575C25.7146 12.346 27.6339 11.6001 29.8916 11.6001L33.5496 11.606C34.3494 11.6074 35 12.2602 35 13.0613V17.3725C35 18.175 34.3485 18.8277 33.5476 18.8277L31.0847 18.8286C30.3335 18.8286 30.1423 18.9795 30.1014 19.0257C30.034 19.1024 29.9537 19.3191 29.9537 19.9177V21.7547H33.3625C33.6191 21.7547 33.8677 21.8181 34.0814 21.9375C34.5423 22.1955 34.8288 22.6832 34.8288 23.2104L34.827 27.8537C34.827 28.6557 34.1753 29.3085 33.3741 29.3085H29.9537V40.1449C29.9537 40.9473 29.3018 41.6001 28.5006 41.6001ZM24.0072 39.8414H28.1976V28.5213C28.1976 27.9855 28.6329 27.5497 29.1677 27.5497H33.0711L33.0727 23.5136H29.1674C28.6327 23.5136 28.1976 23.0778 28.1976 22.542V19.9177C28.1976 19.2306 28.2673 18.4492 28.7851 17.8618C29.4108 17.1519 30.3968 17.0699 31.0842 17.0699L33.2441 17.069V13.3643L29.8902 13.3588C26.2619 13.3588 24.0072 15.6852 24.0072 19.4297V22.542C24.0072 23.0776 23.5721 23.5136 23.0373 23.5136H19.7559V27.5497H23.0373C23.5721 27.5497 24.0072 27.9855 24.0072 28.5213V39.8414Z" fill="#6D6D6D" stroke="#6D6D6D" stroke-width="0.6"/>
<rect x="1.88643" y="1.9001" width="50.2" height="50.2" rx="25.1" stroke="#6D6D6D" stroke-width="2.6"/>
</svg>
