<svg width="80" height="80" viewBox="0 0 80 80" fill="none" xmlns="http://www.w3.org/2000/svg">
<path d="M70.9772 40.4077L62.2736 26.9672C61.599 25.9255 60.4553 25.3035 59.2142 25.3035H20.8131C19.5739 25.3035 18.4312 25.9239 17.7564 26.963L9.02577 40.4052C8.13358 41.7786 8.27139 43.5921 9.36093 44.8149L37.2769 76.1555C37.9678 76.9311 38.9597 77.3761 39.9984 77.3761C39.9986 77.3761 39.9984 77.3761 39.9986 77.3761C41.0372 77.3761 42.0294 76.9313 42.7203 76.1557L70.6394 44.8132C71.7273 43.5917 71.8662 41.7802 70.9772 40.4077ZM57.4511 28.4283L50.1314 39.7471L42.8073 28.4283H57.4511ZM47.2597 41.0614H32.7372L39.9984 29.8397L47.2597 41.0614ZM37.1895 28.4286L29.8856 39.7163L22.5842 28.4286H37.1895V28.4286ZM19.695 29.7153L27.0341 41.0614H12.3258L19.695 29.7153ZM12.9858 44.1864H28.7116L37.0266 71.1763L12.9858 44.1864ZM39.9984 70.2088L31.9814 44.1864H48.0155L39.9984 70.2088ZM42.9701 71.1772L51.2855 44.1866H67.0126L42.9701 71.1772ZM53.0031 41.0614L60.3355 29.7232L67.6775 41.0614H53.0031Z" fill="#3F3F3F"/>
<path d="M4.73953 41.0615H1.5625C0.699688 41.0615 0 41.7611 0 42.624C0 43.487 0.699688 44.1865 1.5625 44.1865H4.73953C5.60234 44.1865 6.30203 43.487 6.30203 42.624C6.30203 41.7611 5.60234 41.0615 4.73953 41.0615Z" fill="#3F3F3F"/>
<path d="M78.4375 41.0615H75.2605C74.3977 41.0615 73.698 41.7611 73.698 42.624C73.698 43.487 74.3977 44.1865 75.2605 44.1865H78.4375C79.3003 44.1865 80 43.487 80 42.624C80 41.7611 79.3003 41.0615 78.4375 41.0615Z" fill="#3F3F3F"/>
<path d="M68.3041 14.3478C67.6938 13.7376 66.7047 13.7376 66.0942 14.3478L60.9041 19.5379C60.2939 20.1481 60.2939 21.1374 60.9041 21.7476C61.2094 22.0528 61.6092 22.2053 62.0091 22.2053C62.4091 22.2053 62.8088 22.0526 63.1139 21.7476L68.3041 16.5574C68.9142 15.9473 68.9142 14.9581 68.3041 14.3478Z" fill="#3F3F3F"/>
<path d="M19.1634 19.5102L13.9734 14.3199C13.3634 13.7098 12.3744 13.7098 11.7636 14.3199C11.1534 14.9301 11.1534 15.9195 11.7636 16.5296L16.9537 21.7198C17.2589 22.0249 17.6587 22.1774 18.0586 22.1774C18.4584 22.1774 18.8583 22.0248 19.1634 21.7198C19.7736 21.1098 19.7736 20.1202 19.1634 19.5102Z" fill="#3F3F3F"/>
<path d="M40.0397 2.62402C39.1769 2.62402 38.4772 3.32355 38.4772 4.18652V14.369C38.4772 15.232 39.1767 15.9315 40.0397 15.9315C40.9025 15.9315 41.6022 15.232 41.6022 14.369V4.18652C41.6022 3.32371 40.9025 2.62402 40.0397 2.62402Z" fill="#3F3F3F"/>
<path d="M41.1436 18.5501C40.8531 18.2595 40.45 18.0923 40.0391 18.0923C39.6281 18.0923 39.225 18.2595 38.9344 18.5501C38.6437 18.8407 38.4766 19.2438 38.4766 19.6548C38.4766 20.0673 38.6436 20.4688 38.9344 20.7595C39.225 21.0517 39.6281 21.2173 40.0391 21.2173C40.45 21.2173 40.8531 21.0517 41.1436 20.7595C41.4358 20.4688 41.6016 20.0657 41.6016 19.6548C41.6016 19.2438 41.4358 18.8409 41.1436 18.5501Z" fill="#3F3F3F"/>
</svg>
