<svg width="80" height="80" viewBox="0 0 80 80" fill="none" xmlns="http://www.w3.org/2000/svg">
<path d="M40 0C23.4309 0 9.95813 13.4728 9.95813 30.0418C9.95813 46.1925 37.7406 78.159 38.9121 79.4979C39.1632 79.8326 39.5816 80 40 80C40.4184 80 40.8368 79.8326 41.0878 79.4979C42.2594 78.159 70.0418 46.1925 70.0418 30.0418C70.0418 13.4728 56.569 0 40 0ZM40 76.2343C34.728 70.0418 12.887 43.3473 12.887 30.0418C12.887 15.0628 25.0209 2.92887 40 2.92887C54.9791 2.92887 67.1129 15.0628 67.1129 30.0418C67.1129 43.3473 45.2719 70.0418 40 76.2343Z" fill="#3F3F3F"/>
<path d="M40 8.36816C27.6988 8.36816 17.7406 18.41 17.7406 30.6276C17.7406 42.8451 27.6988 52.887 40 52.887C52.3013 52.887 62.2594 42.9288 62.2594 30.6276C62.2594 18.3263 52.3013 8.36816 40 8.36816ZM40 49.9581C29.3724 49.9581 20.6695 41.2552 20.6695 30.6276C20.6695 20 29.2887 11.297 40 11.297C50.7113 11.297 59.3306 19.9163 59.3306 30.6276C59.3306 41.3389 50.6276 49.9581 40 49.9581Z" fill="#3F3F3F"/>
<path d="M51.2971 25.3556H45.272V19.3305C45.272 18.4937 44.6025 17.8242 43.7657 17.8242H36.2343C35.3975 17.8242 34.728 18.4937 34.728 19.3305V25.3556H28.7029C27.8661 25.3556 27.1967 26.0251 27.1967 26.8619V34.3933C27.1967 35.2301 27.8661 35.8995 28.7029 35.8995H34.728V41.9246C34.728 42.7615 35.3975 43.4309 36.2343 43.4309H43.7657C44.6025 43.4309 45.272 42.7615 45.272 41.9246V35.8995H51.2971C52.1339 35.8995 52.8033 35.2301 52.8033 34.3933V26.8619C52.8033 26.0251 52.1339 25.3556 51.2971 25.3556ZM49.7908 32.887H43.7657C42.9289 32.9707 42.2594 33.6401 42.2594 34.3933V40.4184H37.6569V34.3933C37.6569 33.5564 36.9875 32.887 36.1506 32.887H30.1255V28.2845H36.1506C36.9875 28.2845 37.6569 27.615 37.6569 26.7782V20.7531H42.2594V26.7782C42.2594 27.615 42.9289 28.2845 43.7657 28.2845H49.7908V32.887Z" fill="#3F3F3F"/>
</svg>
