<svg width="80" height="80" viewBox="0 0 80 80" fill="none" xmlns="http://www.w3.org/2000/svg">
<g clip-path="url(#clip0_11854_4386)">
<path d="M51.9238 19.4491C51.3342 19.4491 50.7932 19.0665 50.5946 18.5123C50.3982 17.9648 50.5669 17.3368 51.0105 16.9605C51.473 16.5683 52.1534 16.5179 52.6688 16.8378C53.162 17.1441 53.422 17.7435 53.3074 18.3126C53.1762 18.9639 52.5898 19.4491 51.9238 19.4491Z" fill="#3F3F3F"/>
<path d="M53.8344 38.1091C49.7734 38.1091 46.4695 34.8066 46.4695 30.7475C46.4695 26.6884 49.7734 23.3859 53.8344 23.3859C57.8955 23.3859 61.1993 26.6884 61.1993 30.7475C61.1993 34.8066 57.8953 38.1091 53.8344 38.1091V38.1091ZM53.8344 26.2095C51.3303 26.2095 49.2931 28.2453 49.2931 30.7475C49.2931 33.2497 51.3303 35.2855 53.8344 35.2855C56.3384 35.2855 58.3758 33.2497 58.3758 30.7475C58.3758 28.2453 56.3384 26.2095 53.8344 26.2095V26.2095Z" fill="#3F3F3F"/>
<path d="M75.9553 50.1323L70.7679 30.4938V22.0388C70.7679 19.7131 69.2937 17.7251 67.2307 16.9604L66.3181 13.5052C65.5302 10.5217 62.4559 8.73339 59.4653 9.51919C59.4653 9.51919 32.6015 16.5858 32.5204 16.6249H14.6461C11.6607 16.6249 9.23206 19.0536 9.23206 22.039V22.8567L8.04179 23.1694C6.59034 23.5504 5.37523 24.4734 4.62049 25.768C3.86773 27.059 3.6633 28.5652 4.04477 30.0093L9.23206 49.6482V58.1027C9.23206 60.4439 10.726 62.4427 12.8106 63.1962L13.682 66.4952C14.3442 69.003 16.622 70.6662 19.1076 70.6662C19.5791 70.6662 20.058 70.6063 20.5347 70.4811L47.0461 63.5165H65.354C68.3393 63.5165 70.768 61.0879 70.768 58.1025V57.2848L71.9583 56.9721C73.4097 56.5908 74.625 55.6678 75.3796 54.3732C76.1322 53.0827 76.3366 51.5764 75.9553 50.1323V50.1323ZM6.77472 29.2883C6.58596 28.5741 6.68733 27.8289 7.05962 27.1903C7.43416 26.5478 8.03784 26.0896 8.75925 25.9L9.23206 25.7758V38.592L6.77472 29.2883ZM28.2951 60.6931H17.2658L30.2225 42.1751L36.5986 51.2882L28.2951 60.6931ZM19.8171 67.7503C18.3311 68.1405 16.8026 67.2545 16.4118 65.7743L15.8155 63.5167H35.933L19.8171 67.7503ZM32.0618 60.6931L44.5997 46.4922L57.1376 60.6931H32.0618ZM65.3538 60.6931H60.9042L45.658 43.4248C45.3901 43.1213 45.0046 42.9475 44.5997 42.9475C44.1948 42.9475 43.8094 43.1213 43.5415 43.4248L38.5213 49.1108L31.3793 38.9032C31.1152 38.5257 30.6833 38.3008 30.2226 38.3008C29.7618 38.3008 29.3301 38.5257 29.066 38.9032L13.897 60.5827C12.8327 60.2607 12.0556 59.2708 12.0556 58.1028V22.0387C12.0556 20.6102 13.2176 19.4482 14.6461 19.4482H45.5157C46.2953 19.4482 46.9275 18.8162 46.9275 18.0364C46.9275 17.2567 46.2953 16.6247 45.5157 16.6247H43.5293L60.1828 12.2498C61.67 11.8593 63.1972 12.7457 63.5881 14.2259L64.2217 16.6247H58.2799C57.5003 16.6247 56.8681 17.2567 56.8681 18.0364C56.8681 18.8162 57.5003 19.4482 58.2799 19.4482H65.3538C66.7821 19.4482 67.9443 20.6102 67.9443 22.0387V58.1028C67.9443 59.5311 66.7823 60.6931 65.3538 60.6931V60.6931ZM72.9403 52.9514C72.5658 53.5937 71.9621 54.052 71.2407 54.2414L70.7679 54.3657V41.5497L73.2253 50.8533C73.4138 51.5675 73.3126 52.3127 72.9403 52.9514V52.9514Z" fill="#3F3F3F"/>
</g>
<defs>
<clipPath id="clip0_11854_4386">
<rect width="72.2856" height="72.2856" fill="white" transform="translate(3.85718 3.85718)"/>
</clipPath>
</defs>
</svg>
