<svg width="54" height="54" viewBox="0 0 54 54" fill="none" xmlns="http://www.w3.org/2000/svg">
<path d="M34.0531 13.6667H20.7198C17.0379 13.6667 14.0531 16.6515 14.0531 20.3334V33.6667C14.0531 37.3486 17.0379 40.3334 20.7198 40.3334H34.0531C37.735 40.3334 40.7198 37.3486 40.7198 33.6667V20.3334C40.7198 16.6515 37.735 13.6667 34.0531 13.6667Z" stroke="#6D6D6D" stroke-width="2.6" stroke-linecap="round" stroke-linejoin="round"/>
<path d="M32.7196 26.1602C32.8841 27.2698 32.6946 28.4031 32.1779 29.3988C31.6613 30.3946 30.8438 31.202 29.8417 31.7064C28.8397 32.2107 27.7042 32.3863 26.5966 32.2081C25.4891 32.0298 24.4659 31.5069 23.6727 30.7137C22.8795 29.9205 22.3566 28.8973 22.1783 27.7898C22.0001 26.6822 22.1757 25.5467 22.68 24.5447C23.1844 23.5426 23.9918 22.7251 24.9876 22.2085C25.9833 21.6918 27.1166 21.5023 28.2262 21.6668C29.3581 21.8347 30.406 22.3621 31.2152 23.1712C32.0243 23.9804 32.5517 25.0283 32.7196 26.1602Z" stroke="#6D6D6D" stroke-width="2.6" stroke-linecap="round" stroke-linejoin="round"/>
<path d="M34.7198 19.667H34.7323" stroke="#6D6D6D" stroke-width="2.6" stroke-linecap="round" stroke-linejoin="round"/>
<rect x="2.28645" y="1.9001" width="50.2" height="50.2" rx="25.1" stroke="#6D6D6D" stroke-width="2.6"/>
</svg>
