<svg width="49" height="48" viewBox="0 0 49 48" fill="none" xmlns="http://www.w3.org/2000/svg">
<path d="M29.3865 14H19.3865C16.6251 14 14.3865 16.2386 14.3865 19V29C14.3865 31.7614 16.6251 34 19.3865 34H29.3865C32.1479 34 34.3865 31.7614 34.3865 29V19C34.3865 16.2386 32.1479 14 29.3865 14Z" stroke="#F2F2F2" stroke-width="2.6" stroke-linecap="round" stroke-linejoin="round"/>
<path d="M28.3863 23.3701C28.5097 24.2023 28.3676 25.0523 27.9801 25.7991C27.5926 26.5459 26.9794 27.1515 26.2279 27.5297C25.4764 27.908 24.6248 28.0397 23.7941 27.906C22.9634 27.7723 22.1961 27.3801 21.6011 26.7852C21.0062 26.1903 20.614 25.4229 20.4804 24.5923C20.3467 23.7616 20.4784 22.91 20.8566 22.1584C21.2349 21.4069 21.8405 20.7938 22.5873 20.4063C23.3341 20.0188 24.1841 19.8766 25.0163 20.0001C25.8652 20.1259 26.6512 20.5215 27.258 21.1284C27.8648 21.7352 28.2604 22.5211 28.3863 23.3701Z" stroke="#F2F2F2" stroke-width="2.6" stroke-linecap="round" stroke-linejoin="round"/>
<path d="M29.8865 18.5002H29.8958" stroke="#F2F2F2" stroke-width="2.6" stroke-linecap="round" stroke-linejoin="round"/>
<rect x="1.38647" y="1" width="46" height="46" rx="23" stroke="#F2F2F2" stroke-width="2"/>
</svg>
