<svg width="637" height="573" viewBox="0 0 637 573" fill="none" xmlns="http://www.w3.org/2000/svg">
<g filter="url(#filter0_d_11822_4114)">
<rect x="20" y="15.5" width="597" height="532" rx="16" fill="url(#paint0_linear_11822_4114)"/>
<circle cx="331" cy="291" r="119" fill="white" fill-opacity="0.05"/>
<circle cx="331.25" cy="291.25" r="89.25" fill="white" fill-opacity="0.1"/>
<circle cx="331.5" cy="291.5" r="59.5" fill="white" fill-opacity="0.2"/>
<circle cx="330.75" cy="290.75" r="29.75" fill="white" fill-opacity="0.3"/>
<path d="M327.265 205.534C328.787 203.289 331.82 202.667 334.102 204.131L417.981 257.923C420.23 259.365 420.948 262.32 419.611 264.634L373.578 344.27C372.614 345.938 370.777 346.903 368.856 346.752L299.646 341.288C297.475 341.116 295.664 339.559 295.17 337.438L280.997 276.631C280.68 275.272 280.945 273.844 281.728 272.689L327.265 205.534Z" fill="#AAB3FF" fill-opacity="0.3"/>
<path d="M325.976 194.44C327.89 192.301 331.208 192.208 333.238 194.238L403.628 264.628C405.063 266.063 405.488 268.223 404.704 270.095L374.272 342.769C373.27 345.162 370.603 346.391 368.132 345.598L306.813 325.921C305.954 325.646 305.185 325.142 304.589 324.465L260.433 274.33C258.76 272.43 258.771 269.579 260.458 267.692L325.976 194.44Z" fill="url(#paint1_linear_11822_4114)" fill-opacity="0.7"/>
<rect x="283.5" y="162" width="92" height="39" rx="8" fill="black" fill-opacity="0.1"/>
<path d="M295.034 176.088H298.058C298.59 176.088 299.075 176.144 299.514 176.256C299.953 176.359 300.326 176.522 300.634 176.746C300.942 176.97 301.18 177.255 301.348 177.6C301.516 177.945 301.6 178.361 301.6 178.846C301.6 179.341 301.507 179.765 301.32 180.12C301.143 180.475 300.891 180.764 300.564 180.988C300.247 181.212 299.864 181.38 299.416 181.492C298.977 181.595 298.501 181.646 297.988 181.646H296.42V186H295.034V176.088ZM296.42 180.47H297.89C298.226 180.47 298.534 180.442 298.814 180.386C299.103 180.321 299.351 180.227 299.556 180.106C299.761 179.975 299.92 179.807 300.032 179.602C300.144 179.397 300.2 179.145 300.2 178.846C300.2 178.547 300.139 178.3 300.018 178.104C299.906 177.899 299.747 177.735 299.542 177.614C299.346 177.483 299.108 177.395 298.828 177.348C298.548 177.292 298.245 177.264 297.918 177.264H296.42V180.47ZM304.634 186H303.318V175.416H304.634V186ZM311.057 181.702C311.057 181.207 310.908 180.843 310.609 180.61C310.31 180.367 309.914 180.246 309.419 180.246C309.046 180.246 308.691 180.321 308.355 180.47C308.028 180.61 307.753 180.792 307.529 181.016L306.829 180.176C307.156 179.868 307.552 179.625 308.019 179.448C308.495 179.271 309.004 179.182 309.545 179.182C310.021 179.182 310.432 179.252 310.777 179.392C311.132 179.523 311.421 179.705 311.645 179.938C311.869 180.171 312.037 180.447 312.149 180.764C312.261 181.081 312.317 181.422 312.317 181.786V184.684C312.317 184.908 312.322 185.146 312.331 185.398C312.35 185.641 312.378 185.841 312.415 186H311.225C311.15 185.683 311.113 185.365 311.113 185.048H311.071C310.828 185.403 310.52 185.678 310.147 185.874C309.783 186.07 309.349 186.168 308.845 186.168C308.584 186.168 308.308 186.131 308.019 186.056C307.739 185.991 307.482 185.879 307.249 185.72C307.016 185.561 306.82 185.351 306.661 185.09C306.512 184.829 306.437 184.507 306.437 184.124C306.437 183.62 306.572 183.223 306.843 182.934C307.114 182.635 307.468 182.411 307.907 182.262C308.346 182.103 308.84 182.001 309.391 181.954C309.942 181.907 310.497 181.884 311.057 181.884V181.702ZM310.735 182.836C310.408 182.836 310.068 182.85 309.713 182.878C309.368 182.906 309.05 182.962 308.761 183.046C308.481 183.13 308.248 183.256 308.061 183.424C307.874 183.592 307.781 183.816 307.781 184.096C307.781 184.292 307.818 184.455 307.893 184.586C307.977 184.717 308.084 184.824 308.215 184.908C308.346 184.992 308.49 185.053 308.649 185.09C308.808 185.118 308.971 185.132 309.139 185.132C309.755 185.132 310.226 184.95 310.553 184.586C310.889 184.213 311.057 183.746 311.057 183.186V182.836H310.735ZM317.035 184.572H317.063L318.897 179.364H320.297L317.077 187.568C316.965 187.848 316.844 188.095 316.713 188.31C316.582 188.534 316.428 188.721 316.251 188.87C316.074 189.029 315.864 189.15 315.621 189.234C315.388 189.318 315.108 189.36 314.781 189.36C314.641 189.36 314.496 189.351 314.347 189.332C314.207 189.323 314.062 189.299 313.913 189.262L314.039 188.1C314.263 188.175 314.482 188.212 314.697 188.212C315.042 188.212 315.299 188.114 315.467 187.918C315.635 187.731 315.789 187.461 315.929 187.106L316.349 186L313.507 179.364H314.977L317.035 184.572ZM324.692 180.442H323.152V186H321.836V180.442H320.52V179.364H321.836V177.978C321.836 177.586 321.878 177.227 321.962 176.9C322.055 176.564 322.2 176.275 322.396 176.032C322.601 175.789 322.858 175.598 323.166 175.458C323.483 175.318 323.866 175.248 324.314 175.248C324.631 175.248 324.906 175.281 325.14 175.346L324.986 176.48C324.883 176.452 324.78 176.429 324.678 176.41C324.575 176.391 324.458 176.382 324.328 176.382C324.076 176.382 323.87 176.429 323.712 176.522C323.562 176.606 323.446 176.723 323.362 176.872C323.278 177.021 323.222 177.194 323.194 177.39C323.166 177.577 323.152 177.773 323.152 177.978V179.364H324.692V180.442ZM330.58 186C330.561 185.832 330.547 185.645 330.538 185.44C330.528 185.225 330.524 185.048 330.524 184.908H330.496C330.328 185.263 330.043 185.566 329.642 185.818C329.25 186.061 328.811 186.182 328.326 186.182C327.896 186.182 327.523 186.112 327.206 185.972C326.898 185.832 326.641 185.641 326.436 185.398C326.24 185.146 326.09 184.857 325.988 184.53C325.894 184.203 325.848 183.853 325.848 183.48V179.364H327.164V183.032C327.164 183.303 327.182 183.564 327.22 183.816C327.266 184.059 327.346 184.273 327.458 184.46C327.57 184.647 327.724 184.796 327.92 184.908C328.116 185.02 328.368 185.076 328.676 185.076C329.208 185.076 329.637 184.88 329.964 184.488C330.29 184.087 330.454 183.555 330.454 182.892V179.364H331.77V184.572C331.77 184.749 331.774 184.978 331.784 185.258C331.793 185.538 331.807 185.785 331.826 186H330.58ZM335.396 186H334.08V175.416H335.396V186ZM338.879 179.364C338.897 179.532 338.911 179.723 338.921 179.938C338.93 180.143 338.935 180.316 338.935 180.456H338.977C339.061 180.279 339.173 180.115 339.313 179.966C339.462 179.807 339.63 179.672 339.817 179.56C340.003 179.439 340.209 179.345 340.433 179.28C340.657 179.215 340.89 179.182 341.133 179.182C341.562 179.182 341.931 179.257 342.239 179.406C342.547 179.546 342.803 179.737 343.009 179.98C343.214 180.223 343.363 180.507 343.457 180.834C343.559 181.161 343.611 181.511 343.611 181.884V186H342.295V182.318C342.295 182.047 342.271 181.791 342.225 181.548C342.187 181.305 342.113 181.091 342.001 180.904C341.889 180.717 341.735 180.568 341.539 180.456C341.343 180.344 341.091 180.288 340.783 180.288C340.26 180.288 339.831 180.489 339.495 180.89C339.168 181.282 339.005 181.809 339.005 182.472V186H337.689V180.792C337.689 180.615 337.684 180.386 337.675 180.106C337.665 179.826 337.651 179.579 337.633 179.364H338.879ZM350.695 182.094C350.686 181.833 350.639 181.59 350.555 181.366C350.48 181.133 350.364 180.932 350.205 180.764C350.056 180.596 349.864 180.465 349.631 180.372C349.407 180.269 349.141 180.218 348.833 180.218C348.553 180.218 348.287 180.269 348.035 180.372C347.792 180.465 347.578 180.596 347.391 180.764C347.214 180.932 347.064 181.133 346.943 181.366C346.831 181.59 346.766 181.833 346.747 182.094H350.695ZM352.025 182.626C352.025 182.701 352.025 182.775 352.025 182.85C352.025 182.925 352.02 182.999 352.011 183.074H346.747C346.756 183.354 346.817 183.62 346.929 183.872C347.05 184.115 347.209 184.329 347.405 184.516C347.601 184.693 347.825 184.833 348.077 184.936C348.338 185.039 348.614 185.09 348.903 185.09C349.351 185.09 349.738 184.992 350.065 184.796C350.392 184.6 350.648 184.362 350.835 184.082L351.759 184.824C351.404 185.291 350.984 185.636 350.499 185.86C350.023 186.075 349.491 186.182 348.903 186.182C348.399 186.182 347.932 186.098 347.503 185.93C347.074 185.762 346.705 185.529 346.397 185.23C346.089 184.922 345.846 184.553 345.669 184.124C345.492 183.695 345.403 183.219 345.403 182.696C345.403 182.183 345.487 181.711 345.655 181.282C345.832 180.843 346.075 180.47 346.383 180.162C346.691 179.854 347.055 179.616 347.475 179.448C347.895 179.271 348.348 179.182 348.833 179.182C349.318 179.182 349.757 179.261 350.149 179.42C350.55 179.579 350.886 179.807 351.157 180.106C351.437 180.405 351.652 180.769 351.801 181.198C351.95 181.618 352.025 182.094 352.025 182.626ZM357.447 181.044C357.297 180.801 357.087 180.605 356.817 180.456C356.546 180.297 356.243 180.218 355.907 180.218C355.757 180.218 355.608 180.237 355.459 180.274C355.309 180.302 355.174 180.353 355.053 180.428C354.941 180.493 354.847 180.582 354.773 180.694C354.707 180.797 354.675 180.927 354.675 181.086C354.675 181.366 354.801 181.576 355.053 181.716C355.305 181.847 355.683 181.968 356.187 182.08C356.504 182.155 356.798 182.243 357.069 182.346C357.339 182.449 357.573 182.579 357.769 182.738C357.974 182.887 358.133 183.069 358.245 183.284C358.357 183.499 358.413 183.751 358.413 184.04C358.413 184.432 358.338 184.763 358.189 185.034C358.039 185.305 357.839 185.529 357.587 185.706C357.344 185.874 357.064 185.995 356.747 186.07C356.429 186.145 356.103 186.182 355.767 186.182C355.263 186.182 354.768 186.084 354.283 185.888C353.807 185.692 353.41 185.393 353.093 184.992L354.031 184.194C354.208 184.455 354.451 184.675 354.759 184.852C355.076 185.029 355.421 185.118 355.795 185.118C355.963 185.118 356.121 185.104 356.271 185.076C356.429 185.039 356.569 184.983 356.691 184.908C356.821 184.833 356.924 184.735 356.999 184.614C357.073 184.493 357.111 184.339 357.111 184.152C357.111 183.844 356.961 183.615 356.663 183.466C356.373 183.317 355.944 183.177 355.375 183.046C355.151 182.99 354.922 182.925 354.689 182.85C354.465 182.766 354.259 182.654 354.073 182.514C353.886 182.374 353.732 182.201 353.611 181.996C353.499 181.781 353.443 181.52 353.443 181.212C353.443 180.857 353.513 180.554 353.653 180.302C353.802 180.041 353.993 179.831 354.227 179.672C354.46 179.504 354.726 179.383 355.025 179.308C355.323 179.224 355.631 179.182 355.949 179.182C356.425 179.182 356.882 179.275 357.321 179.462C357.769 179.649 358.114 179.919 358.357 180.274L357.447 181.044ZM363.667 181.044C363.518 180.801 363.308 180.605 363.037 180.456C362.767 180.297 362.463 180.218 362.127 180.218C361.978 180.218 361.829 180.237 361.679 180.274C361.53 180.302 361.395 180.353 361.273 180.428C361.161 180.493 361.068 180.582 360.993 180.694C360.928 180.797 360.895 180.927 360.895 181.086C360.895 181.366 361.021 181.576 361.273 181.716C361.525 181.847 361.903 181.968 362.407 182.08C362.725 182.155 363.019 182.243 363.289 182.346C363.56 182.449 363.793 182.579 363.989 182.738C364.195 182.887 364.353 183.069 364.465 183.284C364.577 183.499 364.633 183.751 364.633 184.04C364.633 184.432 364.559 184.763 364.409 185.034C364.26 185.305 364.059 185.529 363.807 185.706C363.565 185.874 363.285 185.995 362.967 186.07C362.65 186.145 362.323 186.182 361.987 186.182C361.483 186.182 360.989 186.084 360.503 185.888C360.027 185.692 359.631 185.393 359.313 184.992L360.251 184.194C360.429 184.455 360.671 184.675 360.979 184.852C361.297 185.029 361.642 185.118 362.015 185.118C362.183 185.118 362.342 185.104 362.491 185.076C362.65 185.039 362.79 184.983 362.911 184.908C363.042 184.833 363.145 184.735 363.219 184.614C363.294 184.493 363.331 184.339 363.331 184.152C363.331 183.844 363.182 183.615 362.883 183.466C362.594 183.317 362.165 183.177 361.595 183.046C361.371 182.99 361.143 182.925 360.909 182.85C360.685 182.766 360.48 182.654 360.293 182.514C360.107 182.374 359.953 182.201 359.831 181.996C359.719 181.781 359.663 181.52 359.663 181.212C359.663 180.857 359.733 180.554 359.873 180.302C360.023 180.041 360.214 179.831 360.447 179.672C360.681 179.504 360.947 179.383 361.245 179.308C361.544 179.224 361.852 179.182 362.169 179.182C362.645 179.182 363.103 179.275 363.541 179.462C363.989 179.649 364.335 179.919 364.577 180.274L363.667 181.044Z" fill="#F2F2F2"/>
<g clip-path="url(#clip0_11822_4114)">
<path d="M190.743 249.248C189.375 249.248 188.074 249.686 187 250.497C185.926 249.686 184.625 249.248 183.257 249.248C181.592 249.248 180.027 249.896 178.85 251.074C176.421 253.503 176.421 257.457 178.85 259.886L186.337 267.373C186.52 267.556 186.76 267.648 187 267.648C187.24 267.648 187.48 267.556 187.663 267.373L195.15 259.886C196.327 258.709 196.975 257.144 196.975 255.48C196.975 253.815 196.327 252.25 195.15 251.074C193.973 249.896 192.408 249.248 190.743 249.248ZM193.824 258.56L187 265.384L180.176 258.56C178.478 256.862 178.478 254.098 180.176 252.399C180.999 251.576 182.093 251.123 183.257 251.123C184.42 251.123 185.514 251.576 186.337 252.399C186.513 252.575 186.751 252.674 187 252.674C187.249 252.674 187.487 252.575 187.663 252.399C188.486 251.576 189.58 251.123 190.744 251.123C191.907 251.123 193.001 251.576 193.824 252.399C194.647 253.222 195.1 254.316 195.1 255.48C195.1 256.643 194.647 257.738 193.824 258.56Z" fill="white" fill-opacity="0.4"/>
<path d="M182.649 248.283C183.74 248.283 184.789 247.718 185.529 246.732C186.219 245.812 186.599 244.603 186.599 243.329C186.599 242.055 186.219 240.846 185.529 239.926C184.789 238.94 183.74 238.375 182.649 238.375C181.558 238.375 180.508 238.94 179.769 239.926C179.079 240.846 178.699 242.055 178.699 243.329C178.699 244.603 179.079 245.812 179.769 246.732C180.508 247.718 181.558 248.283 182.649 248.283ZM182.649 240.25C183.773 240.25 184.724 241.66 184.724 243.329C184.724 244.998 183.773 246.408 182.649 246.408C181.524 246.408 180.574 244.998 180.574 243.329C180.574 241.66 181.524 240.25 182.649 240.25Z" fill="white" fill-opacity="0.4"/>
<path d="M191.351 248.283C192.442 248.283 193.492 247.718 194.232 246.732C194.921 245.812 195.302 244.603 195.302 243.329C195.302 242.055 194.922 240.846 194.232 239.926C193.492 238.94 192.442 238.375 191.351 238.375C190.261 238.375 189.211 238.94 188.471 239.926C187.782 240.846 187.402 242.055 187.402 243.329C187.402 244.603 187.782 245.812 188.471 246.732C189.211 247.718 190.261 248.283 191.351 248.283ZM191.351 240.25C192.476 240.25 193.427 241.66 193.427 243.329C193.427 244.998 192.476 246.408 191.351 246.408C190.227 246.408 189.277 244.998 189.277 243.329C189.277 241.66 190.227 240.25 191.351 240.25Z" fill="white" fill-opacity="0.4"/>
<path d="M202.077 244.082C201.431 243.22 200.511 242.726 199.552 242.726C198.594 242.726 197.673 243.22 197.027 244.082C196.432 244.875 196.104 245.915 196.104 247.011C196.104 248.107 196.432 249.147 197.027 249.94C197.673 250.802 198.594 251.296 199.552 251.296C200.511 251.296 201.431 250.802 202.077 249.94C202.672 249.147 203 248.107 203 247.011C203 245.915 202.672 244.875 202.077 244.082ZM199.552 249.421C198.699 249.421 197.979 248.317 197.979 247.011C197.979 245.705 198.699 244.601 199.552 244.601C200.405 244.601 201.125 245.705 201.125 247.011C201.125 248.317 200.405 249.421 199.552 249.421Z" fill="white" fill-opacity="0.4"/>
<path d="M176.973 244.082C176.327 243.22 175.407 242.726 174.448 242.726C173.489 242.726 172.569 243.22 171.923 244.082C171.328 244.875 171 245.915 171 247.011C171 248.106 171.328 249.147 171.923 249.94C172.569 250.802 173.489 251.296 174.448 251.296C175.407 251.296 176.327 250.802 176.973 249.94C177.568 249.147 177.896 248.106 177.896 247.011C177.896 245.915 177.568 244.875 176.973 244.082ZM174.448 249.421C173.595 249.421 172.875 248.317 172.875 247.011C172.875 245.705 173.595 244.601 174.448 244.601C175.301 244.601 176.021 245.705 176.021 247.011C176.021 248.317 175.301 249.421 174.448 249.421Z" fill="white" fill-opacity="0.4"/>
</g>
<g filter="url(#filter1_d_11822_4114)">
<rect x="301.5" y="94" width="56" height="58" rx="28" fill="white"/>
<path d="M328.575 135.25H341.525C342.035 135.25 342.45 135.671 342.45 136.188C342.45 136.704 342.035 137.125 341.525 137.125H335.05V139H341.525C343.055 139 344.3 137.738 344.3 136.188C344.3 134.637 343.055 133.375 341.525 133.375H335.477C339.641 130.934 342.45 126.357 342.45 121.125C342.45 113.336 336.226 107 328.575 107C320.924 107 314.7 113.336 314.7 121.125C314.7 128.914 320.924 135.25 328.575 135.25ZM323.95 131.438C323.95 122.853 330.425 115.587 338.786 114.663C339.136 115.234 339.441 115.837 339.696 116.466C331.955 116.942 325.8 123.474 325.8 131.438C325.8 131.98 325.829 132.528 325.884 133.065C325.227 132.912 324.591 132.703 323.98 132.445C323.961 132.11 323.95 131.773 323.95 131.438ZM330.717 122.967C333.354 124.831 336.433 125.812 339.675 125.812C339.678 125.812 339.681 125.812 339.684 125.812C339.421 126.459 339.104 127.077 338.74 127.662C335.444 127.488 332.316 126.398 329.62 124.486C329.95 123.953 330.317 123.445 330.717 122.967ZM340.283 123.924C340.08 123.933 339.877 123.938 339.675 123.938C336.921 123.938 334.3 123.134 332.031 121.606C332.525 121.163 333.052 120.758 333.608 120.395C335.446 121.487 337.531 122.062 339.675 122.062C339.972 122.062 340.27 122.051 340.567 122.028C340.521 122.675 340.425 123.309 340.283 123.924ZM339.675 120.188C338.264 120.188 336.885 119.892 335.61 119.327C337.054 118.713 338.629 118.357 340.281 118.317C340.418 118.912 340.513 119.524 340.562 120.148C340.267 120.174 339.971 120.188 339.675 120.188ZM327.78 133.348C327.695 132.727 327.65 132.078 327.65 131.438C327.65 130.931 327.679 130.432 327.735 129.941C329.476 131.012 331.329 131.834 333.274 132.401C331.83 133.028 330.241 133.375 328.575 133.375C328.308 133.375 328.043 133.365 327.78 133.348ZM335.622 131.045C332.933 130.518 330.411 129.484 328.111 127.966C328.28 127.342 328.493 126.737 328.747 126.154C331.343 127.95 334.293 129.064 337.407 129.429C336.866 130.026 336.268 130.567 335.622 131.045ZM337.521 112.948C328.726 114.447 322.1 122.212 322.1 131.438C322.1 131.44 322.1 131.442 322.1 131.444C321.455 131.022 320.852 130.539 320.299 130.004C320.907 121.042 327.233 113.465 335.85 111.378C336.454 111.847 337.014 112.373 337.521 112.948ZM329.685 111.841C329.562 111.196 329.5 110.538 329.5 109.875C329.5 109.558 329.514 109.232 329.541 108.915C331.019 109.035 332.422 109.429 333.702 110.046C332.292 110.512 330.949 111.116 329.685 111.841ZM328.024 112.895C327.478 113.276 326.95 113.681 326.443 114.108C326.016 112.745 325.8 111.327 325.8 109.875C325.8 109.651 325.806 109.425 325.816 109.201C326.423 109.055 327.048 108.956 327.686 108.909C327.663 109.231 327.65 109.557 327.65 109.875C327.65 110.899 327.776 111.912 328.024 112.895ZM324.955 115.48C324.469 115.97 324.006 116.482 323.568 117.014C322.715 115.048 322.23 112.962 322.123 110.792C322.701 110.416 323.312 110.09 323.951 109.818C323.951 109.837 323.95 109.856 323.95 109.875C323.95 111.808 324.288 113.69 324.955 115.48ZM320.38 112.17C320.638 114.45 321.283 116.638 322.305 118.698C321.904 119.29 321.53 119.903 321.185 120.533C320.038 118.5 319.236 116.313 318.794 114.008C319.261 113.342 319.793 112.727 320.38 112.17ZM317.469 116.43C318.086 118.58 319.006 120.622 320.216 122.527C319.474 124.267 318.942 126.117 318.653 128.038C317.327 126.069 316.55 123.688 316.55 121.125C316.55 119.462 316.877 117.876 317.469 116.43Z" fill="#3F3F3F"/>
</g>
<g clip-path="url(#clip1_11822_4114)">
<path d="M481 269C476.726 269 472.708 267.336 469.686 264.314C466.664 261.292 465 257.274 465 253C465 248.726 466.664 244.708 469.686 241.686C472.708 238.664 476.726 237 481 237C485.274 237 489.292 238.664 492.314 241.686C495.336 244.708 497 248.726 497 253C497 257.274 495.336 261.292 492.314 264.314C489.292 267.336 485.274 269 481 269ZM481 239.5C473.556 239.5 467.5 245.556 467.5 253C467.5 260.444 473.556 266.5 481 266.5C488.444 266.5 494.5 260.444 494.5 253C494.5 245.556 488.444 239.5 481 239.5ZM486.835 258.508C487.035 258.307 487.335 258.182 487.616 258.187C487.888 258.19 488.168 258.31 488.365 258.508C488.853 258.997 489.645 258.997 490.133 258.509C490.622 258.022 490.622 257.23 490.134 256.742C489.476 256.083 488.569 255.698 487.646 255.687C486.686 255.679 485.746 256.06 485.066 256.742C484.83 256.978 484.549 257.125 484.333 257.125C484.115 257.125 483.833 256.978 483.597 256.742C482.935 256.079 482.02 255.694 481.087 255.688C481.079 255.687 481.07 255.687 481.062 255.687C480.12 255.687 479.198 256.071 478.528 256.742C478.325 256.945 478.056 257.062 477.792 257.062C477.791 257.062 477.791 257.062 477.79 257.062C477.525 257.062 477.266 256.949 477.059 256.742C476.38 256.061 475.443 255.678 474.48 255.687C473.557 255.697 472.65 256.082 471.99 256.742C471.503 257.23 471.503 258.022 471.992 258.509C472.48 258.997 473.272 258.997 473.759 258.508C473.957 258.31 474.237 258.19 474.507 258.187C474.511 258.187 474.514 258.187 474.518 258.187C474.797 258.187 475.092 258.31 475.29 258.508C475.97 259.188 476.857 259.562 477.79 259.562H477.796C478.718 259.561 479.63 259.177 480.297 258.508C480.497 258.308 480.792 258.188 481.069 258.187C481.342 258.189 481.632 258.312 481.828 258.508C482.537 259.218 483.45 259.625 484.333 259.625C485.214 259.625 486.126 259.218 486.835 258.508ZM475.5 247.312C476.363 247.312 477.062 248.012 477.062 248.875C477.062 249.738 476.363 250.437 475.5 250.437C474.637 250.437 473.938 249.738 473.938 248.875C473.938 248.012 474.637 247.312 475.5 247.312ZM484.875 248.875C484.875 249.738 485.575 250.437 486.438 250.437C487.3 250.437 488 249.738 488 248.875C488 248.012 487.3 247.312 486.438 247.312C485.575 247.312 484.875 248.012 484.875 248.875Z" fill="white" fill-opacity="0.8"/>
</g>
<g clip-path="url(#clip2_11822_4114)">
<path d="M461.667 407.613H458.605C457.335 404.933 454.819 402.938 451.717 402.409C450.713 402.237 449.68 402.359 448.735 402.758L448.009 403.064C447.343 403.345 446.579 403.345 445.915 403.061L445.213 402.764C445.213 402.764 445.213 402.764 445.213 402.764C444.263 402.36 443.227 402.237 442.219 402.409C439.12 402.939 436.605 404.935 435.336 407.612H432.333C431.597 407.612 431 408.21 431 408.946C431 409.682 431.597 410.279 432.333 410.279H434.544C434.481 410.716 434.44 411.16 434.44 411.613V420.327C434.44 426.791 439.611 431.666 446.469 431.666H447.472C454.33 431.666 459.501 426.791 459.501 420.327V411.613C459.501 411.16 459.46 410.716 459.397 410.279H461.667C462.403 410.279 463 409.682 463 408.946C463 408.21 462.403 407.613 461.667 407.613ZM456.835 420.327C456.835 425.271 452.81 429 447.472 429H446.469C441.131 429 437.107 425.271 437.107 420.327V411.614C437.107 408.407 439.498 405.581 442.669 405.038C442.816 405.013 442.964 405 443.113 405C443.472 405 443.832 405.073 444.171 405.217L444.873 405.515C445.118 405.619 445.371 405.698 445.627 405.764V418.838C445.627 419.574 446.225 420.171 446.961 420.171C447.697 420.171 448.294 419.574 448.294 418.838V405.767C448.549 405.702 448.802 405.624 449.047 405.521L449.773 405.215C450.249 405.014 450.765 404.951 451.27 405.038C454.443 405.579 456.835 408.407 456.835 411.615V420.327H456.835Z" fill="white" fill-opacity="0.4"/>
</g>
<path d="M233.632 419.069H230.431C230.216 417.768 229.571 416.574 228.587 415.675C228.513 415.608 228.437 415.542 228.36 415.479L229.358 414.584C229.873 414.124 230.159 413.463 230.145 412.773C230.135 412.296 229.982 411.84 229.712 411.459L233.421 407.826C233.961 407.296 234.252 406.559 234.22 405.804C234.187 405.048 233.833 404.339 233.249 403.858C232.664 403.377 231.9 403.167 231.152 403.28C230.404 403.394 229.737 403.822 229.322 404.454L226.473 408.793C226.046 408.602 225.569 408.54 225.099 408.622C224.419 408.741 223.827 409.15 223.474 409.743L222.671 411.093C222.567 410.975 222.458 410.861 222.344 410.75C221.233 409.673 219.768 409.079 218.219 409.079C216.671 409.079 215.206 409.673 214.095 410.75C213.144 411.672 212.538 412.862 212.353 414.154C212.18 414.139 212.007 414.132 211.833 414.132C210.361 414.132 208.951 414.677 207.862 415.666C206.872 416.566 206.223 417.763 206.007 419.069H204.59C204.402 419.069 204.225 419.159 204.114 419.311C204.006 419.458 203.973 419.647 204.023 419.823C204.066 419.984 204.735 422.663 205.815 427.001C206.072 428.031 206.992 428.75 208.053 428.75H230.169C231.23 428.75 232.15 428.031 232.407 427.001C233.487 422.663 234.156 419.984 234.199 419.823C234.25 419.647 234.216 419.458 234.108 419.311C233.997 419.159 233.82 419.069 233.632 419.069ZM230.309 405.102C230.544 404.744 230.906 404.512 231.33 404.447C231.753 404.383 232.168 404.498 232.499 404.77C232.829 405.042 233.022 405.427 233.04 405.855C233.059 406.282 232.901 406.683 232.595 406.983L228.856 410.645L227.436 409.477L230.309 405.102ZM224.488 410.347C224.665 410.049 224.962 409.845 225.303 409.785C225.643 409.726 225.992 409.818 226.259 410.037L226.276 410.052C226.276 410.052 226.276 410.052 226.277 410.052L228.533 411.908C228.8 412.128 228.957 412.452 228.965 412.798C228.972 413.144 228.828 413.474 228.571 413.705L227.343 414.805C226.505 414.366 225.569 414.132 224.605 414.132C224.432 414.132 224.259 414.139 224.086 414.154C223.984 413.447 223.756 412.771 223.415 412.152L224.488 410.347ZM208.656 416.54C209.527 415.748 210.655 415.312 211.833 415.312C212.148 415.312 212.462 415.343 212.769 415.405C212.939 415.439 213.116 415.397 213.252 415.289C213.388 415.181 213.469 415.019 213.475 414.846C213.516 413.612 214.028 412.459 214.916 411.598C215.806 410.735 216.979 410.26 218.219 410.26C219.459 410.26 220.632 410.735 221.523 411.598C222.411 412.459 222.923 413.612 222.964 414.846C222.97 415.019 223.051 415.181 223.187 415.289C223.323 415.397 223.5 415.439 223.67 415.405C223.976 415.343 224.291 415.312 224.605 415.312C225.787 415.312 226.919 415.751 227.791 416.547C228.53 417.222 229.03 418.104 229.231 419.069H229.108C228.925 419.069 228.751 419.155 228.64 419.301L226.08 422.645H212.142L209.583 419.301C209.471 419.155 209.298 419.069 209.114 419.069H207.208C207.41 418.1 207.913 417.215 208.656 416.54ZM231.261 426.716C231.136 427.218 230.687 427.569 230.169 427.569H208.053C207.535 427.569 207.086 427.218 206.961 426.716C206.008 422.889 205.56 421.095 205.348 420.25H208.822L211.382 423.594C211.494 423.74 211.667 423.826 211.851 423.826H226.371C226.555 423.826 226.729 423.74 226.84 423.594L229.4 420.25H232.874C232.662 421.095 232.214 422.889 231.261 426.716Z" fill="white" fill-opacity="0.4" stroke="white" stroke-opacity="0.4" stroke-width="1.03889"/>
<path d="M219.167 414.664C219.282 414.779 219.433 414.836 219.584 414.836C219.735 414.836 219.887 414.779 220.002 414.664C220.232 414.433 220.232 414.059 220.002 413.829L219.692 413.519C219.462 413.289 219.088 413.289 218.858 413.519C218.627 413.75 218.627 414.123 218.858 414.354L219.167 414.664Z" fill="white" fill-opacity="0.4" stroke="white" stroke-opacity="0.4" stroke-width="1.03889"/>
<path d="M216.551 417.762C216.666 417.877 216.817 417.935 216.968 417.935C217.12 417.935 217.271 417.877 217.386 417.762C217.616 417.532 217.616 417.158 217.386 416.927L217.076 416.618C216.846 416.387 216.472 416.387 216.241 416.618C216.011 416.848 216.011 417.222 216.241 417.453L216.551 417.762Z" fill="white" fill-opacity="0.4" stroke="white" stroke-opacity="0.4" stroke-width="1.03889"/>
<path d="M212.171 419.284C212.322 419.284 212.473 419.227 212.588 419.111L212.898 418.802C213.128 418.571 213.128 418.197 212.898 417.967C212.667 417.736 212.293 417.736 212.063 417.967L211.753 418.276C211.523 418.507 211.523 418.881 211.753 419.111C211.869 419.227 212.02 419.284 212.171 419.284Z" fill="white" fill-opacity="0.4" stroke="white" stroke-opacity="0.4" stroke-width="1.03889"/>
<path d="M223.507 419.284C223.658 419.284 223.809 419.226 223.924 419.111L224.234 418.802C224.464 418.571 224.464 418.197 224.234 417.967C224.003 417.736 223.629 417.736 223.399 417.967L223.089 418.276C222.859 418.507 222.859 418.881 223.089 419.111C223.204 419.226 223.355 419.284 223.507 419.284Z" fill="white" fill-opacity="0.4" stroke="white" stroke-opacity="0.4" stroke-width="1.03889"/>
</g>
<defs>
<filter id="filter0_d_11822_4114" x="0" y="0.5" width="637" height="572" filterUnits="userSpaceOnUse" color-interpolation-filters="sRGB">
<feFlood flood-opacity="0" result="BackgroundImageFix"/>
<feColorMatrix in="SourceAlpha" type="matrix" values="0 0 0 0 0 0 0 0 0 0 0 0 0 0 0 0 0 0 127 0" result="hardAlpha"/>
<feOffset dy="5"/>
<feGaussianBlur stdDeviation="10"/>
<feComposite in2="hardAlpha" operator="out"/>
<feColorMatrix type="matrix" values="0 0 0 0 0 0 0 0 0 0 0 0 0 0 0 0 0 0 0.3 0"/>
<feBlend mode="normal" in2="BackgroundImageFix" result="effect1_dropShadow_11822_4114"/>
<feBlend mode="normal" in="SourceGraphic" in2="effect1_dropShadow_11822_4114" result="shape"/>
</filter>
<filter id="filter1_d_11822_4114" x="281.5" y="79" width="96" height="98" filterUnits="userSpaceOnUse" color-interpolation-filters="sRGB">
<feFlood flood-opacity="0" result="BackgroundImageFix"/>
<feColorMatrix in="SourceAlpha" type="matrix" values="0 0 0 0 0 0 0 0 0 0 0 0 0 0 0 0 0 0 127 0" result="hardAlpha"/>
<feOffset dy="5"/>
<feGaussianBlur stdDeviation="10"/>
<feComposite in2="hardAlpha" operator="out"/>
<feColorMatrix type="matrix" values="0 0 0 0 0 0 0 0 0 0 0 0 0 0 0 0 0 0 0.3 0"/>
<feBlend mode="normal" in2="BackgroundImageFix" result="effect1_dropShadow_11822_4114"/>
<feBlend mode="normal" in="SourceGraphic" in2="effect1_dropShadow_11822_4114" result="shape"/>
</filter>
<linearGradient id="paint0_linear_11822_4114" x1="20" y1="281.5" x2="617" y2="281.5" gradientUnits="userSpaceOnUse">
<stop stop-color="#263554"/>
<stop offset="1" stop-color="#5D455E"/>
</linearGradient>
<linearGradient id="paint1_linear_11822_4114" x1="280.5" y1="267.576" x2="422" y2="267.576" gradientUnits="userSpaceOnUse">
<stop stop-color="#78A4FB"/>
<stop offset="1" stop-color="#E393FF"/>
</linearGradient>
<clipPath id="clip0_11822_4114">
<rect width="32" height="32" fill="white" transform="translate(171 237)"/>
</clipPath>
<clipPath id="clip1_11822_4114">
<rect width="32" height="32" fill="white" transform="translate(465 237)"/>
</clipPath>
<clipPath id="clip2_11822_4114">
<rect width="32" height="32" fill="white" transform="translate(431 401)"/>
</clipPath>
</defs>
</svg>
