<svg width="210" height="152" viewBox="0 0 210 152" fill="none" xmlns="http://www.w3.org/2000/svg">
<path d="M91.4611 63.0033C91.6916 63.3948 92.1465 63.7536 92.9751 63.1599L101.842 51.4164C102.278 50.3921 102.62 50.3007 102.465 48.5588C101.997 46.5902 101.94 44.5392 102.299 42.5457C102.657 40.5522 103.422 38.663 104.541 37.0071C105.66 35.3512 107.106 33.9674 108.783 32.9503C110.459 31.9331 112.325 31.3065 114.253 31.1132C115.195 30.6565 116.029 29.9882 116.696 29.1559L123.979 19.4806C124.939 17.8365 124.148 16.8709 123.618 16.5055C121.125 15.7643 118.546 15.3846 115.954 15.3769H100.259C91.3738 -2.00351 75.5913 0.0776969 75.5913 0.0776969C73.9838 9.6617 81.4046 15.6705 86.8067 18.7107C81.442 17.8234 73.3607 17.3537 66.4819 20.6093C66.4819 20.6093 56.6934 24.4259 67.9835 29.4952C67.9835 29.4952 79.8594 34.995 91.4673 29.182L91.4611 63.0033ZM132.865 21.2812C132.422 21.0266 131.919 20.912 131.416 20.9514C130.912 20.9908 130.431 21.1824 130.03 21.5031L122.721 31.2045C122.571 31.8569 122.291 32.8486 123.344 33.6054C124.267 34.2813 125.104 35.077 125.836 35.9737L125.899 36.0454C126.079 36.2738 126.254 36.5021 126.422 36.7435L126.453 36.7892C126.615 37.0175 126.771 37.2524 126.914 37.4873C126.929 37.5148 126.945 37.541 126.964 37.5656C128.675 40.3722 129.386 43.7205 128.972 47.0218C128.558 50.323 127.045 53.3656 124.7 55.6145C122.355 57.8633 119.328 59.1743 116.151 59.317C112.974 59.4596 109.851 58.4247 107.331 56.3943C105.711 55.9376 105.119 56.6488 104.502 57.1446L103.586 58.4364L92.6885 72.8352C92.0315 74.1906 91.6096 75.6574 91.4424 77.1673V97.875L106.465 90.7441V72.7896C109.535 73.7795 112.724 74.3046 115.936 74.3488C121.846 74.352 127.608 72.4075 132.404 68.7907C137.201 65.174 140.789 60.0685 142.659 54.1976C144.53 48.3268 144.589 41.9884 142.828 36.0805C141.066 30.1727 137.574 24.995 132.846 21.2812H132.865Z" fill="url(#paint0_linear_11043_344)"/>
<path d="M41.5278 143.757H41.2867H39.6461H39.3998V143.516V121.481H32.8793H32.6382V121.239V119.877V119.636H32.8793H47.9854H48.2317V119.877V121.239V121.481H47.9854H41.5278V143.516V143.757Z" fill="url(#paint1_linear_11043_344)"/>
<path d="M41.2858 121.234V143.515H39.64V121.234H32.8784V119.876H47.9845V121.234H41.2858Z" fill="url(#paint2_linear_11043_344)"/>
<path d="M58.8672 144.013H58.8095C57.7047 144.01 56.6114 143.789 55.5919 143.364C54.5724 142.938 53.6468 142.316 52.8678 141.532C51.2945 139.95 50.4142 137.808 50.4204 135.577C50.4267 133.346 51.319 131.208 52.9011 129.635C54.4832 128.062 56.6255 127.181 58.8567 127.188H58.972C60.0917 127.204 61.1971 127.441 62.225 127.885C63.2528 128.33 64.183 128.973 64.962 129.777C65.7411 130.581 66.3537 131.531 66.765 132.573C67.1762 133.615 67.3779 134.727 67.3585 135.847C67.2731 138.041 66.3411 140.118 64.758 141.64C63.1748 143.163 61.0636 144.013 58.8672 144.013ZM58.8672 129.127C57.1834 129.149 55.5742 129.825 54.3789 131.011C53.1837 132.197 52.4958 133.801 52.4604 135.484C52.4251 137.168 53.045 138.799 54.1894 140.034C55.3339 141.27 56.9133 142.012 58.5946 142.105H58.8514C59.6937 142.102 60.5267 141.929 61.301 141.598C62.0753 141.267 62.7752 140.783 63.3592 140.176C64.2584 139.28 64.8741 138.14 65.1298 136.897C65.3855 135.654 65.2698 134.363 64.7971 133.185C64.3243 132.007 63.5155 130.994 62.4713 130.273C61.4272 129.551 60.1938 129.153 58.9248 129.127H58.8672Z" fill="url(#paint3_linear_11043_344)"/>
<path d="M58.7821 143.766C57.1606 143.744 55.5826 143.239 54.2487 142.317C52.9149 141.395 51.8855 140.097 51.2917 138.588C50.6979 137.079 50.5665 135.427 50.9141 133.844C51.2618 132.26 52.0728 130.815 53.244 129.694C54.4152 128.572 55.8936 127.824 57.491 127.546C59.0885 127.267 60.7327 127.47 62.2145 128.128C63.6964 128.787 64.9487 129.871 65.8122 131.244C66.6757 132.617 67.1114 134.215 67.0637 135.836C66.9834 137.974 66.0742 139.998 64.5286 141.478C62.9829 142.958 60.9221 143.779 58.7821 143.766ZM58.845 128.886C57.0723 128.914 55.3822 129.64 54.1404 130.905C52.8986 132.171 52.2048 133.874 52.2092 135.647C52.2017 137.367 52.8581 139.023 54.0415 140.271C55.2249 141.519 56.8442 142.262 58.5619 142.346C59.4457 142.364 60.3246 142.209 61.1482 141.888C61.9719 141.567 62.7242 141.086 63.3623 140.475C64.0004 139.863 64.5117 139.131 64.8671 138.322C65.2225 137.513 65.415 136.641 65.4336 135.757C65.4522 134.873 65.2965 133.995 64.9754 133.171C64.6544 132.347 64.1742 131.595 63.5624 130.957C62.9506 130.319 62.2191 129.807 61.4097 129.452C60.6003 129.097 59.7288 128.904 58.845 128.886Z" fill="url(#paint4_linear_11043_344)"/>
<path d="M105.044 143.788H95.3843V141.886H104.064C108.383 141.886 109.369 140.193 109.51 137.656C109.652 135.391 108.399 133.987 105.317 132.97L100.862 131.487C96.9829 130.171 95.3266 128.232 95.4839 125.197C95.5782 122.655 96.8467 119.625 102.324 119.625H110.281V121.465H101.727C99.4045 121.465 97.701 122.985 97.5752 125.16C97.4285 127.781 100.023 128.955 101.145 129.353L107.089 131.34C108.445 131.74 109.635 132.57 110.48 133.704C111.325 134.838 111.779 136.215 111.775 137.63C111.701 141.445 109.122 143.809 105.05 143.809L105.044 143.788Z" fill="url(#paint5_linear_11043_344)"/>
<path d="M175.302 119.636V135.077C175.302 139.019 172.65 142.085 169.122 142.2H168.881C165.165 142.2 162.518 139.543 162.455 135.727C162.429 134.868 162.578 134.012 162.891 133.211C163.204 132.41 163.677 131.681 164.279 131.067C164.891 130.444 165.621 129.948 166.427 129.609C167.232 129.27 168.096 129.094 168.97 129.091C170.521 129.196 172.005 129.758 173.237 130.706L174.18 131.571V129.191L173.74 128.824C172.276 127.839 170.556 127.303 168.792 127.283C167.677 127.277 166.571 127.493 165.54 127.918C164.509 128.344 163.572 128.969 162.785 129.759C161.997 130.549 161.374 131.488 160.952 132.52C160.53 133.553 160.318 134.659 160.327 135.774C160.321 136.854 160.531 137.924 160.944 138.921C161.357 139.918 161.965 140.823 162.733 141.582C164.354 143.211 166.557 144.129 168.855 144.134H168.939C173.656 144.108 177.362 140.25 177.362 135.365V119.641L175.302 119.636Z" fill="url(#paint6_linear_11043_344)"/>
<path d="M155.72 135.532H153.666V135.768C153.653 137.435 152.979 139.029 151.792 140.2C150.605 141.371 149.001 142.022 147.334 142.011C145.602 141.974 143.952 141.268 142.73 140.04C141.508 138.813 140.81 137.159 140.782 135.427C140.774 133.759 141.419 132.153 142.578 130.952C143.738 129.752 145.32 129.052 146.988 129.001H147.103C147.974 128.975 148.841 129.139 149.642 129.482C150.443 129.825 151.16 130.339 151.742 130.988L142.281 137.278C142.546 137.845 142.916 138.357 143.371 138.787L154.378 131.412L154.567 131.287L154.452 131.087C153.687 129.874 152.63 128.872 151.379 128.172C150.128 127.471 148.721 127.095 147.287 127.078H147.124C144.93 127.144 142.845 128.052 141.302 129.613C139.758 131.175 138.874 133.269 138.832 135.464C138.808 136.568 139.006 137.666 139.415 138.691C139.823 139.717 140.435 140.65 141.212 141.434C142.001 142.238 142.942 142.878 143.98 143.316C145.019 143.754 146.134 143.982 147.26 143.987C149.567 143.988 151.78 143.073 153.414 141.445C154.164 140.7 154.756 139.812 155.157 138.835C155.557 137.857 155.758 136.809 155.747 135.752L155.72 135.532Z" fill="url(#paint7_linear_11043_344)"/>
<path d="M133.914 135.532H131.859V135.768C131.847 137.435 131.173 139.029 129.986 140.2C128.798 141.371 127.195 142.022 125.528 142.011C123.796 141.974 122.146 141.268 120.924 140.04C119.702 138.813 119.004 137.159 118.976 135.427C118.968 133.759 119.612 132.154 120.77 130.954C121.928 129.754 123.509 129.053 125.176 129.001H125.297C126.168 128.975 127.035 129.139 127.836 129.482C128.637 129.825 129.354 130.339 129.936 130.988L120.469 137.278C120.739 137.844 121.11 138.356 121.565 138.787L132.572 131.412L132.761 131.287L132.646 131.087C131.875 129.87 130.811 128.865 129.55 128.166C128.29 127.467 126.874 127.097 125.433 127.088H125.276C123.081 127.154 120.995 128.061 119.45 129.622C117.906 131.183 117.021 133.279 116.979 135.475C116.954 136.578 117.152 137.676 117.561 138.702C117.97 139.727 118.581 140.66 119.358 141.445C120.15 142.254 121.095 142.897 122.138 143.337C123.181 143.778 124.301 144.005 125.433 144.008C127.738 144.008 129.95 143.094 131.581 141.466C132.332 140.721 132.925 139.834 133.327 138.856C133.728 137.878 133.93 136.83 133.919 135.773L133.914 135.532Z" fill="url(#paint8_linear_11043_344)"/>
<path d="M81.667 127.219C76.9496 127.219 73.2334 131.113 73.2334 136.088V151.723H75.33V136.245C75.33 132.738 77.6153 129.095 81.4469 129.064H81.6303C85.9703 129.064 88.004 132.476 88.0565 135.652C88.0772 136.493 87.9293 137.329 87.6214 138.111C87.3135 138.894 86.8519 139.606 86.2638 140.207C85.6649 140.81 84.9526 141.287 84.1682 141.613C83.3837 141.939 82.5426 142.106 81.6932 142.105C80.1449 142.063 78.6539 141.51 77.4528 140.532L76.8343 140.008V142.445L76.9601 142.54C78.4163 143.495 80.1142 144.017 81.8557 144.044C84.0869 144.019 86.2167 143.109 87.7767 141.513C89.3367 139.918 90.1991 137.768 90.174 135.537C90.149 133.306 89.2387 131.176 87.6433 129.616C86.0479 128.056 83.8982 127.194 81.667 127.219Z" fill="url(#paint9_linear_11043_344)"/>
<defs>
<linearGradient id="paint0_linear_11043_344" x1="62.2074" y1="57.0937" x2="143.775" y2="56.8152" gradientUnits="userSpaceOnUse">
<stop stop-color="#FF9191"/>
<stop offset="1" stop-color="#FF5793"/>
</linearGradient>
<linearGradient id="paint1_linear_11043_344" x1="32.5737" y1="133.706" x2="48.1683" y2="133.665" gradientUnits="userSpaceOnUse">
<stop stop-color="#FF9191"/>
<stop offset="1" stop-color="#FF5793"/>
</linearGradient>
<linearGradient id="paint2_linear_11043_344" x1="32.816" y1="133.666" x2="47.923" y2="133.626" gradientUnits="userSpaceOnUse">
<stop stop-color="#FF9191"/>
<stop offset="1" stop-color="#FF5793"/>
</linearGradient>
<linearGradient id="paint3_linear_11043_344" x1="50.3504" y1="137.002" x2="67.2906" y2="136.933" gradientUnits="userSpaceOnUse">
<stop stop-color="#FF9191"/>
<stop offset="1" stop-color="#FF5793"/>
</linearGradient>
<linearGradient id="paint4_linear_11043_344" x1="50.6566" y1="136.957" x2="67.0005" y2="136.89" gradientUnits="userSpaceOnUse">
<stop stop-color="#FF9191"/>
<stop offset="1" stop-color="#FF5793"/>
</linearGradient>
<linearGradient id="paint5_linear_11043_344" x1="95.3165" y1="133.733" x2="111.708" y2="133.687" gradientUnits="userSpaceOnUse">
<stop stop-color="#FF9191"/>
<stop offset="1" stop-color="#FF5793"/>
</linearGradient>
<linearGradient id="paint6_linear_11043_344" x1="160.256" y1="133.927" x2="177.293" y2="133.878" gradientUnits="userSpaceOnUse">
<stop stop-color="#FF9191"/>
<stop offset="1" stop-color="#FF5793"/>
</linearGradient>
<linearGradient id="paint7_linear_11043_344" x1="138.76" y1="136.941" x2="155.678" y2="136.872" gradientUnits="userSpaceOnUse">
<stop stop-color="#FF9191"/>
<stop offset="1" stop-color="#FF5793"/>
</linearGradient>
<linearGradient id="paint8_linear_11043_344" x1="116.907" y1="136.958" x2="133.85" y2="136.888" gradientUnits="userSpaceOnUse">
<stop stop-color="#FF9191"/>
<stop offset="1" stop-color="#FF5793"/>
</linearGradient>
<linearGradient id="paint9_linear_11043_344" x1="73.1634" y1="141.513" x2="90.1056" y2="141.465" gradientUnits="userSpaceOnUse">
<stop stop-color="#FF9191"/>
<stop offset="1" stop-color="#FF5793"/>
</linearGradient>
</defs>
</svg>
