<svg width="237" height="60" viewBox="0 0 237 60" fill="none" xmlns="http://www.w3.org/2000/svg">
<path d="M17.7649 38.487C17.9066 38.7232 18.186 38.9398 18.6951 38.5815L24.1422 31.4957C24.4101 30.8777 24.6207 30.8226 24.525 29.7715C24.2377 28.5838 24.2029 27.3462 24.423 26.1434C24.6431 24.9405 25.1129 23.8006 25.8003 22.8015C26.4878 21.8023 27.3767 20.9674 28.4064 20.3537C29.4362 19.74 30.5825 19.3619 31.7673 19.2452C32.3457 18.9696 32.858 18.5664 33.2678 18.0642L37.7426 12.2263C38.3321 11.2343 37.846 10.6517 37.5206 10.4313C35.9888 9.98404 34.4046 9.7549 32.8123 9.75025H23.1699C17.7113 -0.736711 8.01534 0.519049 8.01534 0.519049C7.02775 6.30184 11.5867 9.9274 14.9055 11.7618C11.6097 11.2265 6.64496 10.943 2.41899 12.9074C2.41899 12.9074 -3.5946 15.2102 3.34151 18.2689C3.34151 18.2689 10.6374 21.5875 17.7688 18.08L17.7649 38.487ZM43.2012 13.3128C42.9295 13.1592 42.6202 13.09 42.311 13.1138C42.0018 13.1376 41.7059 13.2532 41.4595 13.4467L36.9694 19.3003C36.8775 19.694 36.7052 20.2923 37.3522 20.749C37.9193 21.1568 38.4337 21.6369 38.8833 22.1779L38.9216 22.2212C39.0326 22.359 39.1398 22.4968 39.2431 22.6424L39.2623 22.67C39.3618 22.8078 39.4575 22.9495 39.5455 23.0912C39.5544 23.1078 39.5646 23.1236 39.5762 23.1384C40.6272 24.8319 41.0639 26.8522 40.8095 28.8441C40.5552 30.836 39.6259 32.6719 38.1853 34.0288C36.7447 35.3857 34.885 36.1767 32.9333 36.2628C30.9815 36.3489 29.0628 35.7244 27.5145 34.4993C26.5193 34.2238 26.1556 34.6529 25.7767 34.952L25.214 35.7315L18.519 44.4194C18.1154 45.2372 17.8562 46.1223 17.7534 47.0333V59.5279L26.9824 55.2252V44.3919C28.8684 44.9892 30.8277 45.306 32.8008 45.3327C36.4321 45.3346 39.9718 44.1613 42.9185 41.9791C45.8651 39.7968 48.0693 36.7162 49.2186 33.1739C50.3679 29.6315 50.4041 25.8071 49.322 22.2424C48.24 18.6777 46.0945 15.5536 43.1897 13.3128H43.2012Z" fill="url(#paint0_linear_11826_5739)"/>
<path d="M75.9198 43.9992H75.6342H73.6913H73.3995V43.7136V17.6174H65.6775H65.3919V17.3319V15.7179V15.4324H65.6775H83.5674H83.8591V15.7179V17.3319V17.6174H83.5674H75.9198V43.7136V43.9992Z" fill="url(#paint1_linear_11826_5739)"/>
<path d="M75.6335 17.3255V43.7135H73.6844V17.3255H65.6768V15.7178H83.5667V17.3255H75.6335Z" fill="url(#paint2_linear_11826_5739)"/>
<path d="M96.4545 44.3027H96.3862C95.0779 44.2991 93.783 44.0377 92.5757 43.5337C91.3683 43.0296 90.2721 42.2926 89.3495 41.3649C87.4863 39.4912 86.4438 36.9542 86.4512 34.3118C86.4586 31.6695 87.5154 29.1383 89.389 27.2751C91.2627 25.4119 93.7998 24.3693 96.4421 24.3767H96.5787C97.9047 24.3961 99.2138 24.677 100.431 25.2032C101.648 25.7294 102.75 26.4906 103.673 27.4432C104.595 28.3958 105.321 29.5211 105.808 30.7546C106.295 31.9881 106.534 33.3055 106.511 34.6315C106.41 37.2308 105.306 39.6899 103.431 41.493C101.556 43.2961 99.0557 44.3031 96.4545 44.3027V44.3027ZM96.4545 26.6735C94.4605 26.7 92.5547 27.4999 91.1392 28.9045C89.7236 30.3091 88.909 32.2087 88.8671 34.2024C88.8253 36.1961 89.5594 38.1282 90.9148 39.591C92.2701 41.0539 94.1406 41.9331 96.1317 42.0432H96.4359C97.4333 42.0393 98.4198 41.835 99.3369 41.4426C100.254 41.0502 101.083 40.4776 101.774 39.7589C102.839 38.6981 103.568 37.3474 103.871 35.8751C104.174 34.4028 104.037 32.874 103.477 31.479C102.917 30.084 101.959 28.8846 100.723 28.0301C99.4863 27.1756 98.0256 26.7038 96.5228 26.6735H96.4545Z" fill="url(#paint3_linear_11826_5739)"/>
<path d="M96.3546 44.0107C94.4344 43.984 92.5655 43.3866 90.9858 42.2945C89.4062 41.2024 88.1871 39.6651 87.4839 37.878C86.7806 36.091 86.625 34.1352 87.0367 32.2594C87.4484 30.3837 88.4089 28.6728 89.7959 27.3446C91.183 26.0164 92.9338 25.1309 94.8256 24.8008C96.7175 24.4707 98.6647 24.7109 100.42 25.4909C102.175 26.2708 103.658 27.5553 104.68 29.1808C105.703 30.8062 106.219 32.6992 106.162 34.6188C106.067 37.1514 104.991 39.5477 103.16 41.3006C101.33 43.0535 98.889 44.0254 96.3546 44.0107V44.0107ZM96.4291 26.3877C94.3297 26.422 92.3282 27.2813 90.8575 28.7799C89.3868 30.2784 88.5652 32.2957 88.5704 34.3953C88.5616 36.432 89.3389 38.3936 90.7404 39.8714C92.1419 41.3493 94.0596 42.2294 96.0939 42.3285C97.1406 42.3505 98.1813 42.1661 99.1568 41.7859C100.132 41.4057 101.023 40.8371 101.779 40.1125C102.535 39.388 103.14 38.5217 103.561 37.5631C103.982 36.6045 104.21 35.5724 104.232 34.5257C104.254 33.479 104.07 32.4382 103.689 31.4628C103.309 30.4874 102.74 29.5964 102.016 28.8407C101.291 28.085 100.425 27.4794 99.4664 27.0586C98.5079 26.6377 97.4758 26.4097 96.4291 26.3877V26.3877Z" fill="url(#paint4_linear_11826_5739)"/>
<path d="M151.142 44.0369H139.701V41.7835H149.981C155.096 41.7835 156.263 39.7785 156.431 36.7741C156.598 34.0925 155.115 32.4289 151.465 31.2246L146.188 29.4679C141.595 27.9098 139.633 25.6131 139.819 22.019C139.931 19.0083 141.433 15.4204 147.92 15.4204H157.343V17.5992H147.213C144.463 17.5992 142.445 19.3994 142.296 21.9755C142.122 25.0792 145.195 26.4697 146.523 26.9415L153.563 29.2941C155.169 29.7682 156.578 30.7506 157.579 32.0937C158.58 33.4368 159.118 35.0682 159.112 36.7431C159.025 41.2621 155.971 44.0617 151.148 44.0617L151.142 44.0369Z" fill="url(#paint5_linear_11826_5739)"/>
<path d="M234.347 15.4324V33.7196C234.347 38.3876 231.206 42.019 227.028 42.1555H226.743C222.342 42.1555 219.207 39.0083 219.132 34.4893C219.102 33.4713 219.277 32.4578 219.649 31.5094C220.02 30.5611 220.579 29.6976 221.293 28.9709C222.018 28.2327 222.882 27.6457 223.836 27.244C224.79 26.8423 225.813 26.6338 226.848 26.6306C228.684 26.7546 230.443 27.4199 231.901 28.5425L233.018 29.5668V26.7486L232.497 26.3141C230.763 25.1473 228.727 24.513 226.637 24.4891C225.316 24.4825 224.007 24.7383 222.786 25.2417C221.564 25.7451 220.455 26.486 219.523 27.4216C218.59 28.3571 217.852 29.4686 217.353 30.6914C216.853 31.9143 216.601 33.2242 216.612 34.5452C216.605 35.8236 216.853 37.0905 217.343 38.2717C217.832 39.4528 218.552 40.5242 219.461 41.4231C221.382 43.352 223.99 44.4393 226.712 44.4461H226.811C232.398 44.415 236.786 39.8463 236.786 34.061V15.4386L234.347 15.4324Z" fill="url(#paint6_linear_11826_5739)"/>
<path d="M211.156 34.2597H208.722V34.5391C208.708 36.5136 207.909 38.4014 206.503 39.7878C205.097 41.1741 203.198 41.9454 201.224 41.9321C199.173 41.889 197.219 41.0526 195.772 39.5987C194.325 38.1448 193.498 36.1866 193.464 34.1356C193.455 32.1592 194.219 30.2575 195.592 28.8359C196.965 27.4142 198.838 26.5851 200.814 26.5252H200.951C201.982 26.4937 203.008 26.688 203.957 27.0943C204.906 27.5007 205.755 28.1094 206.444 28.8778L195.24 36.3268C195.554 36.9988 195.992 37.6053 196.531 38.1146L209.566 29.3807L209.79 29.2317L209.653 28.9958C208.747 27.5592 207.496 26.3722 206.014 25.5428C204.532 24.7134 202.866 24.2679 201.168 24.2471H200.975C198.377 24.3262 195.908 25.4015 194.08 27.2502C192.252 29.0989 191.205 31.5797 191.155 34.179C191.126 35.4864 191.361 36.7862 191.845 38.0009C192.329 39.2156 193.053 40.3204 193.973 41.2493C194.908 42.2018 196.023 42.9594 197.252 43.4783C198.482 43.9972 199.802 44.2671 201.137 44.2724C203.869 44.2733 206.49 43.1906 208.424 41.2617C209.312 40.3797 210.014 39.3287 210.488 38.1709C210.963 37.013 211.2 35.7717 211.187 34.5204L211.156 34.2597Z" fill="url(#paint7_linear_11826_5739)"/>
<path d="M185.332 34.2593H182.899V34.5386C182.884 36.5131 182.086 38.401 180.68 39.7873C179.273 41.1736 177.374 41.9449 175.4 41.9317C173.349 41.8886 171.395 41.0522 169.948 39.5983C168.501 38.1443 167.674 36.1861 167.641 34.1351C167.632 32.1598 168.394 30.259 169.766 28.8375C171.137 27.416 173.01 26.5862 174.984 26.5248H175.127C176.159 26.4933 177.185 26.6875 178.134 27.0939C179.083 27.5002 179.931 28.1089 180.62 28.8774L169.41 36.3263C169.729 36.997 170.168 37.6031 170.707 38.1141L183.743 29.3802L183.966 29.2312L183.83 28.9953C182.917 27.5532 181.657 26.3636 180.164 25.536C178.671 24.7084 176.995 24.2693 175.288 24.259H175.102C172.502 24.3366 170.032 25.4112 168.203 27.2601C166.373 29.109 165.325 31.5906 165.276 34.191C165.247 35.4983 165.481 36.7981 165.965 38.0128C166.45 39.2275 167.173 40.3323 168.094 41.2613C169.031 42.2197 170.15 42.9818 171.386 43.5029C172.621 44.0241 173.948 44.294 175.288 44.2968C178.018 44.2974 180.637 43.2146 182.57 41.2861C183.458 40.4044 184.161 39.3536 184.636 38.1957C185.112 37.0379 185.35 35.7964 185.338 34.5448L185.332 34.2593Z" fill="url(#paint8_linear_11826_5739)"/>
<path d="M123.457 24.4142C117.87 24.4142 113.469 29.0263 113.469 34.9172V53.4341H115.952V35.1034C115.952 30.9506 118.658 26.6365 123.196 26.5992H123.413C128.553 26.5992 130.961 30.6403 131.023 34.402C131.048 35.3974 130.873 36.3876 130.508 37.3142C130.144 38.2407 129.597 39.0847 128.9 39.7963C128.191 40.5095 127.348 41.0752 126.419 41.4609C125.49 41.8465 124.493 42.0445 123.488 42.0434C121.654 41.9942 119.888 41.3394 118.466 40.1812L117.733 39.5604V42.4469L117.882 42.5586C119.607 43.6903 121.618 44.3081 123.68 44.3402C126.322 44.3105 128.845 43.2324 130.692 41.3431C132.54 39.4537 133.561 36.9078 133.531 34.2655C133.502 31.6231 132.424 29.1007 130.534 27.2533C128.645 25.4058 126.099 24.3846 123.457 24.4142V24.4142Z" fill="url(#paint9_linear_11826_5739)"/>
<defs>
<linearGradient id="paint0_linear_11826_5739" x1="-0.207057" y1="34.9213" x2="49.9037" y2="34.7471" gradientUnits="userSpaceOnUse">
<stop stop-color="#FF9191"/>
<stop offset="1" stop-color="#FF5793"/>
</linearGradient>
<linearGradient id="paint1_linear_11826_5739" x1="65.3156" y1="32.0963" x2="83.784" y2="32.0474" gradientUnits="userSpaceOnUse">
<stop stop-color="#FF9191"/>
<stop offset="1" stop-color="#FF5793"/>
</linearGradient>
<linearGradient id="paint2_linear_11826_5739" x1="65.6028" y1="32.0486" x2="83.4939" y2="32.0017" gradientUnits="userSpaceOnUse">
<stop stop-color="#FF9191"/>
<stop offset="1" stop-color="#FF5793"/>
</linearGradient>
<linearGradient id="paint3_linear_11826_5739" x1="86.3682" y1="36.0002" x2="106.43" y2="35.9174" gradientUnits="userSpaceOnUse">
<stop stop-color="#FF9191"/>
<stop offset="1" stop-color="#FF5793"/>
</linearGradient>
<linearGradient id="paint4_linear_11826_5739" x1="86.7317" y1="35.9466" x2="106.088" y2="35.8673" gradientUnits="userSpaceOnUse">
<stop stop-color="#FF9191"/>
<stop offset="1" stop-color="#FF5793"/>
</linearGradient>
<linearGradient id="paint5_linear_11826_5739" x1="139.621" y1="32.1278" x2="159.033" y2="32.0739" gradientUnits="userSpaceOnUse">
<stop stop-color="#FF9191"/>
<stop offset="1" stop-color="#FF5793"/>
</linearGradient>
<linearGradient id="paint6_linear_11826_5739" x1="216.528" y1="32.357" x2="236.704" y2="32.2995" gradientUnits="userSpaceOnUse">
<stop stop-color="#FF9191"/>
<stop offset="1" stop-color="#FF5793"/>
</linearGradient>
<linearGradient id="paint7_linear_11826_5739" x1="191.07" y1="35.9285" x2="211.105" y2="35.8464" gradientUnits="userSpaceOnUse">
<stop stop-color="#FF9191"/>
<stop offset="1" stop-color="#FF5793"/>
</linearGradient>
<linearGradient id="paint8_linear_11826_5739" x1="165.19" y1="35.9477" x2="185.257" y2="35.8654" gradientUnits="userSpaceOnUse">
<stop stop-color="#FF9191"/>
<stop offset="1" stop-color="#FF5793"/>
</linearGradient>
<linearGradient id="paint9_linear_11826_5739" x1="113.386" y1="41.3422" x2="133.45" y2="41.2854" gradientUnits="userSpaceOnUse">
<stop stop-color="#FF9191"/>
<stop offset="1" stop-color="#FF5793"/>
</linearGradient>
</defs>
</svg>
