<svg width="54" height="54" viewBox="0 0 54 54" fill="none" xmlns="http://www.w3.org/2000/svg">
<g clip-path="url(#clip0_11848_1717)">
<path d="M41.8532 15.0002C40.5764 15.9009 39.1627 16.5897 37.6666 17.0402C36.8636 16.1169 35.7963 15.4625 34.6093 15.1655C33.4222 14.8684 32.1726 14.9432 31.0293 15.3795C29.8861 15.8158 28.9045 16.5928 28.2172 17.6052C27.5299 18.6176 27.1702 19.8167 27.1866 21.0402V22.3736C24.8434 22.4343 22.5216 21.9146 20.4279 20.8608C18.3342 19.807 16.5337 18.2517 15.1866 16.3336C15.1866 16.3336 9.85323 28.3336 21.8532 33.6669C19.1073 35.5308 15.8361 36.4655 12.5199 36.3336C24.5199 43.0002 39.1866 36.3336 39.1866 21.0002C39.1853 20.6288 39.1496 20.2583 39.0799 19.8936C40.4407 18.5515 41.401 16.8572 41.8532 15.0002V15.0002Z" stroke="#6D6D6D" stroke-width="2.6" stroke-linecap="round" stroke-linejoin="round"/>
</g>
<rect x="2.0865" y="1.9001" width="50.2" height="50.2" rx="25.1" stroke="#6D6D6D" stroke-width="2.6"/>
<defs>
<clipPath id="clip0_11848_1717">
<rect width="32" height="32" fill="white" transform="translate(11.1865 11)"/>
</clipPath>
</defs>
</svg>
