<svg width="49" height="48" viewBox="0 0 49 48" fill="none" xmlns="http://www.w3.org/2000/svg">
<g clip-path="url(#clip0_11882_5531)">
<path d="M35.3865 15.0003C34.4289 15.6758 33.3686 16.1924 32.2465 16.5303C31.6442 15.8378 30.8438 15.347 29.9535 15.1242C29.0632 14.9015 28.126 14.9575 27.2686 15.2847C26.4111 15.612 25.6749 16.1947 25.1595 16.954C24.644 17.7133 24.3742 18.6126 24.3865 19.5303V20.5303C22.6291 20.5759 20.8877 20.1861 19.3175 19.3957C17.7472 18.6054 16.3968 17.4389 15.3865 16.0003C15.3865 16.0003 11.3865 25.0003 20.3865 29.0003C18.327 30.3983 15.8736 31.0992 13.3865 31.0003C22.3865 36.0003 33.3865 31.0003 33.3865 19.5003C33.3856 19.2217 33.3588 18.9439 33.3065 18.6703C34.3271 17.6638 35.0473 16.393 35.3865 15.0003V15.0003Z" stroke="#F2F2F2" stroke-width="2.6" stroke-linecap="round" stroke-linejoin="round"/>
</g>
<rect x="1.38647" y="1" width="46" height="46" rx="23" stroke="#F2F2F2" stroke-width="2"/>
<defs>
<clipPath id="clip0_11882_5531">
<rect width="24" height="24" fill="white" transform="translate(12.3865 12)"/>
</clipPath>
</defs>
</svg>
